<?xml version="1.0" encoding="UTF-8"?><svg id="Layer_2" xmlns="http://www.w3.org/2000/svg" viewBox="0 0 72.69 25.43"><defs><style>.cls-1{fill:#634cff;}</style></defs><g id="Layer_1-2"><g><path class="cls-1" d="M1.11,10.51c.74-1.47,1.74-2.61,3.01-3.4,1.27-.79,2.69-1.19,4.25-1.19,1.34,0,2.51,.27,3.52,.82s1.79,1.26,2.33,2.14v-2.69h5.81V25.16h-5.81v-2.69c-.57,.88-1.35,1.6-2.36,2.14s-2.18,.82-3.52,.82c-1.54,0-2.95-.4-4.22-1.21-1.27-.8-2.27-1.95-3.01-3.43-.74-1.48-1.11-3.2-1.11-5.15s.37-3.66,1.11-5.13Zm11.9,1.73c-.8-.84-1.79-1.26-2.94-1.26s-2.14,.41-2.94,1.24-1.21,1.97-1.21,3.42,.4,2.6,1.21,3.45c.8,.85,1.79,1.27,2.94,1.27s2.14-.42,2.94-1.26c.8-.84,1.21-1.98,1.21-3.43s-.4-2.6-1.21-3.43Z"/><path class="cls-1" d="M31.55,6.73c1.02-.54,2.19-.82,3.5-.82,1.56,0,2.98,.4,4.25,1.19,1.27,.79,2.27,1.93,3.01,3.4,.74,1.47,1.1,3.18,1.1,5.13s-.37,3.67-1.1,5.15c-.74,1.49-1.74,2.63-3.01,3.43-1.27,.8-2.69,1.21-4.25,1.21-1.34,0-2.5-.27-3.5-.8-1-.53-1.78-1.24-2.35-2.12v2.65h-5.81V0h5.81V8.87c.54-.88,1.33-1.6,2.35-2.14Zm4.74,5.49c-.81-.83-1.8-1.24-2.98-1.24s-2.14,.42-2.94,1.26c-.81,.84-1.21,1.98-1.21,3.43s.4,2.6,1.21,3.43c.8,.84,1.78,1.26,2.94,1.26s2.14-.42,2.96-1.27c.82-.85,1.22-2,1.22-3.45s-.4-2.59-1.21-3.42Z"/><path class="cls-1" d="M51.44,0V25.16h-5.81V0h5.81Z"/><path class="cls-1" d="M72.59,17.07h-13.16c.09,1.18,.47,2.08,1.14,2.7,.67,.62,1.49,.93,2.46,.93,1.45,0,2.46-.61,3.03-1.84h6.19c-.32,1.25-.89,2.37-1.72,3.37-.83,1-1.87,1.78-3.11,2.35-1.25,.57-2.64,.85-4.18,.85-1.86,0-3.51-.4-4.96-1.19-1.45-.79-2.58-1.93-3.4-3.4s-1.22-3.2-1.22-5.17,.4-3.69,1.21-5.17c.8-1.47,1.93-2.61,3.38-3.4,1.45-.79,3.12-1.19,5-1.19s3.47,.39,4.9,1.16,2.54,1.87,3.35,3.3c.8,1.43,1.21,3.09,1.21,5,0,.54-.03,1.11-.1,1.7Zm-5.85-3.23c0-1-.34-1.79-1.02-2.38-.68-.59-1.53-.88-2.55-.88s-1.8,.28-2.46,.85c-.67,.57-1.08,1.37-1.24,2.41h7.28Z"/></g></g></svg>