<svg xmlns="http://www.w3.org/2000/svg" viewBox="0 0 214.81 214.81"><defs><style>.cls-1{fill:#5655a5;}.cls-2{fill:#fff;}</style></defs><g id="Layer_2" data-name="Layer 2"><g id="Layer_1-2" data-name="Layer 1"><rect class="cls-1" width="214.81" height="214.81" rx="40.91"/><path class="cls-2" d="M161.19,134.54q0,7.22,2,10.46a12.3,12.3,0,0,0,6.44,4.94l-7.82,25a53.75,53.75,0,0,1-19.07-5,28.46,28.46,0,0,1-12.21-11.85,44.12,44.12,0,0,1-18.77,13,66.13,66.13,0,0,1-23.34,4.27q-19.74,0-31.47-11.25T45.2,135.26q0-20.82,16.31-32.13t45.9-11.31h17.2V87q0-10-6.44-14.8T99.34,67.4a91.48,91.48,0,0,0-15.76,1.75,135.35,135.35,0,0,0-19.25,5L55.55,48.87a145.17,145.17,0,0,1,25.81-7.09,136.86,136.86,0,0,1,24-2.41q28.52,0,42.17,11.61t13.66,33.51Zm-59.68,13.71a26.91,26.91,0,0,0,12.87-3.67,24.38,24.38,0,0,0,10.23-10.4v-20.7h-9.38q-15.89,0-23.34,4.87t-7.46,14.26q0,7.33,4.51,11.49T101.51,148.25Z"/></g></g></svg>