<svg id="Capa_1" enable-background="new 0 0 502 502" height="512" viewBox="0 0 502 502" width="512" xmlns="http://www.w3.org/2000/svg" xmlns:xlink="http://www.w3.org/1999/xlink"><linearGradient id="SVGID_1_" gradientUnits="userSpaceOnUse" x1="325.621" x2="325.621" y1="434.316" y2="482.597"><stop offset="0" stop-color="#49d4b3"/><stop offset=".2123" stop-color="#4ed5b5"/><stop offset=".4801" stop-color="#5ed9bc"/><stop offset=".7763" stop-color="#78e0c7"/><stop offset="1" stop-color="#90e6d2"/></linearGradient><linearGradient id="lg1"><stop offset="0" stop-color="#9fd8e6"/><stop offset="1" stop-color="#c4e8f0"/></linearGradient><linearGradient id="SVGID_2_" gradientUnits="userSpaceOnUse" x1="171.142" x2="6.237" xlink:href="#lg1" y1="83.092" y2="83.092"/><linearGradient id="SVGID_3_" gradientTransform="matrix(-1 0 0 1 902 0)" gradientUnits="userSpaceOnUse" x1="571.142" x2="406.237" xlink:href="#lg1" y1="83.092" y2="83.092"/><linearGradient id="SVGID_4_" gradientUnits="userSpaceOnUse" x1="251" x2="251" y1="164.079" y2="521.335"><stop offset="0" stop-color="#c5cccc"/><stop offset="1" stop-color="#e6e6e6"/></linearGradient><linearGradient id="SVGID_5_" gradientUnits="userSpaceOnUse" x1="251" x2="251" y1="92.614" y2="426.514"><stop offset="0" stop-color="#f4c22c"/><stop offset="1" stop-color="#f9e198"/></linearGradient><linearGradient id="SVGID_6_" gradientUnits="userSpaceOnUse" x1="166.484" x2="366.557" y1="100.1" y2="100.1"><stop offset="0" stop-color="#f5e5a2"/><stop offset="1" stop-color="#fcf7cf"/></linearGradient><linearGradient id="lg2"><stop offset="0" stop-color="#41c4a6"/><stop offset=".216" stop-color="#46c6a9"/><stop offset=".4884" stop-color="#56cdb2"/><stop offset=".7898" stop-color="#70d7c0"/><stop offset="1" stop-color="#86e0cd"/></linearGradient><linearGradient id="SVGID_7_" gradientUnits="userSpaceOnUse" x1="149.547" x2="149.547" xlink:href="#lg2" y1="199.73" y2="297.528"/><linearGradient id="lg3"><stop offset="0" stop-color="#5bd9bb"/><stop offset=".2532" stop-color="#60dabd"/><stop offset=".5725" stop-color="#70dec4"/><stop offset=".9261" stop-color="#8ae4cf"/><stop offset="1" stop-color="#90e6d2"/></linearGradient><linearGradient id="SVGID_8_" gradientUnits="userSpaceOnUse" x1="66.87" x2="224.688" xlink:href="#lg3" y1="173.457" y2="173.457"/><linearGradient id="SVGID_9_" gradientUnits="userSpaceOnUse" x1="144.223" x2="378.075" xlink:href="#lg3" y1="375.337" y2="375.337"/><linearGradient id="SVGID_10_" gradientUnits="userSpaceOnUse" x1="264.21" x2="264.21" xlink:href="#lg2" y1="176.937" y2="376.475"/><linearGradient id="SVGID_11_" gradientUnits="userSpaceOnUse" x1="422.319" x2="299.147" xlink:href="#lg3" y1="173.457" y2="173.457"/><g><path d="m295.832 401.254-2.367 59.431c5.312 3.625 9.116 7.908 10.898 13.151 4.878 14.347 20.461 22.019 34.803 17.143 14.344-4.877 22.02-20.458 17.143-34.803-10.049-29.561-33.577-45.039-60.477-54.922z" fill="url(#SVGID_1_)"/><path d="m120.872 0c-43.582 0-73.229 36.715-104.709 68.27-15.733 15.77-16.101 42.098-.182 57.68 8.574 8.392 19.971 12.175 31.094 11.355 3.649-.269 6.99 1.867 8.496 5.201 6.306 13.962 20.347 23.679 36.663 23.679 12.218 0 23.161-5.451 30.535-14.052 2.447-2.854 6.559-3.714 9.965-2.123 25.603 11.96 57.066-6.341 57.074-36.524 0-.008.002-.015.006-.022l29.791-46.756c.014-.022.005-.051-.02-.06-25.779-9.591-54.93-66.648-98.713-66.648z" fill="url(#SVGID_2_)"/><path d="m111.907 96.873c-13.08 0-25.376-5.093-34.624-14.342-4.491-4.491-4.491-11.772 0-16.264 4.491-4.491 11.772-4.492 16.264 0 4.904 4.904 11.425 7.605 18.361 7.605s13.456-2.701 18.36-7.605c4.491-4.491 11.772-4.491 16.264 0 4.491 4.491 4.491 11.772 0 16.264-9.25 9.249-21.546 14.342-34.625 14.342z" fill="#71c4d1"/><path d="m381.128 0c43.581 0 73.229 36.715 104.709 68.27 15.733 15.77 16.101 42.098.182 57.68-8.574 8.392-19.971 12.175-31.094 11.355-3.649-.269-6.99 1.867-8.496 5.201-6.306 13.962-20.347 23.679-36.663 23.679-12.218 0-23.161-5.451-30.535-14.052-2.447-2.854-6.559-3.714-9.965-2.123-25.603 11.96-57.066-6.341-57.074-36.524 0-.008-.002-.015-.006-.022l-29.791-46.756c-.014-.022-.005-.051.02-.06 25.779-9.591 54.93-66.648 98.713-66.648z" fill="url(#SVGID_3_)"/><path d="m390.093 96.873c-13.079 0-25.376-5.093-34.624-14.342-4.491-4.491-4.491-11.772 0-16.264 4.491-4.491 11.772-4.491 16.264 0 4.904 4.904 11.425 7.605 18.36 7.605 6.936 0 13.457-2.701 18.361-7.605 4.492-4.492 11.773-4.491 16.264 0s4.491 11.772 0 16.264c-9.249 9.249-21.545 14.342-34.625 14.342z" fill="#71c4d1"/><path d="m305.742 152.507h-109.484l12.298 308.707c.908 22.783 19.642 40.786 42.444 40.786 22.802 0 41.536-18.003 42.444-40.787z" fill="url(#SVGID_4_)"/><path d="m305.742 152.507h-109.484l12.298 308.707c.908 22.783 19.642 40.786 42.444 40.786 22.802 0 41.536-18.003 42.444-40.787z" fill="url(#SVGID_5_)"/><path d="m255.977 298.818c-20.133 5.387-38.802 10.646-53.185 17.703l1.581 39.693c3.22-2.052 6.297-3.974 9.15-5.728 11.135-6.848 32.134-12.736 51.451-17.868 8.261-2.195 13.729-10.031 12.928-18.541-1.012-10.774-11.471-18.056-21.925-15.259z" fill="#fcb500"/><ellipse cx="251" cy="100.1" fill="url(#SVGID_6_)" rx="85.706" ry="78.487"/><path d="m201.59 286.35-2.352-59.038c-31.666-12.383-46.868-26.927-46.868-53.855 0-15.151-12.282-27.433-27.433-27.433s-27.433 12.282-27.433 27.433c0 38.688 17.333 69.03 51.517 90.185 15.712 9.723 33.917 16.822 52.569 22.708z" fill="url(#SVGID_7_)"/><ellipse cx="156.604" cy="173.457" fill="url(#SVGID_8_)" rx="59.099" ry="50.87"/><path d="m207.533 435.54 1.023 25.673c.504 12.659 6.517 23.836 15.668 31.275 10.107-7.063 36.045-13.55 49.052-16.551 5.997-1.384 12.19-2.815 18.464-4.366.974-3.3 1.561-6.769 1.704-10.358l2.018-50.65z" fill="#fcb500"/><path d="m335.556 273.939c-10.204-6.276-21.778-11.341-34.026-15.712l-2.322 58.294c2.687 1.318 5.235 2.695 7.604 4.152 13.095 8.054 17.486 16.109 16.202 29.719-.772 8.17-3.795 14.964-16.043 21.567-42.314 22.81-137.989 15.705-161.28 84.217-4.877 14.345 2.798 29.926 17.143 34.803 14.342 4.876 29.925-2.796 34.803-17.143 10.353-30.451 88.848-28.502 135.369-53.581 26.933-14.519 41.949-36.29 44.631-64.708 2.267-24.027-3.193-57.689-42.081-81.608z" fill="url(#SVGID_9_)"/><path d="m377.062 146.024c-15.151 0-27.433 12.282-27.433 27.433 0 39.291-32.351 52.22-101.018 70.534-29.058 7.75-59.105 15.764-82.167 29.948-38.889 23.918-44.348 57.58-42.081 81.608 2.682 28.418 17.698 50.188 44.631 64.708.39.21.8.404 1.195.611 10.385-8.555 22.771-14.764 35.978-19.616l-.984-24.707c-3.638-1.396-7.044-2.907-10.154-4.584-12.248-6.603-15.271-13.397-16.042-21.567-1.284-13.61 3.107-21.665 16.202-29.719 35.504-21.836 108.775-26.699 157.79-57.031 34.185-21.155 51.517-51.497 51.517-90.185-.001-15.151-12.283-27.433-27.434-27.433z" fill="url(#SVGID_10_)"/><ellipse cx="345.396" cy="173.457" fill="url(#SVGID_11_)" rx="59.099" ry="50.87"/><g fill="#fffeed"><path d="m307.111 98.311c-4.392 0-8.419-2.915-9.638-7.356-.732-2.668-1.795-5.285-3.16-7.78-2.651-4.845-.872-10.922 3.973-13.573 4.846-2.65 10.922-.871 13.573 3.973 2.109 3.856 3.758 7.922 4.901 12.086 1.461 5.326-1.671 10.828-6.997 12.29-.886.244-1.776.36-2.652.36z"/><path d="m225.773 64.702c-3.884 0-7.579-2.276-9.201-6.074-2.169-5.079.189-10.954 5.268-13.125 9.15-3.909 18.961-5.891 29.161-5.891 8.027 0 15.89 1.247 23.369 3.707 5.247 1.726 8.101 7.377 6.375 12.624-1.726 5.246-7.379 8.101-12.624 6.375-5.459-1.796-11.219-2.706-17.121-2.706-7.483 0-14.651 1.441-21.304 4.283-1.281.547-2.613.807-3.923.807z"/></g></g></svg>