<svg id="Capa_1" enable-background="new 0 0 502 502" height="512" viewBox="0 0 502 502" width="512" xmlns="http://www.w3.org/2000/svg" xmlns:xlink="http://www.w3.org/1999/xlink"><linearGradient id="SVGID_1_" gradientUnits="userSpaceOnUse" x1="229.199" x2="229.199" y1="169.116" y2="24.291"><stop offset="0" stop-color="#9fd8e6"/><stop offset="1" stop-color="#c4e8f0"/></linearGradient><linearGradient id="SVGID_2_" gradientUnits="userSpaceOnUse" x1="160.441" x2="160.441" y1="215.234" y2="98.252"><stop offset="0" stop-color="#53aae6"/><stop offset="1" stop-color="#a4d2f0"/></linearGradient><linearGradient id="SVGID_3_" gradientUnits="userSpaceOnUse" x1="251" x2="251" y1="285.851" y2="467.055"><stop offset="0" stop-color="#d4dbdb"/><stop offset="1" stop-color="#f3f3f3"/></linearGradient><linearGradient id="SVGID_4_" gradientUnits="userSpaceOnUse" x1="51.797" x2="541.735" y1="261.615" y2="261.615"><stop offset="0" stop-color="#f4d952"/><stop offset="1" stop-color="#f9edaf"/></linearGradient><linearGradient id="SVGID_5_" gradientUnits="userSpaceOnUse" x1="356.633" x2="356.633" y1="242.375" y2="34.297"><stop offset="0" stop-color="#ec6f80"/><stop offset="1" stop-color="#eca0aa"/></linearGradient><linearGradient id="SVGID_6_" gradientUnits="userSpaceOnUse" x1="78.665" x2="423.335" y1="468.364" y2="468.364"><stop offset="0" stop-color="#5bd9bb"/><stop offset=".2532" stop-color="#60dabd"/><stop offset=".5725" stop-color="#70dec4"/><stop offset=".9261" stop-color="#8ae4cf"/><stop offset="1" stop-color="#90e6d2"/></linearGradient><g><path d="m243.44 166.418-97.239-97.239 48.62-48.62c26.852-26.852 70.387-26.852 97.239 0 26.852 26.852 26.852 70.387 0 97.239z" fill="url(#SVGID_1_)"/><path d="m243.44 166.418-97.239-97.239-48.62 48.62c-26.852 26.852-26.852 70.387 0 97.239 26.852 26.852 70.387 26.852 97.239 0z" fill="url(#SVGID_2_)"/><path d="m251 462.223 172.335-27.494 30.379-167.303h-405.428l30.379 167.303z" fill="url(#SVGID_3_)"/><path d="m362.261 332.479c-.812-12.265-11.321-21.599-23.597-20.975-32.096 1.631-63.514 2.638-87.664 2.638-53.608 0-143.041-4.956-196.175-10.701l8.367 46.078c55.283 5.299 137.183 9.624 187.808 9.624 24.766 0 57.016-1.036 89.973-2.714 12.535-.639 22.117-11.426 21.288-23.95z" fill="#c2c8cf"/><path d="m251 314.142c-57.511 0-156.26-5.704-207.181-11.967-25.608-3.149-43.813-26.461-40.663-52.068 3.149-25.608 26.455-43.816 52.068-40.664 47.091 5.792 142.235 11.268 195.776 11.268s148.685-5.476 195.776-11.268c25.616-3.146 48.919 15.057 52.068 40.664 3.15 25.607-15.055 48.919-40.663 52.068-50.921 6.263-149.67 11.967-207.181 11.967z" fill="url(#SVGID_4_)"/><ellipse cx="356.633" cy="119.249" fill="url(#SVGID_5_)" rx="81.339" ry="119.249"/><g fill="#ffccd3"><path d="m399.182 73.593c-4.021 0-7.813-2.443-9.339-6.423-1.613-4.206-3.452-7.997-5.466-11.268-3.694-5.999-7.839-10.135-12.671-12.646-4.901-2.545-6.811-8.583-4.265-13.483 2.545-4.902 8.582-6.811 13.483-4.265 8.136 4.226 14.836 10.737 20.483 19.906 2.662 4.324 5.055 9.234 7.11 14.595 1.978 5.157-.6 10.94-5.757 12.917-1.178.453-2.388.667-3.578.667z"/><path d="m407.889 123.354c-5.4 0-9.847-4.304-9.992-9.734-.081-3.055-.232-6.102-.448-9.055-.403-5.508 3.735-10.3 9.243-10.703 5.499-.409 10.3 3.735 10.703 9.243.239 3.261.405 6.62.495 9.983.147 5.521-4.21 10.115-9.731 10.262-.09.003-.18.004-.27.004z"/></g><path d="m78.665 434.729 3.416 18.81c5.095 28.061 29.532 48.461 58.052 48.461h221.733c28.52 0 52.958-20.4 58.053-48.461l3.416-18.81z" fill="url(#SVGID_6_)"/><g><ellipse cx="163.184" cy="408.78" fill="#eaadcd" rx="14.925" ry="11.994"/><ellipse cx="338.816" cy="408.78" fill="#eaadcd" rx="14.924" ry="11.994"/><ellipse cx="313.229" cy="379.224" fill="#fff" rx="29.557" ry="29.557" transform="matrix(.162 -.987 .987 .162 -111.646 627.023)"/><path d="m295.658 380.671c.755 9.046 8.331 16.153 17.572 16.153s16.817-7.108 17.572-16.153z" fill="#3b3b44"/><path d="m313.229 349.667c-16.324 0-29.557 13.233-29.557 29.557 0 .486.014.968.037 1.447h59.04c.023-.48.037-.962.037-1.447 0-16.324-13.233-29.557-29.557-29.557z" fill="#0099cf"/><ellipse cx="188.771" cy="379.224" fill="#fff" rx="29.557" ry="29.557" transform="matrix(.162 -.987 .987 .162 -215.983 504.203)"/><path d="m171.199 380.671c.755 9.046 8.331 16.153 17.572 16.153s16.817-7.108 17.572-16.153z" fill="#3b3b44"/><path d="m188.771 349.667c-16.324 0-29.557 13.233-29.557 29.557 0 .486.014.968.037 1.447h59.04c.023-.48.037-.962.037-1.447 0-16.324-13.234-29.557-29.557-29.557z" fill="#0099cf"/><path d="m262.365 412.229c-1.825 0-3.654-.662-5.097-2-3.749-3.477-8.787-3.477-12.536 0-3.038 2.815-7.783 2.636-10.599-.401-2.816-3.038-2.637-7.783.401-10.599 9.541-8.846 23.392-8.846 32.933 0 3.038 2.816 3.217 7.561.401 10.599-1.479 1.594-3.488 2.401-5.503 2.401z" fill="#3b3b44"/></g></g></svg>