<svg id="Capa_1" enable-background="new 0 0 502 502" height="512" viewBox="0 0 502 502" width="512" xmlns="http://www.w3.org/2000/svg" xmlns:xlink="http://www.w3.org/1999/xlink"><linearGradient id="SVGID_1_" gradientUnits="userSpaceOnUse" x1="123.332" x2="123.332" y1="333.881" y2="508.993"><stop offset="0" stop-color="#41c4a6"/><stop offset=".216" stop-color="#46c6a9"/><stop offset=".4884" stop-color="#56cdb2"/><stop offset=".7898" stop-color="#70d7c0"/><stop offset="1" stop-color="#86e0cd"/></linearGradient><linearGradient id="SVGID_2_" gradientUnits="userSpaceOnUse" x1="251" x2="251" y1="474.499" y2="55.344"><stop offset="0" stop-color="#5bd9bb"/><stop offset=".2532" stop-color="#60dabd"/><stop offset=".5725" stop-color="#70dec4"/><stop offset=".9261" stop-color="#8ae4cf"/><stop offset="1" stop-color="#90e6d2"/></linearGradient><linearGradient id="SVGID_3_" gradientUnits="userSpaceOnUse" x1="251" x2="251" y1="101.948" y2="377.12"><stop offset="0" stop-color="#f9edaf"/><stop offset="1" stop-color="#fffcdd"/></linearGradient><g><path d="m50.037 350.67c4.845 16.15-3.106 67.845-13.057 106.035-5.527 21.212 13.241 40.974 34.686 36.432 50.704-10.736 110.353-38.748 138.995-89.469z" fill="url(#SVGID_1_)"/><path d="m50.037 350.67c2.476 8.254 1.605 25.8-1.162 46.075 22.353 19.047 48.691 34.066 78.41 44.828-5.55 3.027-11.576 5.95-18.105 8.701-7.79 3.281-11.378 12.303-7.859 19.989 3.354 7.323 11.92 10.673 19.343 7.545 35.998-15.169 70.317-39.29 89.998-74.141z" fill="#00ba9c"/><ellipse cx="251" cy="219.91" fill="url(#SVGID_2_)" rx="251" ry="211.704"/><path d="m379.474 186.228h-46.716l33.034-33.034c5.236-5.236 5.236-13.724 0-18.96l-28.933-28.933c-5.236-5.236-13.724-5.236-18.96 0l-33.033 33.033v-46.715c0-7.404-6.002-13.407-13.406-13.407h-40.917c-7.404 0-13.406 6.002-13.406 13.407v46.716l-33.034-33.034c-5.236-5.236-13.724-5.236-18.96 0l-28.933 28.933c-5.236 5.236-5.236 13.724 0 18.96l33.034 33.034h-46.716c-7.404 0-13.407 6.002-13.407 13.407v40.917c0 7.404 6.002 13.407 13.407 13.407h46.716l-33.033 33.033c-5.236 5.236-5.236 13.724 0 18.96l28.933 28.933c5.236 5.236 13.724 5.236 18.96 0l33.034-33.034v46.716c0 7.404 6.002 13.407 13.406 13.407h40.917c7.404 0 13.406-6.002 13.406-13.407v-46.716l33.033 33.033c5.236 5.236 13.724 5.236 18.96 0l28.933-28.933c5.236-5.235 5.236-13.724 0-18.96l-33.033-33.033h46.716c7.404 0 13.407-6.002 13.407-13.407v-40.917c-.003-7.404-6.005-13.406-13.409-13.406z" fill="url(#SVGID_3_)"/><g fill="#c9f5ee"><path d="m437.325 136.669c-3.238 0-6.415-1.57-8.34-4.47-1.94-2.921-4.013-5.804-6.162-8.569-3.39-4.36-2.604-10.643 1.757-14.032 4.358-3.39 10.643-2.604 14.032 1.757 2.455 3.157 4.821 6.449 7.035 9.783 3.055 4.601 1.801 10.808-2.8 13.862-1.7 1.128-3.622 1.669-5.522 1.669z"/><path d="m401.977 99.114c-2.116 0-4.249-.669-6.061-2.053-13.518-10.321-29.299-18.833-46.907-25.298-5.185-1.904-7.844-7.65-5.939-12.834 1.902-5.184 7.645-7.844 12.834-5.94 19.492 7.158 37.038 16.638 52.149 28.177 4.39 3.352 5.232 9.627 1.88 14.017-1.969 2.577-4.946 3.931-7.956 3.931z"/></g><g><ellipse cx="163.114" cy="235.69" fill="#eaadcd" rx="14.936" ry="12.003"/><ellipse cx="338.886" cy="235.69" fill="#eaadcd" rx="14.936" ry="12.003"/><circle cx="188.721" cy="206.072" fill="#fff" r="29.618"/><circle cx="313.279" cy="206.072" fill="#fff" r="29.618"/><g fill="#3b3b44"><g><circle cx="188.721" cy="206.072" r="17.652"/><circle cx="313.279" cy="206.072" r="17.652"/></g><path d="m251 236.632c-5.248 0-10.495-1.984-14.776-5.954-2.025-1.877-2.145-5.041-.267-7.066s5.041-2.145 7.066-.267c4.697 4.354 11.256 4.354 15.954 0 2.023-1.876 5.188-1.759 7.065.267 1.878 2.025 1.759 5.188-.267 7.066-4.28 3.97-9.528 5.954-14.775 5.954z"/></g></g></g></svg>