<svg id="Capa_1" enable-background="new 0 0 502 502" height="512" viewBox="0 0 502 502" width="512" xmlns="http://www.w3.org/2000/svg" xmlns:xlink="http://www.w3.org/1999/xlink"><linearGradient id="lg1"><stop offset="0" stop-color="#4e5660"/><stop offset="1" stop-color="#64768d"/></linearGradient><linearGradient id="SVGID_1_" gradientUnits="userSpaceOnUse" x1="273.701" x2="273.701" xlink:href="#lg1" y1="337.403" y2="520.645"/><linearGradient id="lg2"><stop offset="0" stop-color="#c5cccc"/><stop offset="1" stop-color="#e6e6e6"/></linearGradient><linearGradient id="SVGID_2_" gradientUnits="userSpaceOnUse" x1="153.731" x2="153.731" xlink:href="#lg2" y1="261.705" y2="339.692"/><linearGradient id="SVGID_3_" gradientUnits="userSpaceOnUse" x1="230.734" x2="230.734" xlink:href="#lg1" y1="244.975" y2="117.244"/><linearGradient id="SVGID_4_" gradientUnits="userSpaceOnUse" x1="233.427" x2="233.427" xlink:href="#lg2" y1="91.547" y2="8.804"/><linearGradient id="SVGID_5_" gradientUnits="userSpaceOnUse" x1="76.728" x2="76.728" xlink:href="#lg1" y1="244.975" y2="117.244"/><linearGradient id="SVGID_6_" gradientUnits="userSpaceOnUse" x1="74.035" x2="74.035" xlink:href="#lg2" y1="91.547" y2="8.804"/><linearGradient id="SVGID_7_" gradientUnits="userSpaceOnUse" x1="153.731" x2="153.731" y1="271.553" y2="143.864"><stop offset="0" stop-color="#5bd9bb"/><stop offset=".2532" stop-color="#60dabd"/><stop offset=".5725" stop-color="#70dec4"/><stop offset=".9261" stop-color="#8ae4cf"/><stop offset="1" stop-color="#90e6d2"/></linearGradient><linearGradient id="SVGID_8_" gradientUnits="userSpaceOnUse" x1="393.672" x2="393.672" xlink:href="#lg2" y1="372.295" y2="168.553"/><linearGradient id="SVGID_9_" gradientUnits="userSpaceOnUse" x1="393.672" x2="393.672" y1="389.22" y2="232.519"><stop offset="0" stop-color="#d4dbdb"/><stop offset="1" stop-color="#f3f3f3"/></linearGradient><g><path d="m262.223 502h-22.923c-62.655 0-113.627-50.972-113.627-113.626v-147.465h56.117v147.464c0 31.711 25.799 57.51 57.51 57.51h22.923c57.01 0 103.39-46.381 103.39-103.39v-49.819h56.117v49.819c0 87.952-71.554 159.507-159.507 159.507z" fill="url(#SVGID_1_)"/><path d="m202.177 255.166h-96.892v61.9c0 9.503 7.704 17.207 17.206 17.207h62.479c9.503 0 17.206-7.704 17.206-17.207v-61.9z" fill="url(#SVGID_2_)"/><path d="m208.033 240.295c15.282-13.586 87.667-58.476 91.902-123.087 1.896-28.93-9.782-56.239-34.709-81.167-10.958-10.958-28.724-10.958-39.682 0-10.956 10.958-10.956 28.723 0 39.681 13.181 13.181 19.198 25.551 18.394 37.816-2.361 35.996-59.223 72.398-73.188 84.816-11.582 10.295-12.625 28.03-2.33 39.612 10.263 11.543 27.996 12.657 39.613 2.329z" fill="url(#SVGID_3_)"/><path d="m200.077 83.88c-18.66-18.66-18.056-49.518 1.348-68.922 19.405-19.405 50.262-20.008 68.922-1.348s9.042 40.504-10.362 59.908-41.248 29.022-59.908 10.362z" fill="url(#SVGID_4_)"/><path d="m99.429 240.295c-15.282-13.586-87.667-58.476-91.902-123.087-1.896-28.93 9.782-56.239 34.709-81.167 10.958-10.958 28.724-10.958 39.682 0 10.956 10.958 10.956 28.723 0 39.681-13.181 13.181-19.198 25.551-18.394 37.816 2.361 35.996 59.223 72.398 73.188 84.816 11.582 10.295 12.625 28.03 2.331 39.612-10.264 11.543-27.997 12.657-39.614 2.329z" fill="url(#SVGID_5_)"/><path d="m107.385 83.88c18.66-18.66 18.056-49.518-1.348-68.922-19.405-19.405-50.263-20.009-68.923-1.349s-9.042 40.504 10.362 59.908 41.249 29.023 59.909 10.363z" fill="url(#SVGID_6_)"/><path d="m136.711 198.354c-10.08-8.964-42.507-30.424-60.658-55.207-8.741 3.569-16.565 9.049-22.913 16.129-5.885-8.141-10.811-16.876-13.977-26.067-2.392-6.945-9.83-10.781-16.913-8.831-7.733 2.129-12.185 10.335-9.57 17.918 17.615 51.085 73.533 86.251 86.749 98.001 11.617 10.327 29.35 9.213 39.612-2.33 10.295-11.584 9.252-29.318-2.33-39.613z" fill="#424e5e"/><path d="m102.483 259.771-29.41-35.071c-19.362-23.089-2.947-58.278 27.186-58.278h106.945c30.133 0 46.548 35.189 27.186 58.278l-29.41 35.071c-26.731 31.875-75.767 31.875-102.497 0z" fill="url(#SVGID_7_)"/><circle cx="393.672" cy="287.203" fill="url(#SVGID_8_)" r="101"/><g fill="#fff"><path d="m424.19 224.531c-1.293 0-2.605-.252-3.872-.784-2.716-1.142-5.535-2.117-8.378-2.898-5.325-1.462-8.457-6.965-6.994-12.291 1.462-5.326 6.965-8.457 12.291-6.995 3.676 1.009 7.32 2.27 10.833 3.747 5.091 2.141 7.483 8.003 5.343 13.094-1.608 3.825-5.318 6.127-9.223 6.127z"/><path d="m470.497 279.62c-4.564 0-8.685-3.143-9.741-7.78-2.207-9.686-6.412-18.611-12.497-26.527-3.366-4.378-2.546-10.657 1.833-14.023 4.377-3.365 10.658-2.546 14.022 1.833 7.858 10.221 13.289 21.752 16.142 34.273 1.228 5.385-2.144 10.745-7.528 11.972-.748.17-1.496.252-2.231.252z"/></g><circle cx="393.672" cy="287.203" fill="url(#SVGID_9_)" r="56.006"/><path d="m168.909 232.637h-30.357c-5.522 0-10-4.477-10-10s4.478-10 10-10h30.357c5.522 0 10 4.477 10 10s-4.477 10-10 10z" fill="#c9f5ee"/></g></svg>