<svg id="Capa_1" enable-background="new 0 0 502 502" height="512" viewBox="0 0 502 502" width="512" xmlns="http://www.w3.org/2000/svg" xmlns:xlink="http://www.w3.org/1999/xlink"><linearGradient id="lg1"><stop offset="0" stop-color="#d4dbdb"/><stop offset="1" stop-color="#f3f3f3"/></linearGradient><linearGradient id="SVGID_1_" gradientUnits="userSpaceOnUse" x1="251" x2="251" xlink:href="#lg1" y1="-28.714" y2="384.825"/><linearGradient id="SVGID_2_" gradientUnits="userSpaceOnUse" x1="0" x2="502" y1="92.614" y2="92.614"><stop offset="0" stop-color="#ec6f80"/><stop offset="1" stop-color="#eca0aa"/></linearGradient><linearGradient id="SVGID_3_" gradientUnits="userSpaceOnUse" x1="373.347" x2="373.347" y1="372.533" y2="180.527"><stop offset="0" stop-color="#5bd9bb"/><stop offset=".2532" stop-color="#60dabd"/><stop offset=".5725" stop-color="#70dec4"/><stop offset=".9261" stop-color="#8ae4cf"/><stop offset="1" stop-color="#90e6d2"/></linearGradient><linearGradient id="SVGID_4_" gradientUnits="userSpaceOnUse" x1="373.347" x2="373.347" y1="224.749" y2="331.744"><stop offset="0" stop-color="#f9edaf"/><stop offset="1" stop-color="#fffcdd"/></linearGradient><linearGradient id="SVGID_5_" gradientUnits="userSpaceOnUse" x1="57.734" x2="57.734" xlink:href="#lg1" y1="427.621" y2="342.954"/><linearGradient id="SVGID_6_" gradientUnits="userSpaceOnUse" x1="451.164" x2="451.164" y1="416" y2="327.295"><stop offset="0" stop-color="#f4c22c"/><stop offset="1" stop-color="#f9e198"/></linearGradient><linearGradient id="SVGID_7_" gradientUnits="userSpaceOnUse" x1="409.049" x2="409.049" y1="455.299" y2="383.648"><stop offset="0" stop-color="#53aae6"/><stop offset="1" stop-color="#a4d2f0"/></linearGradient><g><path d="m99.58 413.772h347.05c30.58 0 55.37-24.79 55.37-55.37v-207.66l-251-41.405-251 41.405v163.45c0 54.997 44.583 99.58 99.58 99.58z" fill="url(#SVGID_1_)"/><path d="m93.978 392.459v-17.294c0-30.58-24.79-55.37-55.37-55.37h-17.295c-11.439 0-21.313-6.804-21.313-21.491v-30.249c0-7.732 6.268-14 14-14 7.732 0 14 6.268 14 14v23.74h10.607c46.044 0 83.37 37.326 83.37 83.37v38.608h-6.512c-14.684-.002-21.487-9.875-21.487-21.314z" fill="#c2c8cf"/><path d="m502 150.742h-502v-65.26c0-28.164 22.832-50.996 50.996-50.996h400.008c28.164 0 50.996 22.832 50.996 50.996z" fill="url(#SVGID_2_)"/><circle cx="373.347" cy="277.257" fill="url(#SVGID_3_)" r="98.653"/><path d="m392.527 254.174v-27.858c0-3.645-2.955-6.601-6.601-6.601h-25.159c-3.646 0-6.601 2.955-6.601 6.601v27.858c0 2.155-1.747 3.903-3.902 3.903h-27.858c-3.646 0-6.601 2.955-6.601 6.601v25.159c0 3.646 2.955 6.601 6.601 6.601h27.858c2.155 0 3.902 1.747 3.902 3.902v27.858c0 3.646 2.955 6.601 6.601 6.601h25.159c3.646 0 6.601-2.955 6.601-6.601v-27.858c0-2.155 1.747-3.902 3.902-3.902h27.858c3.646 0 6.601-2.955 6.601-6.601v-25.159c0-3.646-2.955-6.601-6.601-6.601h-27.857c-2.156 0-3.903-1.747-3.903-3.903z" fill="url(#SVGID_4_)"/><path d="m0 298.304c0 14.687 9.874 21.491 21.313 21.491h17.294c30.58 0 55.37 24.79 55.37 55.37v17.294c0 11.44 6.804 21.313 21.491 21.313h-15.888c-54.997 0-99.58-44.583-99.58-99.58z" fill="url(#SVGID_5_)"/><g fill="#c2c8cf"><path d="m225.369 235.156h-126.509c-6.352 0-11.5-5.149-11.5-11.5s5.148-11.5 11.5-11.5h126.509c6.352 0 11.5 5.149 11.5 11.5s-5.148 11.5-11.5 11.5z"/><path d="m206.18 300.336h-88.13c-6.352 0-11.5-5.149-11.5-11.5s5.148-11.5 11.5-11.5h88.13c6.352 0 11.5 5.149 11.5 11.5 0 6.352-5.149 11.5-11.5 11.5z"/></g><g><path d="m178.051 116.746c0 6.629-6.687 12.003-14.936 12.003s-14.936-5.374-14.936-12.003 6.687-12.003 14.936-12.003 14.936 5.374 14.936 12.003z" fill="#efc5db"/><path d="m353.822 116.746c0 6.629-6.687 12.003-14.936 12.003s-14.936-5.374-14.936-12.003 6.687-12.003 14.936-12.003 14.936 5.374 14.936 12.003z" fill="#efc5db"/><circle cx="188.721" cy="87.128" fill="#fff" r="29.618"/><path d="m218.339 87.128c0 9.749-7.903 17.652-17.652 17.652s-17.652-7.903-17.652-17.652 7.903-17.652 17.652-17.652 17.652 7.903 17.652 17.652z" fill="#3b3b44"/><circle cx="313.279" cy="87.128" fill="#fff" r="29.618"/><g fill="#3b3b44"><path d="m342.835 87.128c0 9.749-7.903 17.652-17.652 17.652s-17.652-7.903-17.652-17.652 7.903-17.652 17.652-17.652c9.748 0 17.652 7.903 17.652 17.652z"/><ellipse cx="251" cy="109.581" rx="13.252" ry="17.352"/></g></g><path d="m459.886 425.399-59.559-59.559 29.779-29.779c16.447-16.447 43.112-16.447 59.558 0 16.447 16.447 16.447 43.112 0 59.559z" fill="url(#SVGID_6_)"/><path d="m459.886 425.399-59.559-59.559-29.779 29.779c-16.447 16.447-16.447 43.112 0 59.559 16.447 16.447 43.112 16.447 59.559 0z" fill="url(#SVGID_7_)"/></g></svg>