<svg id="Capa_1" enable-background="new 0 0 502 502" height="512" viewBox="0 0 502 502" width="512" xmlns="http://www.w3.org/2000/svg" xmlns:xlink="http://www.w3.org/1999/xlink"><linearGradient id="SVGID_1_" gradientUnits="userSpaceOnUse" x1="251" x2="251" y1="54.196" y2="450.742"><stop offset="0" stop-color="#ec6f80"/><stop offset="1" stop-color="#eca0aa"/></linearGradient><linearGradient id="lg1"><stop offset="0" stop-color="#eca0aa"/><stop offset="1" stop-color="#f8dde3"/></linearGradient><linearGradient id="SVGID_2_" gradientUnits="userSpaceOnUse" x1="380.673" x2="380.673" xlink:href="#lg1" y1="104.634" y2="25.999"/><linearGradient id="SVGID_3_" gradientUnits="userSpaceOnUse" x1="251.012" x2="251.012" xlink:href="#lg1" y1="415.2" y2="122.65"/><g><path d="m493.136 41.773c-53.09 15.407-195.384 6.247-224.925-.257-8.319 3.114-15.967 7.975-22.369 14.377l-212.136 212.136c-44.941 44.941-44.941 117.804 0 162.745 44.941 44.941 117.804 44.941 162.745 0l271.867-271.867c29.183-29.183 39.391-70.132 30.668-107.57-.896-3.845-3.003-7.146-5.85-9.564z" fill="url(#SVGID_1_)"/><path d="m305.573 78.877-37.362-37.361c-8.318 3.114-15.967 7.975-22.369 14.377l-4.255 4.255 41.358 41.357c44.902 44.902 111.849 54.637 166.319 29.22 8.023-3.743 11.554-13.229 7.828-21.26-3.738-8.059-13.307-11.474-21.354-7.709-42.627 19.949-94.962 12.325-130.165-22.879z" fill="#e05d6f"/><path d="m493.136 41.774c-3.141-2.666-7.183-4.254-11.538-4.254h-191.4c-7.583 0-15.019 1.388-21.987 3.996l37.361 37.361c44.941 44.941 117.804 44.941 162.745 0 10.97-10.969 19.209-23.618 24.819-37.103z" fill="url(#SVGID_2_)"/><path d="m370.026 162.045-23.026-23.026s-47.386-36.764-79.919-53.379c-5.366 1.636-10.421 4.57-14.664 8.814l-120.419 120.419c-13.812 13.812-13.812 36.206 0 50.019l67.59 67.59c13.812 13.812 36.206 13.812 50.018 0l120.419-120.419c13.813-13.812 13.813-36.206.001-50.018z" fill="url(#SVGID_3_)"/><path d="m282.945 101.505c18.433 18.433 40.581 30.934 64.055 37.515l-44.565-44.565c-9.569-9.569-23.255-12.503-35.354-8.814z" fill="#e88792"/><g fill="#e05d6f"><circle cx="106.276" cy="303.756" r="13.968"/><circle cx="160.724" cy="358.204" r="13.968"/><circle cx="69.805" cy="340.227" r="13.968"/><circle cx="124.254" cy="394.675" r="13.968"/></g><g><ellipse cx="203.529" cy="290.275" fill="#ff8392" rx="14.936" ry="12.003" transform="matrix(.707 -.707 .707 .707 -145.643 228.934)"/><ellipse cx="327.818" cy="165.986" fill="#ff8392" rx="14.936" ry="12.003" transform="matrix(.707 -.707 .707 .707 -21.355 280.415)"/><circle cx="200.693" cy="251.225" fill="#fff" r="29.618"/><circle cx="288.768" cy="163.15" fill="#fff" r="29.618"/><path d="m195.848 267.711c-3.251 0-6.246-2.13-7.199-5.41-1.898-6.535-.088-13.585 4.724-18.397 4.813-4.813 11.864-6.622 18.396-4.724 3.978 1.156 6.266 5.317 5.11 9.294-1.156 3.978-5.317 6.266-9.294 5.11-1.873-.543-3.146.466-3.605.926-.46.46-1.47 1.731-.926 3.606 1.156 3.977-1.132 8.139-5.11 9.294-.699.204-1.404.301-2.096.301z" fill="#3b3b44"/><path d="m283.923 179.636c-3.252 0-6.246-2.13-7.199-5.41-1.898-6.535-.088-13.585 4.724-18.397 4.813-4.813 11.864-6.622 18.397-4.724 3.978 1.155 6.266 5.317 5.11 9.294s-5.316 6.265-9.294 5.11c-1.873-.543-3.146.466-3.605.926-.46.46-1.471 1.731-.926 3.605 1.156 3.977-1.132 8.139-5.11 9.294-.7.205-1.405.302-2.097.302z" fill="#3b3b44"/><g><path d="m281.129 227.08-16.505 16.505c-4.602 4.602-12.064 4.602-16.666 0-4.602-4.602-4.602-12.063 0-16.666l16.505-16.505c4.602-4.602 12.063-4.602 16.666 0 4.602 4.603 4.602 12.064 0 16.666z" fill="#3b3b44"/></g></g><g fill="#ffccd3"><path d="m115.223 446.486c-2.109 0-4.222-.068-6.343-.204-5.511-.354-9.693-5.108-9.339-10.62.353-5.512 5.09-9.707 10.62-9.339 15.654 1.005 30.974-2.671 44.308-10.626 4.744-2.83 10.882-1.279 13.712 3.464s1.278 10.882-3.464 13.711c-15.014 8.957-32.007 13.614-49.494 13.614z"/><path d="m189.98 407.647c-2.56 0-5.119-.977-7.071-2.929-3.905-3.905-3.905-10.237.001-14.142l4.98-4.98c3.906-3.905 10.237-3.904 14.142 0 3.905 3.906 3.905 10.237 0 14.142l-4.981 4.98c-1.953 1.953-4.512 2.929-7.071 2.929z"/></g></g></svg>