<svg id="Capa_1" enable-background="new 0 0 502 502" height="512" viewBox="0 0 502 502" width="512" xmlns="http://www.w3.org/2000/svg" xmlns:xlink="http://www.w3.org/1999/xlink"><linearGradient id="lg1"><stop offset="0" stop-color="#ec6f80"/><stop offset="1" stop-color="#eca0aa"/></linearGradient><linearGradient id="SVGID_1_" gradientUnits="userSpaceOnUse" x1="145.293" x2="38.778" xlink:href="#lg1" y1="111.736" y2="111.736"/><linearGradient id="SVGID_2_" gradientTransform="matrix(-1 0 0 1 502 0)" gradientUnits="userSpaceOnUse" x1="145.293" x2="38.778" xlink:href="#lg1" y1="111.736" y2="111.736"/><linearGradient id="lg2"><stop offset="0" stop-color="#ffbe9d"/><stop offset="1" stop-color="#ffd3bd"/></linearGradient><linearGradient id="SVGID_3_" gradientUnits="userSpaceOnUse" x1="68.557" x2="13.447" xlink:href="#lg2" y1="217.078" y2="217.078"/><linearGradient id="SVGID_4_" gradientTransform="matrix(-1 0 0 1 502 0)" gradientUnits="userSpaceOnUse" x1="68.557" x2="13.447" xlink:href="#lg2" y1="217.078" y2="217.078"/><linearGradient id="lg3"><stop offset="0" stop-color="#d4dbdb"/><stop offset="1" stop-color="#f3f3f3"/></linearGradient><linearGradient id="SVGID_5_" gradientUnits="userSpaceOnUse" x1="146.029" x2="59.042" xlink:href="#lg3" y1="423.275" y2="423.275"/><linearGradient id="SVGID_6_" gradientTransform="matrix(-1 0 0 1 502 0)" gradientUnits="userSpaceOnUse" x1="146.029" x2="59.042" xlink:href="#lg3" y1="423.275" y2="423.275"/><linearGradient id="SVGID_7_" gradientUnits="userSpaceOnUse" x1="251" x2="251" xlink:href="#lg3" y1="297.769" y2="478.568"/><linearGradient id="SVGID_8_" gradientUnits="userSpaceOnUse" x1="251" x2="251" y1="364.896" y2="501.914"><stop offset="0" stop-color="#9fd8e6"/><stop offset="1" stop-color="#c4e8f0"/></linearGradient><linearGradient id="lg4"><stop offset="0" stop-color="#5bd9bb"/><stop offset=".2532" stop-color="#60dabd"/><stop offset=".5725" stop-color="#70dec4"/><stop offset=".9261" stop-color="#8ae4cf"/><stop offset="1" stop-color="#90e6d2"/></linearGradient><linearGradient id="SVGID_9_" gradientUnits="userSpaceOnUse" x1="171.566" x2="171.566" xlink:href="#lg4" y1="344.333" y2="478.394"/><linearGradient id="SVGID_10_" gradientTransform="matrix(-1 0 0 1 502 0)" gradientUnits="userSpaceOnUse" x1="171.691" x2="171.691" xlink:href="#lg4" y1="344.333" y2="478.394"/><linearGradient id="SVGID_11_" gradientUnits="userSpaceOnUse" x1="251" x2="251" xlink:href="#lg2" y1="400.385" y2="163.892"/><linearGradient id="SVGID_12_" gradientUnits="userSpaceOnUse" x1="251" x2="251" xlink:href="#lg1" y1="107.629" y2="17.267"/><g><path d="m180.466 76.708c-2.553-30.312-28.348-53.802-58.767-53.722-35.934.094-62.559 31.843-58.234 66.062.729 5.766-1.853 11.37-6.613 14.705-14.54 10.189-23.749 27.463-22.594 46.817 1.607 26.942 23.622 48.64 50.585 49.86 34.204 1.547 60.84-28.925 54.817-62.551 25.307-8.027 43.203-32.703 40.806-61.171z" fill="url(#SVGID_1_)"/><path d="m321.534 76.708c2.553-30.312 28.348-53.802 58.767-53.722 35.934.094 62.559 31.843 58.234 66.062-.729 5.766 1.853 11.37 6.613 14.705 14.54 10.189 23.749 27.463 22.594 46.817-1.607 26.942-23.622 48.64-50.585 49.86-34.204 1.547-60.84-28.925-54.817-62.551-25.307-8.027-43.203-32.703-40.806-61.171z" fill="url(#SVGID_2_)"/><ellipse cx="66.338" cy="217.078" fill="url(#SVGID_3_)" rx="49.327" ry="46.627"/><ellipse cx="435.662" cy="217.078" fill="url(#SVGID_4_)" rx="49.327" ry="46.627"/><path d="m158.556 344.55c-62.223 10.473-101.53 69.441-111.008 129.458-2.321 14.696 9.041 27.992 23.919 27.992h31.54l101.842-157.45z" fill="url(#SVGID_5_)"/><path d="m343.444 344.55c62.223 10.473 101.53 69.441 111.008 129.458 2.321 14.696-9.041 27.993-23.92 27.993h-31.54l-101.841-157.451z" fill="url(#SVGID_6_)"/><path d="m251 320.402c-81.734 0-147.993 81.304-147.993 181.598h95.326l52.667-13.522 52.667 13.522h95.326c0-100.293-66.259-181.598-147.993-181.598z" fill="url(#SVGID_7_)"/><path d="m313.47 330.499v73.645l-35.78 97.856h-53.38l-35.78-97.856v-73.645z" fill="url(#SVGID_8_)"/><path d="m188.53 404.144 2.253 6.161c19.219 4.674 39.429 7.089 60.217 7.089 20.787 0 40.998-2.414 60.217-7.089l2.253-6.161v-73.645h-124.94z" fill="#71c4d1"/><path d="m161.233 352.025c-8.92 3.431-24.648 15.29-37.223 28.957-8.885 9.656-5.991 25.196 5.874 30.801 23.471 11.088 57.913 36.131 68.45 90.218h25.977c0-45.135-4.848-101.311-26.054-136.301z" fill="url(#SVGID_9_)"/><path d="m340.767 352.025c8.92 3.431 24.648 15.29 37.223 28.957 8.885 9.656 5.991 25.196-5.874 30.801-23.471 11.088-57.913 36.131-68.449 90.218h-25.977c0-45.135-3.711-98.15 17.495-133.14z" fill="url(#SVGID_10_)"/><path d="m319.237 371.653c-9.353 3.13-19.147 5.622-29.337 7.413-4.905 11.121-7.918 23.57-9.747 36.705 17.301-1.937 34.025-5.609 49.919-10.906 9.941-3.313 14.85-14.471 10.434-23.974-3.728-8.022-12.88-12.045-21.269-9.238z" fill="#12c7aa"/><path d="m124.009 380.981c-.27.294-.529.594-.778.898 27.336 17.34 59.09 28.664 93.2 33.227-3.981-18.449-9.798-35.584-18.176-49.407l-37.023-13.674c-8.92 3.431-24.648 15.29-37.223 28.956z" fill="#12c7aa"/><ellipse cx="251" cy="217.078" fill="url(#SVGID_11_)" rx="184.662" ry="165.317"/><path d="m323.246 3.396c-8.717 0-16.891 2.266-23.952 6.225-4.677 2.623-10.396 2.685-14.931-.176-9.433-5.948-20.939-9.445-33.363-9.445s-23.93 3.497-33.362 9.446c-4.536 2.861-10.254 2.798-14.931.176-7.061-3.959-15.235-6.225-23.952-6.225-26.721 0-48.382 21.243-48.382 47.447s21.661 47.447 48.382 47.447c8.359 0 16.22-2.081 23.079-5.742 4.604-2.457 10.251-2.156 14.594.738 9.649 6.428 21.611 10.237 34.573 10.237 12.963 0 24.924-3.809 34.573-10.237 4.343-2.893 9.99-3.195 14.594-.738 6.859 3.66 14.72 5.742 23.079 5.742 26.721 0 48.382-21.243 48.382-47.447-.001-26.206-21.662-47.448-48.383-47.448z" fill="url(#SVGID_12_)"/><g><ellipse cx="163.114" cy="233.595" fill="#eaadcd" rx="14.936" ry="12.003"/><ellipse cx="338.886" cy="233.595" fill="#eaadcd" rx="14.936" ry="12.003"/><circle cx="188.721" cy="203.978" fill="#fff" r="29.618"/><circle cx="313.279" cy="203.978" fill="#fff" r="29.618"/><g fill="#3b3b44"><g><circle cx="188.721" cy="203.978" r="17.652"/><circle cx="313.279" cy="203.978" r="17.652"/></g><path d="m251 234.538c-5.248 0-10.495-1.984-14.776-5.954-2.025-1.878-2.145-5.041-.267-7.066s5.041-2.145 7.066-.267c4.697 4.354 11.256 4.354 15.954 0 2.023-1.877 5.188-1.759 7.065.267 1.878 2.025 1.759 5.188-.267 7.066-4.28 3.969-9.528 5.954-14.775 5.954z"/></g></g></g></svg>