<svg id="Capa_1" enable-background="new 0 0 502 502" height="512" viewBox="0 0 502 502" width="512" xmlns="http://www.w3.org/2000/svg" xmlns:xlink="http://www.w3.org/1999/xlink"><linearGradient id="SVGID_1_" gradientUnits="userSpaceOnUse" x1="283.152" x2="283.152" y1="376.752" y2="1.842"><stop offset="0" stop-color="#9fd8e6"/><stop offset="1" stop-color="#c4e8f0"/></linearGradient><linearGradient id="SVGID_2_" gradientUnits="userSpaceOnUse" x1="244.607" x2="244.607" y1="392.06" y2="34.843"><stop offset="0" stop-color="#ec6f80"/><stop offset="1" stop-color="#eca0aa"/></linearGradient><linearGradient id="SVGID_3_" gradientUnits="userSpaceOnUse" x1="68.87" x2="68.87" y1="509.158" y2="391.109"><stop offset="0" stop-color="#c5cccc"/><stop offset="1" stop-color="#e6e6e6"/></linearGradient><g><path d="m469.149 32.851c-43.801-43.802-114.818-43.802-158.619 0l-228.785 228.785c-14.059 14.059-20.173 34.208-16.298 53.709l2.919 14.685c2.321 11.68 1.055 23.592-3.352 34.289.011 19.951 5.796 40.93 18.767 53.901 12.97 12.97 33.949 18.755 53.9 18.767 10.697-4.407 22.609-5.673 34.289-3.352l14.685 2.918c19.501 3.875 39.65-2.239 53.709-16.298l228.785-228.785c43.801-43.801 43.801-114.817 0-158.619z" fill="url(#SVGID_1_)"/><path d="m225.295 405.185c-4.866-4.866-12.106-6.356-18.566-3.984-4.221 1.551-8.805 1.906-13.251 1.023l-14.686-2.918c-30.363-6.035-62.349 2.947-85.279 25.878l-.373.373c12.563 7.827 28.86 11.421 44.541 11.43 10.697-4.407 22.609-5.673 34.289-3.352l14.685 2.918c10.931 2.172 22.065 1.206 32.216-2.539 12.022-4.435 15.485-19.768 6.424-28.829z" fill="#71c4d1"/><g fill="#71c4d1"><path d="m286.62 373.999-22.103-22.102c-4.491-4.491-4.491-11.772 0-16.264 4.49-4.49 11.771-4.491 16.264 0l22.102 22.102z"/><path d="m359.475 301.144-22.102-22.102c-4.491-4.491-4.491-11.772 0-16.264 4.49-4.49 11.771-4.491 16.264 0l22.102 22.102z"/><path d="m432.331 228.289-22.102-22.102c-4.491-4.491-4.491-11.773 0-16.264 4.49-4.49 11.771-4.491 16.264 0l22.103 22.102z"/></g><path d="m413.281 108.716-19.997-19.997c-14.561-14.561-38.169-14.561-52.729 0l-275.542 275.542 72.727 72.727 7.73-21.286 30.473-16.917 237.339-237.339c14.56-14.561 14.56-38.169-.001-52.73z" fill="url(#SVGID_2_)"/><path d="m137.739 436.987 38.203-38.203c-22.096-3.699-44.867.497-64.241 12.165z" fill="#e05d6f"/><path d="m115.164 408.96c-3.45-3.799-7.036-7.586-10.788-11.337-12.983-12.983-26.371-24.212-39.364-33.362-2.951 7.182-7.293 13.827-12.945 19.479l-38.359 38.359c-18.278 18.279-18.278 47.914 0 66.193 18.279 18.278 47.914 18.278 66.193 0l38.359-38.359c5.652-5.651 12.297-9.994 19.479-12.945-11.287-2.587-22.575-14.014-22.575-28.028z" fill="url(#SVGID_3_)"/><g><path d="m251.052 279.622c4.688 4.688 3.759 13.216-2.074 19.049s-14.362 6.761-19.049 2.074c-4.688-4.688-3.759-13.216 2.074-19.049 5.833-5.832 14.361-6.761 19.049-2.074z" fill="#efc5db"/><path d="m375.341 155.334c4.688 4.688 3.759 13.216-2.074 19.049s-14.362 6.762-19.049 2.074c-4.688-4.688-3.759-13.216 2.074-19.049 5.832-5.833 14.361-6.762 19.049-2.074z" fill="#efc5db"/><circle cx="237.654" cy="251.134" fill="#fff" r="29.618"/><path d="m258.597 230.191c6.894 6.894 6.894 18.071 0 24.964-6.894 6.894-18.071 6.894-24.964 0-6.894-6.894-6.894-18.07 0-24.964 6.893-6.893 18.07-6.893 24.964 0z" fill="#3b3b44"/><circle cx="325.729" cy="163.059" fill="#fff" r="29.618"/><g fill="#3b3b44"><path d="m346.628 142.16c6.894 6.894 6.894 18.071 0 24.964-6.894 6.894-18.07 6.894-24.964 0s-6.894-18.07 0-24.964 18.071-6.894 24.964 0z"/><ellipse cx="297.568" cy="222.973" rx="13.252" ry="17.352" transform="matrix(.707 -.707 .707 .707 -70.51 275.719)"/></g></g><path d="m55.152 463.543c-2.499 2.5-5.838 3.643-9.106 3.433-6.011-.385-11.734 2.644-15.129 7.62-7.598 11.137-.288 26.496 13.151 27.316 12.874.75 25.998-3.784 35.834-13.62l38.359-38.359c5.652-5.651 12.297-9.994 19.479-12.945-6.507-9.239-14.083-18.676-22.575-28.027-7.791 4.251-15.093 9.664-21.652 16.223z" fill="#bbc1c7"/><g fill="#e3fcff"><path d="m430.098 50.516c-1.663 0-3.348-.415-4.9-1.289-14.242-8.023-31.016-10.959-47.23-8.268-5.451.906-10.599-2.778-11.503-8.227-.904-5.448 2.779-10.598 8.228-11.502 20.696-3.436 42.119.318 60.322 10.571 4.812 2.71 6.515 8.809 3.805 13.621-1.838 3.26-5.229 5.094-8.722 5.094z"/><path d="m331.743 64.064c-2.56 0-5.119-.977-7.072-2.93-3.904-3.906-3.903-10.237.002-14.142 2.636-2.635 5.448-5.13 8.358-7.414 4.346-3.41 10.632-2.652 14.041 1.693s2.651 10.631-1.693 14.04c-2.284 1.793-4.493 3.752-6.565 5.824-1.953 1.953-4.512 2.929-7.071 2.929z"/></g></g></svg>