<svg id="Capa_1" enable-background="new 0 0 502 502" height="512" viewBox="0 0 502 502" width="512" xmlns="http://www.w3.org/2000/svg" xmlns:xlink="http://www.w3.org/1999/xlink"><linearGradient id="SVGID_1_" gradientUnits="userSpaceOnUse" x1="42.924" x2="459.076" y1="267.405" y2="267.405"><stop offset="0" stop-color="#4e5660"/><stop offset="1" stop-color="#64768d"/></linearGradient><linearGradient id="SVGID_2_" gradientUnits="userSpaceOnUse" x1="251" x2="251" y1="77.976" y2="9.547"><stop offset="0" stop-color="#5bd9bb"/><stop offset=".2532" stop-color="#60dabd"/><stop offset=".5725" stop-color="#70dec4"/><stop offset=".9261" stop-color="#8ae4cf"/><stop offset="1" stop-color="#90e6d2"/></linearGradient><linearGradient id="lg1"><stop offset="0" stop-color="#f9edaf"/><stop offset="1" stop-color="#fffcdd"/></linearGradient><linearGradient id="SVGID_3_" gradientUnits="userSpaceOnUse" x1="367.308" x2="367.308" xlink:href="#lg1" y1="413.113" y2="280.839"/><linearGradient id="SVGID_4_" gradientUnits="userSpaceOnUse" x1="134.693" x2="134.693" xlink:href="#lg1" y1="356.571" y2="224.297"/><g><path d="m459.076 70.34c0-20.728-16.803-37.531-37.531-37.531h-341.09c-20.728 0-37.531 16.803-37.531 37.531v167.674l14.261 38.623-14.261 38.623v149.209c0 20.728 16.803 37.531 37.531 37.531h341.09c20.728 0 37.531-16.803 37.531-37.531v-92.667l-16.787-38.623 16.787-38.623z" fill="url(#SVGID_1_)"/><path d="m352.94 0h-203.881c-10.37 0-18.777 8.407-18.777 18.777v28.064c0 10.37 8.407 18.777 18.777 18.777h203.881c10.37 0 18.777-8.407 18.777-18.777v-28.064c.001-10.37-8.406-18.777-18.777-18.777z" fill="url(#SVGID_2_)"/><path d="m266.161 65.618h-117.101c-10.37 0-18.777-8.407-18.777-18.777v-14.032h-35v14.032c0 29.7 24.077 53.777 53.777 53.777h117.101c9.665 0 17.5-7.835 17.5-17.5 0-9.665-7.835-17.5-17.5-17.5z" fill="#424e5e"/><path d="m459.076 294.556h-74.971c-4.837 0-9.121-3.297-10.172-8.017-5.257-23.601-27.259-40.889-52.895-38.74-23.683 1.986-42.913 20.907-45.248 44.558-1.321 13.381 2.668 25.805 10.102 35.436 2.457 3.183 2.457 7.59 0 10.773-7.434 9.631-11.422 22.054-10.102 35.435 2.334 23.651 21.563 42.573 45.247 44.559 25.637 2.15 47.64-15.139 52.897-38.74 1.052-4.721 5.336-8.017 10.172-8.017h74.971v-77.247z" fill="url(#SVGID_3_)"/><path d="m42.924 238.014h74.971c4.837 0 9.121-3.297 10.172-8.017 5.257-23.601 27.259-40.889 52.895-38.74 23.683 1.986 42.913 20.907 45.248 44.558 1.321 13.381-2.668 25.805-10.102 35.436-2.457 3.183-2.457 7.59 0 10.773 7.434 9.631 11.422 22.054 10.102 35.435-2.334 23.651-21.563 42.573-45.247 44.559-25.637 2.15-47.64-15.139-52.897-38.74-1.052-4.721-5.336-8.018-10.172-8.018h-74.97z" fill="url(#SVGID_4_)"/><path d="m154.99 454.176h-43.548c-5.522 0-10-4.477-10-10s4.478-10 10-10h43.548c5.522 0 10 4.477 10 10s-4.477 10-10 10z" fill="#71c4d1"/><g><ellipse cx="163.114" cy="156.644" fill="#eaadcd" rx="14.936" ry="12.003"/><ellipse cx="338.886" cy="156.644" fill="#eaadcd" rx="14.936" ry="12.003"/><circle cx="188.721" cy="127.026" fill="#fff" r="29.618"/><circle cx="313.279" cy="127.026" fill="#fff" r="29.618"/><path d="m198.505 137.457c-2.647 0-5.214-1.404-6.579-3.888-.94-1.71-2.555-1.895-3.205-1.895-.649 0-2.263.185-3.203 1.895-1.995 3.63-6.557 4.955-10.185 2.96-3.63-1.996-4.955-6.556-2.96-10.186 3.277-5.964 9.542-9.668 16.348-9.669 6.806 0 13.07 3.705 16.35 9.669 1.995 3.63.671 8.19-2.959 10.186-1.147.629-2.385.928-3.607.928z" fill="#3b3b44"/><path d="m303.495 137.457c-1.222 0-2.46-.299-3.606-.929-3.63-1.996-4.954-6.556-2.959-10.186 3.278-5.964 9.543-9.669 16.349-9.669h.001c6.806.001 13.07 3.705 16.348 9.669 1.995 3.63.67 8.19-2.96 10.186-3.627 1.996-8.189.67-10.185-2.96-.94-1.71-2.554-1.895-3.203-1.895-.65 0-2.265.185-3.205 1.895-1.366 2.484-3.932 3.889-6.58 3.889z" fill="#3b3b44"/><g><path d="m262.671 166.831h-23.342c-6.508 0-11.784-5.276-11.784-11.784 0-6.508 5.276-11.784 11.784-11.784h23.342c6.508 0 11.784 5.276 11.784 11.784 0 6.508-5.276 11.784-11.784 11.784z" fill="#3b3b44"/></g></g><g fill="#8196ab"><path d="m421.545 478.5h-39.77c-6.352 0-11.5-5.149-11.5-11.5s5.148-11.5 11.5-11.5h39.77c6.352 0 11.5 5.149 11.5 11.5s-5.148 11.5-11.5 11.5z"/><path d="m338.167 478.5h-7.381c-6.352 0-11.5-5.149-11.5-11.5s5.148-11.5 11.5-11.5h7.381c6.352 0 11.5 5.149 11.5 11.5s-5.148 11.5-11.5 11.5z"/></g></g></svg>