<svg id="Capa_1" enable-background="new 0 0 502 502" height="512" viewBox="0 0 502 502" width="512" xmlns="http://www.w3.org/2000/svg" xmlns:xlink="http://www.w3.org/1999/xlink"><linearGradient id="SVGID_1_" gradientUnits="userSpaceOnUse" x1="257.692" x2="257.692" y1="366.515" y2="457.754"><stop offset="0" stop-color="#f5e5a2"/><stop offset="1" stop-color="#fcf7cf"/></linearGradient><linearGradient id="lg1"><stop offset="0" stop-color="#9fd8e6"/><stop offset="1" stop-color="#c4e8f0"/></linearGradient><linearGradient id="SVGID_2_" gradientUnits="userSpaceOnUse" x1="279.461" x2="279.461" xlink:href="#lg1" y1="326.091" y2="-11.239"/><linearGradient id="lg2"><stop offset="0" stop-color="#53aae6"/><stop offset="1" stop-color="#a4d2f0"/></linearGradient><linearGradient id="SVGID_3_" gradientUnits="userSpaceOnUse" x1="79.522" x2="79.522" xlink:href="#lg2" y1="425.631" y2="-7.972"/><linearGradient id="SVGID_4_" gradientUnits="userSpaceOnUse" x1="251" x2="251" xlink:href="#lg1" y1="507.974" y2="310.385"/><linearGradient id="SVGID_5_" gradientUnits="userSpaceOnUse" x1="295.136" x2="295.136" xlink:href="#lg2" y1="207.869" y2="29.013"/><linearGradient id="SVGID_6_" gradientUnits="userSpaceOnUse" x1="295.136" x2="295.136" y1="70.206" y2="169.874"><stop offset="0" stop-color="#f9edaf"/><stop offset="1" stop-color="#fffcdd"/></linearGradient><g><path d="m72.308 363.268h370.768v100.919h-370.768z" fill="url(#SVGID_1_)"/><path d="m72.308 412.13h249.954c9.665 0 17.5-7.835 17.5-17.5 0-9.665-7.835-17.5-17.5-17.5h-249.954z" fill="#f5c98d"/><path d="m466.614 345.384-342.956-19.929-31.35-188.629 31.35-136.826h297.43c25.143 0 45.526 20.383 45.526 45.526z" fill="url(#SVGID_2_)"/><path d="m123.658 325.455v-325.455c-48.751 0-88.272 39.521-88.272 88.272v325.455z" fill="url(#SVGID_3_)"/><path d="m123.658 450.325h323.027c11.007 0 19.929 8.923 19.929 19.929v11.817c0 11.007-8.923 19.929-19.929 19.929h-323.027c-48.752 0-88.272-39.521-88.272-88.272s39.521-88.272 88.272-88.272h323.027c11.007 0 19.929 8.923 19.929 19.929v11.817c0 11.007-8.923 19.929-19.929 19.929h-323.027c-20.212 0-36.597 16.385-36.597 36.597s16.385 36.597 36.597 36.597z" fill="url(#SVGID_4_)"/><circle cx="295.136" cy="119.118" fill="url(#SVGID_5_)" r="91.897"/><path d="m313.003 97.616v-25.95c0-3.396-2.753-6.149-6.149-6.149h-23.436c-3.396 0-6.149 2.753-6.149 6.149v25.95c0 2.008-1.628 3.635-3.635 3.635h-25.95c-3.396 0-6.149 2.753-6.149 6.149v23.436c0 3.396 2.753 6.149 6.149 6.149h25.95c2.008 0 3.635 1.627 3.635 3.635v25.95c0 3.396 2.753 6.149 6.149 6.149h23.436c3.396 0 6.149-2.753 6.149-6.149v-25.95c0-2.008 1.628-3.635 3.635-3.635h25.95c3.396 0 6.149-2.753 6.149-6.149v-23.436c0-3.396-2.753-6.149-6.149-6.149h-25.95c-2.007.001-3.635-1.627-3.635-3.635z" fill="url(#SVGID_6_)"/><g><ellipse cx="207.251" cy="287.864" fill="#eaadcd" rx="14.936" ry="12.003"/><ellipse cx="383.022" cy="287.864" fill="#eaadcd" rx="14.936" ry="12.003"/><path d="m232.858 262.213c7.183 0 13.813 1.589 19.159 4.273 4.544 2.281 9.962-.801 10.365-5.87.113-1.423.125-2.875.029-4.348-.991-15.146-13.602-27.24-28.775-27.629-16.713-.428-30.396 12.992-30.396 29.608 0 .843.035 1.678.105 2.503.422 5.01 5.857 7.995 10.349 5.738 5.347-2.685 11.979-4.275 19.164-4.275z" fill="#fff"/><path d="m295.136 298.051c-6.447 0-12.894-2.155-18.273-6.465-4.989-3.997-5.794-11.282-1.797-16.271 3.997-4.99 11.282-5.793 16.271-1.797 2.237 1.792 5.361 1.792 7.598 0 4.988-3.997 12.273-3.193 16.271 1.797 3.997 4.989 3.193 12.274-1.797 16.271-5.379 4.31-11.826 6.465-18.273 6.465z" fill="#3b3b44"/><path d="m232.858 262.213c5.926 0 11.473 1.082 16.237 2.967.911-2.129 1.415-4.47 1.415-6.933 0-9.749-7.903-17.653-17.652-17.653s-17.652 7.903-17.652 17.653c0 2.463.504 4.803 1.415 6.933 4.763-1.885 10.311-2.967 16.237-2.967z" fill="#3b3b44"/><path d="m357.415 262.213c7.183 0 13.813 1.589 19.159 4.273 4.544 2.281 9.962-.801 10.365-5.87.113-1.423.125-2.875.029-4.348-.991-15.146-13.602-27.24-28.775-27.629-16.713-.428-30.396 12.992-30.396 29.608 0 .843.035 1.678.105 2.503.422 5.01 5.857 7.995 10.349 5.738 5.347-2.685 11.979-4.275 19.164-4.275z" fill="#fff"/><path d="m357.415 262.213c5.926 0 11.473 1.082 16.237 2.967.911-2.129 1.415-4.47 1.415-6.933 0-9.749-7.903-17.653-17.652-17.653s-17.652 7.903-17.652 17.653c0 2.463.504 4.803 1.415 6.933 4.764-1.885 10.311-2.967 16.237-2.967z" fill="#3b3b44"/></g><g fill="#e3fcff"><path d="m436.614 86.895c-5.523 0-10-4.477-10-10v-31.369c0-3.047-2.479-5.526-5.526-5.526-5.523 0-10-4.477-10-10s4.477-10 10-10c14.075 0 25.526 11.451 25.526 25.526v31.369c0 5.523-4.477 10-10 10z"/><path d="m436.614 131.294c-5.523 0-10-4.477-10-10v-3.879c0-5.523 4.477-10 10-10s10 4.477 10 10v3.879c0 5.522-4.477 10-10 10z"/></g></g></svg>