<svg id="Capa_1" enable-background="new 0 0 502 502" height="512" viewBox="0 0 502 502" width="512" xmlns="http://www.w3.org/2000/svg" xmlns:xlink="http://www.w3.org/1999/xlink"><linearGradient id="SVGID_1_" gradientUnits="userSpaceOnUse" x1="271.319" x2="271.319" y1="141.305" y2="73.445"><stop offset="0" stop-color="#dd5c6e"/><stop offset="1" stop-color="#ec8290"/></linearGradient><linearGradient id="SVGID_2_" gradientUnits="userSpaceOnUse" x1="162.604" x2="162.604" y1="153.297" y2="24.247"><stop offset="0" stop-color="#53aae6"/><stop offset="1" stop-color="#a4d2f0"/></linearGradient><linearGradient id="lg1"><stop offset="0" stop-color="#ec6f80"/><stop offset="1" stop-color="#eca0aa"/></linearGradient><linearGradient id="SVGID_3_" gradientUnits="userSpaceOnUse" x1="343.904" x2="343.904" xlink:href="#lg1" y1="193.2" y2="36.184"/><linearGradient id="SVGID_4_" gradientUnits="userSpaceOnUse" x1="311.447" x2="311.447" y1="211.645" y2="115.074"><stop offset="0" stop-color="#f5e5a2"/><stop offset="1" stop-color="#fcf7cf"/></linearGradient><linearGradient id="SVGID_5_" gradientUnits="userSpaceOnUse" x1="246.269" x2="246.269" xlink:href="#lg1" y1="498.127" y2="124.593"/><g><ellipse cx="271.319" cy="142.244" fill="url(#SVGID_1_)" rx="83.632" ry="66.004"/><path d="m153.065 177.026c-4.153-50.667-24.155-81.146-55.59-109.271-8.254-7.385-9.243-19.962-2.327-28.612l25.004-31.276c7.479-9.355 21.26-10.541 30.236-2.612 40.005 35.335 77.594 83.713 84.265 165.084z" fill="url(#SVGID_2_)"/><path d="m357.301 193.2-80.938-12.263c2.905-19.171 16.481-82.036 73.521-138.701 8.657-8.6 22.839-7.939 30.717 1.38l25.915 30.656c6.991 8.27 6.471 20.461-1.086 28.216-38.569 39.574-46.791 81.88-48.129 90.712z" fill="url(#SVGID_3_)"/><path d="m325.563 133.92c-11.413-12.788-28.464-20.434-47.255-19.013-30.13 2.278-52.946 27.064-52.901 57.28.054 35.953 32.884 63.155 68.444 56.19 11.248 15.336 29.924 24.882 50.734 23.309 30.131-2.278 52.947-27.065 52.901-57.282-.052-34.098-29.587-60.323-62.967-56.997-3.371.337-6.7-.959-8.956-3.487z" fill="url(#SVGID_4_)"/><path d="m306.256 164.062c-4.217-6.197-8.894-11.968-13.969-17.282-5.758-6.029-15.384-6.07-21.318-.215-5.832 5.755-5.986 15.13-.32 21.047 4.571 4.774 8.691 9.983 12.287 15.565 3.177 4.931 8.209 8.391 13.957 9.559 31.245 6.354 60.658 23.288 80.136 45.846 7.949-6.645 14.017-15.41 17.407-25.433-23.104-24.061-54.882-41.626-88.18-49.087z" fill="#f5c98d"/><path d="m282.835 183.019c-18.518-28.634-50.739-47.575-87.394-47.502-57.766.115-103.991 48.879-103.563 106.644 1.158 156.237 97.103 259.839 178.356 259.839 81.399 0 130.428-130.936 130.428-205.256 0-49.371-49.088-92.888-103.768-104.007-5.821-1.184-10.833-4.729-14.059-9.718z" fill="url(#SVGID_5_)"/><g><path d="m178.051 322.599c0 6.629-6.687 12.003-14.937 12.003-8.249 0-14.936-5.374-14.936-12.003s6.687-12.003 14.936-12.003c8.25-.001 14.937 5.373 14.937 12.003z" fill="#efc5db"/><path d="m353.822 322.599c0 6.629-6.687 12.003-14.936 12.003s-14.936-5.374-14.936-12.003 6.687-12.003 14.936-12.003 14.936 5.373 14.936 12.003z" fill="#efc5db"/><circle cx="188.721" cy="292.981" fill="#fff" r="29.618"/><path d="m218.339 292.981c0 9.749-7.903 17.652-17.652 17.652s-17.652-7.903-17.652-17.652 7.903-17.652 17.652-17.652 17.652 7.903 17.652 17.652z" fill="#3b3b44"/><circle cx="313.279" cy="292.981" fill="#fff" r="29.618"/><g fill="#3b3b44"><path d="m342.835 292.981c0 9.749-7.903 17.652-17.652 17.652s-17.652-7.903-17.652-17.652 7.903-17.652 17.652-17.652c9.748 0 17.652 7.903 17.652 17.652z"/><ellipse cx="251" cy="315.433" rx="13.252" ry="17.352"/></g></g><g fill="#ffccd3"><path d="m260.361 476.241c-.495 0-.996-.037-1.501-.113-15.374-2.315-31.72-9.336-47.269-20.306-4.513-3.184-5.59-9.423-2.407-13.936 3.184-4.513 9.423-5.59 13.936-2.407 13.018 9.184 26.405 15.018 38.717 16.871 5.461.822 9.222 5.916 8.4 11.377-.746 4.958-5.011 8.514-9.876 8.514z"/><path d="m186.82 429.479c-2.817 0-5.617-1.184-7.595-3.49-1.197-1.396-2.403-2.842-3.585-4.296-3.481-4.288-2.828-10.586 1.46-14.067 4.286-3.482 10.585-2.829 14.067 1.459 1.069 1.316 2.159 2.624 3.24 3.884 3.595 4.192 3.111 10.505-1.081 14.101-1.886 1.617-4.202 2.409-6.506 2.409z"/></g></g></svg>