<svg id="Capa_1" enable-background="new 0 0 502 502" height="512" viewBox="0 0 502 502" width="512" xmlns="http://www.w3.org/2000/svg" xmlns:xlink="http://www.w3.org/1999/xlink"><linearGradient id="lg1"><stop offset="0" stop-color="#d4dbdb"/><stop offset="1" stop-color="#f3f3f3"/></linearGradient><linearGradient id="SVGID_1_" gradientUnits="userSpaceOnUse" x1="71.651" x2="71.651" xlink:href="#lg1" y1="342.545" y2="94.766"/><linearGradient id="SVGID_2_" gradientTransform="matrix(-1 0 0 1 502 0)" gradientUnits="userSpaceOnUse" x1="71.651" x2="71.651" xlink:href="#lg1" y1="342.545" y2="94.766"/><linearGradient id="SVGID_3_" gradientUnits="userSpaceOnUse" x1="251" x2="251" xlink:href="#lg1" y1="423.037" y2="283.939"/><linearGradient id="SVGID_4_" gradientUnits="userSpaceOnUse" x1="251" x2="251" xlink:href="#lg1" y1="304.91" y2="216.181"/><linearGradient id="SVGID_5_" gradientUnits="userSpaceOnUse" x1="100.784" x2="401.216" y1="219.171" y2="219.171"><stop offset="0" stop-color="#5bd9bb"/><stop offset=".2532" stop-color="#60dabd"/><stop offset=".5725" stop-color="#70dec4"/><stop offset=".9261" stop-color="#8ae4cf"/><stop offset="1" stop-color="#90e6d2"/></linearGradient><g><path d="m117.853 359.423c-48.086 0-83.289-26.209-101.801-75.794-14.388-38.538-16.052-83.066-16.052-113.206 0-32.869 26.741-59.611 59.611-59.611s59.611 26.742 59.611 59.611c0 4.459-.111 9.115-.217 13.617-.701 29.599-.038 51.21 14.97 59.743 8.851 5.033 11.947 16.29 6.914 25.141-5.034 8.853-16.29 11.946-25.142 6.915-35.327-20.088-34.333-62.04-33.607-92.673.106-4.485.207-8.721.207-12.743 0-12.537-10.199-22.736-22.736-22.736s-22.736 10.199-22.736 22.736c0 63.551 10.329 91.217 13.723 100.308 13.198 35.352 34.569 51.817 67.255 51.817 10.183 0 18.437 8.255 18.437 18.437.001 10.183-8.254 18.438-18.437 18.438z" fill="url(#SVGID_1_)"/><path d="m384.147 359.423c48.086 0 83.289-26.209 101.801-75.794 14.388-38.538 16.052-83.066 16.052-113.206 0-32.869-26.741-59.611-59.611-59.611s-59.611 26.742-59.611 59.611c0 4.459.111 9.115.217 13.617.701 29.599.038 51.21-14.97 59.743-8.851 5.033-11.947 16.29-6.914 25.141 5.034 8.853 16.29 11.946 25.141 6.915 35.327-20.088 34.333-62.04 33.607-92.673-.107-4.485-.207-8.721-.207-12.743 0-12.537 10.199-22.736 22.736-22.736s22.736 10.199 22.736 22.736c0 63.551-10.329 91.217-13.723 100.308-13.198 35.352-34.569 51.817-67.255 51.817-10.183 0-18.437 8.255-18.437 18.437 0 10.183 8.255 18.438 18.438 18.438z" fill="url(#SVGID_2_)"/><path d="m100.784 328.585c0 16.348 9.661 31.156 24.635 37.716 34.138 14.956 85.198 24.887 125.58 24.887s91.442-9.931 125.58-24.886c14.974-6.56 24.635-21.368 24.635-37.716v-11.94c-35.953-5.553-100.368-56.317-150.216-56.317s-114.263 50.764-150.216 56.317z" fill="url(#SVGID_3_)"/><path d="m251 280.661c49.848 0 114.263 30.431 150.216 35.984v-46.871c-35.535-31.884-100.368-69.977-150.216-69.977s-114.681 38.094-150.216 69.978v46.871c35.953-5.554 100.368-35.985 150.216-35.985z" fill="url(#SVGID_4_)"/><path d="m100.784 249.818c0-10.292 5.974-19.666 15.338-23.935 37.085-16.904 91.498-57.316 134.878-57.316s97.792 40.411 134.877 57.316c9.365 4.269 15.338 13.643 15.338 23.935v19.957c-35.953-9.737-100.368-63.097-150.216-63.097s-114.263 53.36-150.216 63.097v-19.957z" fill="url(#SVGID_5_)"/><path d="m163.109 271.683c-24.368 7.544-46.424 15.416-62.324 18.555v26.407c17.995-2.78 43.121-11.787 69.982-20.093 6.814-2.107 10.672-9.297 8.642-16.135-2.06-6.936-9.389-10.874-16.3-8.734z" fill="#c2c8cf"/><path d="m338.891 271.683c24.368 7.544 46.424 15.416 62.324 18.555v26.407c-17.995-2.78-43.121-11.787-69.982-20.093-6.814-2.107-10.672-9.297-8.642-16.135 2.06-6.936 9.388-10.874 16.3-8.734z" fill="#c2c8cf"/><g><ellipse cx="163.114" cy="257.734" fill="#eaadcd" rx="14.936" ry="12.003"/><ellipse cx="338.886" cy="257.734" fill="#eaadcd" rx="14.936" ry="12.003"/><circle cx="188.721" cy="228.116" fill="#fff" r="29.618"/><circle cx="313.279" cy="228.116" fill="#fff" r="29.618"/><g fill="#3b3b44"><g><circle cx="188.721" cy="228.116" r="17.652"/><circle cx="313.279" cy="228.116" r="17.652"/></g><path d="m251 258.676c-5.248 0-10.495-1.984-14.776-5.954-2.025-1.877-2.145-5.041-.267-7.066s5.041-2.145 7.066-.267c4.697 4.354 11.256 4.354 15.954 0 2.023-1.876 5.188-1.759 7.065.267 1.878 2.025 1.759 5.189-.267 7.066-4.28 3.969-9.528 5.954-14.775 5.954z"/></g></g></g></svg>