<svg id="Capa_1" enable-background="new 0 0 502 502" height="512" viewBox="0 0 502 502" width="512" xmlns="http://www.w3.org/2000/svg" xmlns:xlink="http://www.w3.org/1999/xlink"><linearGradient id="lg1"><stop offset="0" stop-color="#eca0aa"/><stop offset="1" stop-color="#f8dde3"/></linearGradient><linearGradient id="SVGID_1_" gradientUnits="userSpaceOnUse" x1="251" x2="251" xlink:href="#lg1" y1="367.28" y2="97.866"/><linearGradient id="lg2"><stop offset="0" stop-color="#ec6f80"/><stop offset="1" stop-color="#eca0aa"/></linearGradient><linearGradient id="SVGID_2_" gradientUnits="userSpaceOnUse" x1="113.829" x2="113.829" xlink:href="#lg2" y1="444.051" y2="163.988"/><linearGradient id="SVGID_3_" gradientTransform="matrix(-1 0 0 1 302 0)" gradientUnits="userSpaceOnUse" x1="-86.171" x2="-86.171" xlink:href="#lg2" y1="444.051" y2="163.988"/><linearGradient id="SVGID_4_" gradientUnits="userSpaceOnUse" x1="195.357" x2="326.202" xlink:href="#lg1" y1="55.044" y2="55.044"/><g><path d="m289.863 193.674v-123.822h-77.727v123.822c0 13.674-5.432 26.788-15.101 36.457l-89.354 89.354 54.961 54.961 72.537-72.537c8.737-8.737 22.903-8.737 31.641 0l72.537 72.537 54.961-54.961-89.354-89.354c-9.669-9.669-15.101-22.783-15.101-36.457z" fill="url(#SVGID_1_)"/><path d="m226.426 256.372c-6.894-71.584-53.784-114.471-97.983-114.471-47.616 0-95.171 49.691-112.817 119.916-57.817 230.089 57.422 243.01 140.162 192.363 48.894-29.932 78.395-117.26 70.638-197.808z" fill="url(#SVGID_2_)"/><path d="m275.574 256.372c6.894-71.584 53.784-114.471 97.983-114.471 47.616 0 95.171 49.691 112.817 119.916 57.817 230.089-57.422 243.01-140.162 192.363-48.894-29.932-78.395-117.26-70.638-197.808z" fill="url(#SVGID_3_)"/><path d="m274.933 23.538h-47.866c-16.754 0-30.335 13.582-30.335 30.335v11.72c0 11.575 9.383 20.958 20.958 20.958h66.62c11.575 0 20.958-9.383 20.958-20.958v-11.72c0-16.754-13.582-30.335-30.335-30.335z" fill="url(#SVGID_4_)"/><g><ellipse cx="163.115" cy="274.616" fill="#efc5db" rx="14.936" ry="12.003"/><ellipse cx="338.886" cy="274.616" fill="#efc5db" rx="14.936" ry="12.003"/><circle cx="188.721" cy="244.998" fill="#fff" r="29.618"/><circle cx="313.279" cy="244.998" fill="#fff" r="29.618"/><g fill="#3b3b44"><g><ellipse cx="188.721" cy="244.998" rx="17.652" ry="17.652" transform="matrix(.037 -.999 .999 .037 -62.997 424.659)"/><ellipse cx="313.279" cy="244.998" rx="17.652" ry="17.652" transform="matrix(.124 -.992 .992 .124 31.437 525.592)"/></g><path d="m251 275.558c-5.247 0-10.495-1.984-14.775-5.954-2.025-1.877-2.145-5.041-.267-7.066 1.877-2.025 5.042-2.144 7.065-.267 4.697 4.354 11.256 4.354 15.953 0 2.023-1.876 5.188-1.759 7.065.267 1.878 2.025 1.759 5.188-.267 7.066-4.279 3.97-9.527 5.954-14.774 5.954z"/></g></g><path d="m212.137 136.226h77.727v23h-77.727z" fill="#e88792"/><path d="m128.163 447.534c-3.86-7.877-12.931-11.618-21.272-8.904-9.67 3.147-18.976 4.831-27.278 4.832-17.896.001-25.779-7.455-30.153-13.063-9.406-12.061-13.415-30.426-14.255-50.816-.401-9.729-8.726-17.229-18.447-16.681-9.561.539-16.939 8.676-16.487 18.242 4.347 92.103 61.342 109.035 117.448 90.798 10.185-3.309 15.157-14.79 10.444-24.408z" fill="#e05d6f"/><g fill="#ffccd3"><path d="m419.408 206.135c-2.653 0-5.301-1.049-7.268-3.129-12.87-13.61-26.572-21.106-38.583-21.106-5.522 0-10-4.477-10-10s4.478-10 10-10c17.565 0 36.429 9.718 53.114 27.364 3.795 4.013 3.618 10.342-.396 14.137-1.931 1.828-4.402 2.734-6.867 2.734z"/><path d="m446.301 247.37c-3.815 0-7.46-2.195-9.126-5.901-1.092-2.428-2.246-4.839-3.432-7.168-2.505-4.922-.546-10.943 4.376-13.448 4.924-2.505 10.943-.546 13.448 4.376 1.33 2.613 2.625 5.317 3.848 8.037 2.266 5.037.019 10.957-5.018 13.222-1.332.598-2.725.882-4.096.882z"/></g></g></svg>