<svg id="Capa_1" enable-background="new 0 0 502 502" height="512" viewBox="0 0 502 502" width="512" xmlns="http://www.w3.org/2000/svg" xmlns:xlink="http://www.w3.org/1999/xlink"><linearGradient id="lg1"><stop offset="0" stop-color="#9fd8e6"/><stop offset="1" stop-color="#c4e8f0"/></linearGradient><linearGradient id="SVGID_1_" gradientUnits="userSpaceOnUse" x1="377.248" x2="377.248" xlink:href="#lg1" y1="171.866" y2="76.572"/><linearGradient id="SVGID_2_" gradientUnits="userSpaceOnUse" x1="143.627" x2="-11.065" y1="426.836" y2="426.836"><stop offset="0" stop-color="#c5cccc"/><stop offset="1" stop-color="#e6e6e6"/></linearGradient><linearGradient id="lg2"><stop offset="0" stop-color="#53aae6"/><stop offset="1" stop-color="#a4d2f0"/></linearGradient><linearGradient id="SVGID_3_" gradientUnits="userSpaceOnUse" x1="202.326" x2="59.373" xlink:href="#lg2" y1="359.554" y2="359.554"/><linearGradient id="SVGID_4_" gradientUnits="userSpaceOnUse" x1="334.075" x2="190.327" xlink:href="#lg1" y1="174.769" y2="174.769"/><linearGradient id="SVGID_5_" gradientUnits="userSpaceOnUse" x1="252.351" x2="252.351" y1="407.415" y2="206.218"><stop offset="0" stop-color="#f4d952"/><stop offset="1" stop-color="#f9edaf"/></linearGradient><linearGradient id="SVGID_6_" gradientUnits="userSpaceOnUse" x1="328.251" x2="328.251" xlink:href="#lg2" y1="278.853" y2="60.377"/><linearGradient id="SVGID_7_" gradientUnits="userSpaceOnUse" x1="418.018" x2="418.018" xlink:href="#lg2" y1="164.619" y2="8.388"/><g><path d="m305.774 118.917 77.309 77.309 65.64-65.639-77.31-77.31z" fill="url(#SVGID_1_)"/><path d="m10.681 491.319c14.242 14.242 37.332 14.242 51.574 0l88.073-88.073-51.573-51.573-88.073 88.073c-14.242 14.241-14.242 37.331-.001 51.573z" fill="url(#SVGID_2_)"/><path d="m77.011 371.331 53.657 53.657c11.942 11.942 31.304 11.942 43.247 0l42.922-42.922-96.904-96.904-42.922 42.922c-11.942 11.943-11.942 31.305 0 43.247z" fill="url(#SVGID_3_)"/><path d="m136.676 209.958c49.178 47.063 179.782 82.179 265.254 18.395l-141.825-141.825z" fill="url(#SVGID_4_)"/><path d="m283.111 218.889c10.356 10.356 24.849 25.859 39.094 41.701 12.971-1.952 25.779-5.147 38.16-9.75-18.205-20.723-38.724-42.917-52.505-56.699-9.088-9.088-21.836-21.107-35.407-33.46-7.005-6.376-17.81-6.034-24.386.783-6.849 7.099-6.476 18.454.818 25.094 13.144 11.963 25.509 23.613 34.226 32.331z" fill="#7fc9d4"/><path d="m401.93 228.352c-29.611 22.647-59.906 32.237-103.835 6.027-49.84-8.939-89.053-31.49-161.419-24.422l-29.351 29.351c-24.126 24.126-24.126 63.242 0 87.368l67.998 67.998c24.126 24.126 63.242 24.126 87.369 0l152.78-152.78z" fill="url(#SVGID_5_)"/><path d="m415.472 241.895-13.542-13.542c-43.498 11.8-75.395 11.128-103.835 6.027 19.281 20.427 43.54 47.641 58.686 66.205z" fill="#efc534"/><path d="m360.376 141.624c23.614 23.614 73 77.918 93.623 105.956 12.152 16.521 8.611 39.765-7.91 51.917-16.521 12.151-39.767 8.611-51.917-7.91-16.39-22.282-61.919-73.054-86.313-97.447-24.393-24.393-75.164-69.922-97.447-86.313-16.524-12.153-20.062-35.396-7.91-51.918 12.152-16.52 35.396-20.062 51.917-7.909 28.039 20.624 82.343 70.009 105.957 93.624z" fill="url(#SVGID_6_)"/><path d="m443.146 58.854c13.289 13.289 41.139 43.928 52.833 59.825 10.128 13.768 7.176 33.137-6.591 43.265s-33.142 7.171-43.264-6.591c-8.824-11.996-33.489-39.483-46.742-52.736s-40.74-37.918-52.736-46.742c-13.768-10.129-16.718-29.497-6.591-43.264 10.128-13.767 29.497-16.719 43.265-6.591 15.898 11.695 46.537 39.545 59.826 52.834z" fill="url(#SVGID_7_)"/><g fill="#fff"><path d="m26.69 468.013c-2.56 0-5.119-.977-7.071-2.93-3.905-3.905-3.904-10.237.001-14.142l2.746-2.746c3.905-3.905 10.238-3.904 14.142.001 3.905 3.905 3.904 10.237-.001 14.142l-2.746 2.746c-1.953 1.953-4.513 2.929-7.071 2.929z"/><path d="m57.527 437.176c-2.559 0-5.118-.976-7.071-2.929-3.905-3.905-3.905-10.237 0-14.143l15.785-15.785c3.906-3.905 10.236-3.905 14.143 0 3.905 3.905 3.905 10.237 0 14.143l-15.785 15.785c-1.953 1.953-4.512 2.929-7.072 2.929z"/></g><g><path d="m152.48 304.873c0 6.629-6.687 12.003-14.937 12.003-8.249 0-14.936-5.374-14.936-12.003s6.687-12.003 14.936-12.003c8.25 0 14.937 5.374 14.937 12.003z" fill="#eaadcd"/><path d="m328.251 304.873c0 6.629-6.687 12.003-14.936 12.003s-14.936-5.374-14.936-12.003 6.687-12.003 14.936-12.003 14.936 5.374 14.936 12.003z" fill="#eaadcd"/><circle cx="163.15" cy="275.256" fill="#fff" r="29.618"/><ellipse cx="151.185" cy="275.256" fill="#3b3b44" rx="17.652" ry="17.652" transform="matrix(.707 -.707 .707 .707 -150.354 187.524)"/><circle cx="287.708" cy="275.256" fill="#fff" r="29.618"/><g fill="#3b3b44"><ellipse cx="275.742" cy="275.256" rx="17.652" ry="17.652" transform="matrix(.228 -.974 .974 .228 -55.139 480.967)"/><path d="m233.02 282.45h-15.181c-3.007 0-5.658 1.976-6.506 4.862-2.672 9.09-5.742 27.748 14.097 27.748 19.838 0 16.769-18.659 14.097-27.748-.85-2.886-3.5-4.862-6.507-4.862z"/></g></g></g></svg>