<svg id="Capa_1" enable-background="new 0 0 502 502" height="512" viewBox="0 0 502 502" width="512" xmlns="http://www.w3.org/2000/svg" xmlns:xlink="http://www.w3.org/1999/xlink"><linearGradient id="lg1"><stop offset="0" stop-color="#4e5660"/><stop offset="1" stop-color="#64768d"/></linearGradient><linearGradient id="SVGID_1_" gradientUnits="userSpaceOnUse" x1="459.738" x2="459.738" xlink:href="#lg1" y1="290.818" y2="214.719"/><linearGradient id="SVGID_2_" gradientUnits="userSpaceOnUse" x1="222.383" x2="222.383" xlink:href="#lg1" y1="223.63" y2="25.059"/><linearGradient id="lg2"><stop offset="0" stop-color="#ec6f80"/><stop offset="1" stop-color="#eca0aa"/></linearGradient><linearGradient id="SVGID_3_" gradientUnits="userSpaceOnUse" x1="0" x2="444.766" xlink:href="#lg2" y1="320.925" y2="320.925"/><linearGradient id="SVGID_4_" gradientUnits="userSpaceOnUse" x1="0" x2="179.107" y1="386.633" y2="386.633"><stop offset="0" stop-color="#f5e5a2"/><stop offset="1" stop-color="#fcf7cf"/></linearGradient><linearGradient id="SVGID_5_" gradientUnits="userSpaceOnUse" x1="131.708" x2="336.939" xlink:href="#lg2" y1="72.386" y2="72.386"/><linearGradient id="SVGID_6_" gradientUnits="userSpaceOnUse" x1="222.383" x2="222.383" y1="428.119" y2="267.286"><stop offset="0" stop-color="#f9edaf"/><stop offset="1" stop-color="#fffcdd"/></linearGradient><linearGradient id="SVGID_7_" gradientUnits="userSpaceOnUse" x1="222.383" x2="222.383" xlink:href="#lg2" y1="304.329" y2="393.953"/><g><path d="m496.509 272.127-17.293 17.293c-7.994 7.994-21.192 7.146-28.098-1.805l-29.74-38.55c-5.758-7.463-5.078-18.041 1.587-24.706l8.483-8.483c6.665-6.665 17.242-7.344 24.705-1.587l38.55 29.74c8.952 6.906 9.8 20.104 1.806 28.098z" fill="url(#SVGID_1_)"/><path d="m331.235 122.299c-.474-8.045-7.158-14.348-15.218-14.348h-187.268c-8.059 0-14.744 6.302-15.218 14.348l-6.151 104.443-71.008-4.182 6.151-104.443c2.685-45.587 40.559-81.297 86.226-81.297h187.268c45.667 0 83.541 35.71 86.226 81.297l6.151 104.443-71.008 4.182z" fill="url(#SVGID_2_)"/><path d="m331.235 122.299.15 2.55c.51 8.66 7.829 15.337 16.5 15.051 8.994-.297 15.974-7.949 15.445-16.932l-.15-2.55c-1.471-24.97-22.149-44.467-47.163-44.467h-187.268c-24.978 0-45.694 19.532-47.163 44.466l-6.151 104.443 31.945 1.881 6.151-104.443c.474-8.045 7.158-14.348 15.218-14.348h187.268c8.071.002 14.743 6.292 15.218 14.349z" fill="#424e5e"/><path d="m349.02 165.664h-253.274c-52.879 0-95.746 42.867-95.746 95.746v35.67l12.514 46.233-12.514 22.093v60.477c0 27.782 22.522 50.303 50.303 50.303h60.477l22.151-13.35 46.175 13.35h215.356c27.782 0 50.303-22.522 50.303-50.303v-164.473c.001-52.879-42.866-95.746-95.745-95.746z" fill="url(#SVGID_3_)"/><path d="m0 365.406 110.781 110.78h68.326l-179.107-179.106z" fill="url(#SVGID_4_)"/><path d="m301.505 25.814h-158.244c-12.975 0-23.493 10.518-23.493 23.494v46.157c0 12.975 10.518 23.493 23.493 23.493h158.244c12.975 0 23.494-10.518 23.494-23.493v-46.158c0-12.975-10.519-23.493-23.494-23.493z" fill="url(#SVGID_5_)"/><circle cx="222.383" cy="348.312" fill="url(#SVGID_6_)" r="82.636"/><path d="m238.45 328.977v-23.335c0-3.053-2.475-5.529-5.529-5.529h-21.075c-3.054 0-5.529 2.475-5.529 5.529v23.335c0 1.805-1.464 3.269-3.269 3.269h-23.335c-3.054 0-5.529 2.475-5.529 5.529v21.075c0 3.054 2.476 5.529 5.529 5.529h23.335c1.805 0 3.269 1.464 3.269 3.269v23.335c0 3.054 2.475 5.529 5.529 5.529h21.075c3.054 0 5.529-2.475 5.529-5.529v-23.335c0-1.805 1.464-3.269 3.269-3.269h23.335c3.054 0 5.529-2.475 5.529-5.529v-21.075c0-3.054-2.476-5.529-5.529-5.529h-23.335c-1.806 0-3.269-1.464-3.269-3.269z" fill="url(#SVGID_7_)"/><g><path d="m149.434 240.689c0 6.629-6.687 12.003-14.937 12.003-8.249 0-14.936-5.374-14.936-12.003s6.687-12.003 14.936-12.003c8.25 0 14.937 5.374 14.937 12.003z" fill="#efc5db"/><path d="m325.205 240.689c0 6.629-6.687 12.003-14.936 12.003s-14.936-5.374-14.936-12.003 6.687-12.003 14.936-12.003 14.936 5.374 14.936 12.003z" fill="#efc5db"/><circle cx="160.104" cy="211.071" fill="#fff" r="29.618"/><path d="m189.722 211.071c0 9.749-7.903 17.652-17.652 17.652s-17.652-7.903-17.652-17.652 7.903-17.652 17.652-17.652 17.652 7.903 17.652 17.652z" fill="#3b3b44"/><circle cx="284.662" cy="211.071" fill="#fff" r="29.618"/><g fill="#3b3b44"><path d="m314.217 211.071c0 9.749-7.903 17.652-17.652 17.652s-17.652-7.903-17.652-17.652 7.903-17.652 17.652-17.652 17.652 7.903 17.652 17.652z"/><ellipse cx="222.383" cy="233.524" rx="13.252" ry="17.352"/></g></g><g fill="#ffccd3"><path d="m394.463 454.186h-23.704c-5.523 0-10-4.477-10-10s4.477-10 10-10h23.704c4.579 0 8.303-3.725 8.303-8.304 0-5.523 4.477-10 10-10s10 4.477 10 10c0 15.608-12.697 28.304-28.303 28.304z"/><path d="m330.315 454.186h-11.395c-5.523 0-10-4.477-10-10s4.477-10 10-10h11.395c5.523 0 10 4.477 10 10s-4.478 10-10 10z"/></g></g></svg>