<svg id="Capa_1" enable-background="new 0 0 502 502" height="512" viewBox="0 0 502 502" width="512" xmlns="http://www.w3.org/2000/svg" xmlns:xlink="http://www.w3.org/1999/xlink"><linearGradient id="SVGID_1_" gradientUnits="userSpaceOnUse" x1="213.343" x2="213.343" y1="537.281" y2="96.6"><stop offset="0" stop-color="#9fd8e6"/><stop offset="1" stop-color="#c4e8f0"/></linearGradient><linearGradient id="lg1"><stop offset="0" stop-color="#ec6f80"/><stop offset="1" stop-color="#eca0aa"/></linearGradient><linearGradient id="SVGID_2_" gradientUnits="userSpaceOnUse" x1="213.343" x2="213.343" xlink:href="#lg1" y1="404.035" y2="87.315"/><linearGradient id="SVGID_3_" gradientUnits="userSpaceOnUse" x1="213.343" x2="213.343" y1="382.064" y2="221.146"><stop offset="0" stop-color="#f5e5a2"/><stop offset="1" stop-color="#fcf7cf"/></linearGradient><linearGradient id="SVGID_4_" gradientUnits="userSpaceOnUse" x1="393.1" x2="393.1" xlink:href="#lg1" y1="234.868" y2="12.359"/><g><path d="m295.435 8.367h-164.184c-59.538 0-107.804 48.265-107.804 107.803v221.637c0 46.66 29.656 86.37 71.139 101.374 4.057 1.467 6.701 5.395 6.701 9.709v31.387c0 11.997 9.725 21.722 21.722 21.722h39.774c11.997 0 21.722-9.725 21.722-21.722v-24.281c0-5.736 4.65-10.386 10.386-10.386h36.904c5.736 0 10.386 4.65 10.386 10.386v24.281c0 11.997 9.725 21.722 21.722 21.722h39.775c11.997 0 21.722-9.725 21.722-21.722v-31.387c0-4.314 2.644-8.242 6.701-9.709 41.483-15.004 71.139-54.714 71.139-101.374v-221.636c-.001-59.539-48.267-107.804-107.805-107.804z" fill="url(#SVGID_1_)"/><path d="m315.584 90.795c3.712-8.537.063-18.483-8.277-22.619-8.948-4.438-19.807-.506-23.803 8.648-6.607 15.136-10.855 32.274-10.855 52.349 0 66.417 54.035 120.452 120.452 120.452 3.415 0 6.794-.151 10.138-.431v-35.189c-44.563-13.455-88.21-74.467-87.655-123.21z" fill="#71c4d1"/><path d="m273.029 119.015c-60.161-3.411-131.706-17.659-177.591-13.969-12.891 1.037-22.789 11.863-22.789 24.796v207.965c0 32.365 26.237 58.602 58.602 58.602h164.185c32.365 0 58.602-26.237 58.602-58.602v-94.688c-23.675-40.446-63.349-97.176-81.009-124.104z" fill="url(#SVGID_2_)"/><path d="m354.037 243.119v-109.644c0-10.638-9.655-18.678-20.108-16.705-17.398 3.284-38.351 3.525-60.9 2.246-.245 3.303-.38 6.683-.38 10.157-.001 52.75 34.086 97.685 81.388 113.946z" fill="#e05d6f"/><path d="m287.829 212.9h-148.972c-20.49 0-37.1 16.61-37.1 37.1v64.672c0 20.49 16.61 37.1 37.1 37.1h148.973c20.49 0 37.1-16.61 37.1-37.1v-64.672c-.001-20.49-16.611-37.1-37.101-37.1z" fill="url(#SVGID_3_)"/><path d="m411.19 9.419c-8.725-12.559-27.454-12.559-36.179 0-29.09 41.873-67.363 67.776-67.363 119.754 0 47.194 38.258 85.452 85.452 85.452s85.452-38.258 85.452-85.452c0-51.978-38.272-77.881-67.362-119.754z" fill="url(#SVGID_4_)"/><g fill="#e3fcff"><path d="m98.956 424.925c-1.292 0-2.605-.252-3.871-.784-3.677-1.545-7.293-3.348-10.749-5.357-4.775-2.776-6.396-8.896-3.62-13.671s8.897-6.394 13.671-3.62c2.718 1.58 5.56 2.996 8.449 4.21 5.091 2.14 7.484 8.003 5.344 13.094-1.608 3.826-5.318 6.128-9.224 6.128z"/><path d="m60.321 392.005c-3.333 0-6.591-1.665-8.488-4.7-9.279-14.84-14.184-31.956-14.184-49.498 0-5.523 4.477-10 10-10s10 4.477 10 10c0 13.788 3.853 27.238 11.142 38.895 2.928 4.683 1.505 10.853-3.177 13.781-1.649 1.031-3.483 1.522-5.293 1.522z"/></g><g><ellipse cx="125.458" cy="300.712" fill="#eaadcd" rx="14.936" ry="12.003"/><ellipse cx="301.229" cy="300.712" fill="#eaadcd" rx="14.936" ry="12.003"/><path d="m151.064 275.06c7.183 0 13.813 1.589 19.159 4.273 4.544 2.281 9.962-.802 10.365-5.87.113-1.423.125-2.875.029-4.348-.991-15.146-13.602-27.24-28.775-27.629-16.713-.428-30.396 12.992-30.396 29.608 0 .843.035 1.678.105 2.503.422 5.01 5.857 7.994 10.349 5.738 5.348-2.685 11.979-4.275 19.164-4.275z" fill="#fff"/><path d="m213.343 310.898c-6.447 0-12.894-2.155-18.273-6.465-4.989-3.997-5.794-11.282-1.797-16.271 3.997-4.99 11.282-5.793 16.271-1.797 2.237 1.792 5.361 1.792 7.598 0 4.988-3.997 12.273-3.193 16.271 1.797 3.997 4.989 3.193 12.274-1.797 16.271-5.379 4.31-11.826 6.465-18.273 6.465z" fill="#3b3b44"/><path d="m151.064 275.06c5.926 0 11.473 1.082 16.237 2.967.911-2.129 1.415-4.47 1.415-6.933 0-9.749-7.903-17.652-17.652-17.652s-17.652 7.903-17.652 17.652c0 2.463.504 4.803 1.415 6.933 4.764-1.885 10.312-2.967 16.237-2.967z" fill="#3b3b44"/><path d="m275.622 275.06c7.183 0 13.813 1.589 19.158 4.273 4.544 2.281 9.962-.802 10.365-5.87.113-1.423.125-2.875.029-4.348-.991-15.146-13.602-27.24-28.775-27.629-16.713-.428-30.396 12.992-30.396 29.608 0 .843.035 1.678.105 2.503.422 5.01 5.856 7.994 10.349 5.738 5.348-2.685 11.98-4.275 19.165-4.275z" fill="#fff"/><path d="m275.622 275.06c5.926 0 11.473 1.082 16.237 2.967.911-2.129 1.415-4.47 1.415-6.933 0-9.749-7.903-17.652-17.652-17.652s-17.652 7.903-17.652 17.652c0 2.463.504 4.803 1.415 6.933 4.763-1.885 10.311-2.967 16.237-2.967z" fill="#3b3b44"/></g></g></svg>