<svg id="Capa_1" enable-background="new 0 0 502 502" height="512" viewBox="0 0 502 502" width="512" xmlns="http://www.w3.org/2000/svg" xmlns:xlink="http://www.w3.org/1999/xlink"><linearGradient id="lg1"><stop offset="0" stop-color="#41c4a6"/><stop offset=".216" stop-color="#46c6a9"/><stop offset=".4884" stop-color="#56cdb2"/><stop offset=".7898" stop-color="#70d7c0"/><stop offset="1" stop-color="#86e0cd"/></linearGradient><linearGradient id="SVGID_1_" gradientUnits="userSpaceOnUse" x1="212.057" x2="212.057" xlink:href="#lg1" y1="280.614" y2="173.733"/><linearGradient id="SVGID_2_" gradientUnits="userSpaceOnUse" x1="294.095" x2="294.095" y1="303.721" y2="43.038"><stop offset="0" stop-color="#d4dbdb"/><stop offset="1" stop-color="#f3f3f3"/></linearGradient><linearGradient id="lg2"><stop offset="0" stop-color="#5bd9bb"/><stop offset=".2532" stop-color="#60dabd"/><stop offset=".5725" stop-color="#70dec4"/><stop offset=".9261" stop-color="#8ae4cf"/><stop offset="1" stop-color="#90e6d2"/></linearGradient><linearGradient id="SVGID_3_" gradientUnits="userSpaceOnUse" x1="212.056" x2="212.056" xlink:href="#lg2" y1="477.856" y2="246.056"/><linearGradient id="SVGID_4_" gradientUnits="userSpaceOnUse" x1="212.057" x2="212.057" xlink:href="#lg1" y1="410.588" y2="519.177"/><linearGradient id="SVGID_5_" gradientUnits="userSpaceOnUse" x1="212.056" x2="212.056" y1="407.941" y2="270.281"><stop offset="0" stop-color="#f9edaf"/><stop offset="1" stop-color="#fffcdd"/></linearGradient><linearGradient id="SVGID_6_" gradientUnits="userSpaceOnUse" x1="212.056" x2="212.056" xlink:href="#lg2" y1="301.987" y2="378.698"/><g><path d="m212.045 195.567-4.284-11.631c-3.087-8.38-11.07-13.947-19.999-13.947h-78.479c-8.93 0-16.913 5.567-19.999 13.947l-4.284 11.631c-1.993 5.411-7.149 9.007-12.915 9.007h-9.669c-19.136 0-34.649 15.513-34.649 34.649v34.547h368.583v-34.547c0-19.136-15.513-34.649-34.648-34.649h-136.742c-5.767 0-10.922-3.595-12.915-9.007z" fill="url(#SVGID_1_)"/><path d="m298.15 349.161-173.077-173.076c-14.824-14.824-14.824-38.86 0-53.684l113.571-113.571c11.773-11.773 30.86-11.773 42.633 0l184.127 184.127c11.773 11.773 11.773 30.86 0 42.633l-113.57 113.571c-14.824 14.825-38.859 14.825-53.684 0z" fill="url(#SVGID_2_)"/><path d="m431.226 269.77c-2.081-36.549-32.464-65.649-69.526-65.649h-38.089c-9.665 0-17.5 7.835-17.5 17.5 0 9.665 7.835 17.5 17.5 17.5l72.737 65.527z" fill="#c2c8cf"/><g fill="#c2c8cf"><path d="m207.132 174.826c-2.943 0-5.886-1.123-8.132-3.368-4.491-4.491-4.491-11.772 0-16.264l66.913-66.913c4.492-4.491 11.771-4.491 16.264 0 4.491 4.491 4.491 11.772 0 16.264l-66.913 66.913c-2.245 2.246-5.189 3.368-8.132 3.368z"/><path d="m255.221 222.915c-2.943 0-5.886-1.122-8.132-3.368-4.491-4.491-4.491-11.772 0-16.264l66.913-66.913c4.49-4.492 11.771-4.491 16.264 0 4.491 4.491 4.491 11.773 0 16.264l-66.913 66.913c-2.246 2.245-5.19 3.368-8.132 3.368z"/></g><path d="m396.348 440.145-184.292 34.433-184.291-34.433v-166.376c0-19.136 15.513-34.648 34.649-34.648h299.286c19.136 0 34.649 15.513 34.649 34.648v166.376z" fill="url(#SVGID_3_)"/><path d="m27.765 440.145v18.226c0 24.096 19.534 43.63 43.63 43.63h281.323c24.096 0 43.63-19.534 43.63-43.63v-18.226z" fill="url(#SVGID_4_)"/><circle cx="212.057" cy="339.633" fill="url(#SVGID_5_)" r="70.73"/><path d="m225.808 323.083v-19.973c0-2.614-2.119-4.732-4.732-4.732h-18.038c-2.614 0-4.732 2.119-4.732 4.732v19.973c0 1.545-1.253 2.798-2.798 2.798h-19.973c-2.614 0-4.732 2.119-4.732 4.733v18.038c0 2.614 2.119 4.732 4.732 4.732h19.973c1.545 0 2.798 1.253 2.798 2.798v19.973c0 2.614 2.119 4.733 4.732 4.733h18.038c2.614 0 4.732-2.119 4.732-4.733v-19.973c0-1.545 1.253-2.798 2.798-2.798h19.973c2.614 0 4.732-2.119 4.732-4.732v-18.038c0-2.614-2.119-4.733-4.732-4.733h-19.973c-1.545 0-2.798-1.253-2.798-2.798z" fill="url(#SVGID_6_)"/></g></svg>