<svg id="Capa_1" enable-background="new 0 0 502 502" height="512" viewBox="0 0 502 502" width="512" xmlns="http://www.w3.org/2000/svg" xmlns:xlink="http://www.w3.org/1999/xlink"><linearGradient id="SVGID_1_" gradientUnits="userSpaceOnUse" x1="0" x2="495.176" y1="367.561" y2="367.561"><stop offset="0" stop-color="#ffbe9d"/><stop offset="1" stop-color="#ffd3bd"/></linearGradient><linearGradient id="SVGID_2_" gradientUnits="userSpaceOnUse" x1="274.501" x2="150.794" y1="267.512" y2="267.512"><stop offset="0" stop-color="#c5cccc"/><stop offset="1" stop-color="#e6e6e6"/></linearGradient><linearGradient id="SVGID_3_" gradientUnits="userSpaceOnUse" x1="364.244" x2="160.63" y1="293.282" y2="293.282"><stop offset="0" stop-color="#d4dbdb"/><stop offset="1" stop-color="#f3f3f3"/></linearGradient><linearGradient id="SVGID_4_" gradientUnits="userSpaceOnUse" x1="381.547" x2="381.547" y1="330.262" y2="51.895"><stop offset="0" stop-color="#5bd9bb"/><stop offset=".2532" stop-color="#60dabd"/><stop offset=".5725" stop-color="#70dec4"/><stop offset=".9261" stop-color="#8ae4cf"/><stop offset="1" stop-color="#90e6d2"/></linearGradient><linearGradient id="SVGID_5_" gradientUnits="userSpaceOnUse" x1="354.527" x2="354.527" y1="225.252" y2="95.338"><stop offset="0" stop-color="#41c4a6"/><stop offset=".216" stop-color="#46c6a9"/><stop offset=".4884" stop-color="#56cdb2"/><stop offset=".7898" stop-color="#70d7c0"/><stop offset="1" stop-color="#86e0cd"/></linearGradient><g><path d="m424.558 479.729h-353.94c-39.001 0-70.618-31.617-70.618-70.618v-83.1c0-39.001 31.617-70.618 70.618-70.618h353.94c39.001 0 70.618 31.617 70.618 70.618v83.1c0 39.001-31.617 70.618-70.618 70.618z" fill="url(#SVGID_1_)"/><path d="m149.105 313.397 58.004-58.004h-42.427l-36.79 36.79c-4.361 4.361-7.654 9.389-9.882 14.759-3.829 9.229 2.34 19.546 12.274 20.613 6.655.715 12.835-3.126 15.492-9.269.768-1.775 1.878-3.438 3.329-4.889z" fill="#f2af8d"/><path d="m199.542 373.776h-125.105c-6.352 0-11.5-5.149-11.5-11.5s5.148-11.5 11.5-11.5h125.106c6.352 0 11.5 5.149 11.5 11.5-.001 6.351-5.149 11.5-11.501 11.5z" fill="#e05d6f"/><path d="m169.357 331.186c30.185 22.806 63.922 1.055 81.643-20.873 22.804-28.217 53.08-80.447 53.08-80.447l-35.723-35.722-111.153 111.154s2.468 18.572 12.153 25.888z" fill="url(#SVGID_2_)"/><path d="m149.105 313.397c-6.171 6.171-6.171 16.176 0 22.346 32.239 32.239 86.007 26.491 110.702-11.834l10.437-16.196c6.585-10.219 14.241-19.708 22.838-28.305l30.27-30.27-19.272-19.272-30.27 30.27c-20.543 20.543-29.293 37.973-36.912 49.01-15.275 23.697-48.545 27.3-68.521 7.324l-11.173-11.173z" fill="url(#SVGID_3_)"/><path d="m491.843 106.286-152.097 152.097c-6.393 6.393-16.758 6.393-23.151 0l-50.707-50.707c-6.393-6.393-6.393-16.758 0-23.151l152.097-152.096c13.543-13.543 35.501-13.543 49.044 0l24.813 24.813c13.544 13.543 13.544 35.501.001 49.044z" fill="url(#SVGID_4_)"/><g><ellipse cx="276.815" cy="398.177" fill="#eaadcd" rx="14.936" ry="12.003"/><ellipse cx="452.586" cy="398.177" fill="#eaadcd" rx="14.936" ry="12.003"/><circle cx="302.422" cy="368.559" fill="#fff" r="29.618"/><circle cx="426.979" cy="368.559" fill="#fff" r="29.618"/><path d="m312.205 378.99c-2.648 0-5.214-1.404-6.579-3.888-.941-1.711-2.555-1.895-3.205-1.895-.649 0-2.263.185-3.203 1.895-1.995 3.63-6.558 4.955-10.185 2.96-3.63-1.996-4.955-6.556-2.96-10.186 3.277-5.964 9.542-9.668 16.348-9.669 6.806 0 13.07 3.705 16.35 9.668 1.995 3.63.671 8.19-2.959 10.185-1.147.63-2.385.93-3.607.93z" fill="#3b3b44"/><path d="m417.195 378.99c-1.222 0-2.46-.299-3.606-.929-3.63-1.996-4.954-6.556-2.959-10.185 3.278-5.964 9.543-9.668 16.349-9.668h.001c6.806 0 13.07 3.705 16.348 9.669 1.995 3.63.67 8.19-2.96 10.186-3.627 1.996-8.189.671-10.185-2.96-.94-1.71-2.554-1.895-3.203-1.895-.65 0-2.265.185-3.205 1.895-1.366 2.482-3.932 3.887-6.58 3.887z" fill="#3b3b44"/><g><path d="m376.371 408.363h-23.342c-6.508 0-11.784-5.276-11.784-11.784 0-6.508 5.276-11.784 11.784-11.784h23.342c6.508 0 11.784 5.276 11.784 11.784 0 6.508-5.276 11.784-11.784 11.784z" fill="#3b3b44"/></g></g><path d="m408.07 190.059-33.229 33.229-73.857-73.858 33.228-33.228z" fill="url(#SVGID_5_)"/><g fill="#c9f5ee"><path d="m459.694 107.606c-2.56 0-5.118-.976-7.071-2.929-3.905-3.905-3.905-10.237 0-14.142l14.303-14.303c3.906-3.905 10.236-3.906 14.143 0 3.905 3.905 3.905 10.237 0 14.142l-14.303 14.303c-1.953 1.952-4.512 2.929-7.072 2.929z"/><path d="m428.698 138.602c-2.559 0-5.118-.976-7.07-2.928-3.905-3.905-3.906-10.236-.001-14.142l2.566-2.567c3.904-3.906 10.237-3.906 14.142-.001s3.906 10.236.001 14.142l-2.566 2.567c-1.953 1.952-4.512 2.929-7.072 2.929z"/></g></g></svg>