<svg id="Capa_1" enable-background="new 0 0 502 502" height="512" viewBox="0 0 502 502" width="512" xmlns="http://www.w3.org/2000/svg" xmlns:xlink="http://www.w3.org/1999/xlink"><linearGradient id="SVGID_1_" gradientUnits="userSpaceOnUse" x1="179.157" x2="179.157" y1="217.401" y2="63.144"><stop offset="0" stop-color="#41c4a6"/><stop offset=".216" stop-color="#46c6a9"/><stop offset=".4884" stop-color="#56cdb2"/><stop offset=".7898" stop-color="#70d7c0"/><stop offset="1" stop-color="#86e0cd"/></linearGradient><linearGradient id="lg1"><stop offset="0" stop-color="#5bd9bb"/><stop offset=".2532" stop-color="#60dabd"/><stop offset=".5725" stop-color="#70dec4"/><stop offset=".9261" stop-color="#8ae4cf"/><stop offset="1" stop-color="#90e6d2"/></linearGradient><linearGradient id="SVGID_2_" gradientUnits="userSpaceOnUse" x1="274.329" x2="274.329" xlink:href="#lg1" y1="422.031" y2="26.125"/><linearGradient id="SVGID_3_" gradientUnits="userSpaceOnUse" x1="151.708" x2="151.708" xlink:href="#lg1" y1="599.171" y2="309.533"/><g><path d="m159.917 38.348c21.055-3.713 41.134 10.346 44.847 31.402l25.631 145.358-76.249 13.445-25.63-145.358c-3.714-21.056 10.345-41.135 31.401-44.847z" fill="url(#SVGID_1_)"/><path d="m463.629 283.172c17.387-1.521 30.249-16.849 28.727-34.236-1.521-17.387-16.849-30.249-34.236-28.727l-68.232 5.969c-3.608.316-5.306-4.349-2.339-6.427l83.241-58.286c14.297-10.011 17.771-29.716 7.761-44.013-10.011-14.297-29.716-17.771-44.013-7.761l-77.682 54.394c-2.407 1.685-5.158-1.593-3.08-3.671l74.724-74.724c12.341-12.341 12.341-32.351 0-44.692-12.341-12.341-32.351-12.341-44.692 0l-79.94 79.94c-2.865 2.865-7.554-.419-5.842-4.091l33.199-71.196c7.242-15.53 1.333-34.389-13.93-42.178-16.024-8.177-35.495-1.385-43.032 14.78l-33.952 72.81c-8.598 18.439-20.356 35.231-34.742 49.617l-25.563 25.563c-58.67 58.67-103.369 82.647-123.825 94.102l194.995 194.995c11.455-20.456 35.433-65.155 94.102-123.825l33.441-33.441c5.292-5.292 12.279-8.55 19.733-9.202z" fill="url(#SVGID_2_)"/><path d="m121.313 390.209c-26.852-26.853-82.743-88.096-104.927-117.677-11.37-15.161-8.297-36.669 6.864-48.04 15.162-11.371 36.667-8.301 48.04 6.865 20.15 26.868 73.677 85.451 98.551 110.325s83.456 78.401 110.325 98.551c15.167 11.375 18.234 32.879 6.865 48.04-11.371 15.161-32.879 18.234-48.04 6.863-29.582-22.185-90.826-78.075-117.678-104.927z" fill="url(#SVGID_3_)"/><path d="m189.757 330.916c-8.827 7.782-9.057 21.457-.506 29.543 23.206 21.943 54.69 50.368 77.085 68.809 5.92-9.545 13.297-20.664 22.634-33.184-21.119-17.583-50.465-44.102-72.257-64.707-7.513-7.104-19.2-7.298-26.956-.461z" fill="#12c7aa"/><g fill="#c9f5ee"><path d="m256.923 126.056c-1.415 0-2.853-.302-4.22-.939-5.005-2.335-7.171-8.284-4.836-13.289l3.287-7.048c2.333-5.005 8.282-7.172 13.289-4.836 5.005 2.335 7.171 8.284 4.836 13.289l-3.287 7.048c-1.696 3.637-5.304 5.775-9.069 5.775z"/><path d="m277.363 82.221c-1.415 0-2.853-.302-4.22-.94-5.005-2.334-7.171-8.284-4.837-13.289l18.861-40.449c2.335-5.005 8.283-7.172 13.29-4.837 5.005 2.334 7.171 8.284 4.837 13.289l-18.861 40.449c-1.697 3.639-5.303 5.777-9.07 5.777z"/></g><g><path d="m184.454 223.985c-4.684 4.684-13.206 3.756-19.034-2.072s-6.756-14.35-2.072-19.034 13.206-3.756 19.034 2.072 6.755 14.35 2.072 19.034z" fill="#efc5db"/><path d="m308.643 348.175c-4.684 4.684-13.206 3.756-19.034-2.072s-6.756-14.35-2.072-19.034 13.206-3.756 19.034 2.072c5.829 5.828 6.756 14.35 2.072 19.034z" fill="#efc5db"/><ellipse cx="300.898" cy="298.629" fill="#fff" rx="29.557" ry="29.557" transform="matrix(.805 -.593 .593 .805 -118.483 236.672)"/><path d="m287.449 287.228c-5.863 6.93-5.531 17.313 1.003 23.847s16.917 6.865 23.847 1.003z" fill="#3b3b44"/><path d="m321.797 277.73c-11.543-11.543-30.257-11.543-41.799 0-.343.343-.675.694-.998 1.049l41.748 41.748c.356-.323.706-.654 1.049-.998 11.543-11.542 11.543-30.257 0-41.799z" fill="#0099cf"/><ellipse cx="212.892" cy="210.624" fill="#fff" rx="29.557" ry="29.557" transform="matrix(.956 -.293 .293 .956 -52.358 71.6)"/><path d="m199.444 199.223c-5.863 6.93-5.531 17.313 1.003 23.847s16.917 6.865 23.847 1.003z" fill="#3b3b44"/><path d="m233.792 189.724c-11.543-11.543-30.257-11.543-41.799 0-.343.343-.675.694-.998 1.049l41.748 41.748c.355-.323.706-.654 1.049-.998 11.543-11.542 11.543-30.256 0-41.799z" fill="#0099cf"/><path d="m246.893 288.2c-4.012 0-7.337-3.174-7.49-7.217-.192-5.109-3.755-8.671-8.863-8.864-4.139-.156-7.368-3.638-7.212-7.778.157-4.139 3.638-7.39 7.778-7.211 13.002.491 22.796 10.285 23.287 23.288.156 4.139-3.073 7.621-7.212 7.777-.097.003-.193.005-.288.005z" fill="#3b3b44"/></g></g></svg>