<svg id="Capa_1" enable-background="new 0 0 512 512" height="512" viewBox="0 0 512 512" width="512" xmlns="http://www.w3.org/2000/svg" xmlns:xlink="http://www.w3.org/1999/xlink"><linearGradient id="SVGID_1_" gradientUnits="userSpaceOnUse" x1="256" x2="256" y1="413.066" y2="326.958"><stop offset="0" stop-color="#53aae6"/><stop offset="1" stop-color="#a4d2f0"/></linearGradient><linearGradient id="SVGID_2_" gradientTransform="matrix(1.02 0 0 -1.02 14.004 529.877)" gradientUnits="userSpaceOnUse" x1="33.612" x2="568.771" y1="298.85" y2="298.85"><stop offset="0" stop-color="#d4dbdb"/><stop offset="1" stop-color="#f3f3f3"/></linearGradient><linearGradient id="SVGID_3_" gradientTransform="matrix(1.02 0 0 -1.02 14.004 529.877)" gradientUnits="userSpaceOnUse" x1="237.27" x2="237.27" y1="192.938" y2="452.008"><stop offset="0" stop-color="#4e5660"/><stop offset="1" stop-color="#64768d"/></linearGradient><linearGradient id="SVGID_4_" gradientTransform="matrix(1.02 0 0 -1.02 14.004 529.877)" gradientUnits="userSpaceOnUse" x1="386.506" x2="386.506" y1="96.503" y2="154.29"><stop offset="0" stop-color="#ec6f80"/><stop offset="1" stop-color="#eca0aa"/></linearGradient><g><path d="m434.68 436.16c0 41.88-80 75.84-178.68 75.84-53.9 0-102.23-10.13-134.98-26.15-20.38-9.97-34.74-22.2-40.66-35.7-2-4.54-3.04-9.21-3.04-13.99 0-41.89 80-75.84 178.68-75.84s178.68 33.95 178.68 75.84z" fill="url(#SVGID_1_)"/><path d="m1.207 398.745v-347.342c0-28.388 23.013-51.403 51.403-51.403h406.782c28.389 0 51.403 23.015 51.403 51.403v347.341c0 28.389-23.013 51.403-51.403 51.403h-406.782c-28.39.001-51.403-23.014-51.403-51.402z" fill="url(#SVGID_2_)"/><path d="m452.425 256.882 6.941-12.611v-164.26c0-15.786-12.797-28.583-28.583-28.583h-349.567c-15.786 0-28.583 12.797-28.583 28.583v164.26l6.357 12.611-6.356 10.847v59.015c0 15.786 12.797 28.583 28.583 28.583h349.567c15.786 0 28.583-12.797 28.583-28.583v-59.015z" fill="url(#SVGID_3_)"/><path d="m115.102 412.937h-20.06c-5.633 0-10.199-4.566-10.199-10.199s4.566-10.199 10.199-10.199h20.06c5.633 0 10.199 4.566 10.199 10.199s-4.566 10.199-10.199 10.199z" fill="#0099cf"/><path d="m195.346 412.937h-20.06c-5.633 0-10.199-4.566-10.199-10.199s4.566-10.199 10.199-10.199h20.06c5.633 0 10.199 4.566 10.199 10.199.001 5.633-4.566 10.199-10.199 10.199z" fill="#0099cf"/><circle cx="408.209" cy="402.738" fill="url(#SVGID_4_)" r="26.469"/><g><ellipse cx="166.363" cy="149.046" fill="#eaadcd" rx="15.234" ry="12.242"/><ellipse cx="345.637" cy="149.046" fill="#eaadcd" rx="15.234" ry="12.242"/><path d="m192.48 122.883c7.326 0 14.088 1.621 19.541 4.358 4.635 2.326 10.16-.818 10.571-5.987.115-1.451.129-2.932.03-4.435-1.011-15.448-13.873-27.783-29.348-28.179-17.046-.437-31.001 13.251-31.001 30.198 0 .86.037 1.711.107 2.553.43 5.11 5.974 8.153 10.555 5.852 5.454-2.738 12.217-4.36 19.545-4.36z" fill="#fff"/><path d="m256 159.435c-6.575 0-13.151-2.198-18.637-6.594-5.088-4.077-5.909-11.507-1.833-16.595 4.077-5.089 11.507-5.908 16.595-1.833 2.282 1.828 5.468 1.828 7.749 0 5.087-4.077 12.517-3.257 16.595 1.833 4.077 5.088 3.257 12.519-1.833 16.595-5.485 4.396-12.061 6.594-18.636 6.594z" fill="#3b3b44"/><path d="m192.48 122.883c6.044 0 11.702 1.104 16.56 3.026.929-2.171 1.443-4.559 1.443-7.071 0-9.943-8.06-18.004-18.004-18.004-9.943 0-18.004 8.06-18.004 18.004 0 2.512.514 4.899 1.443 7.071 4.861-1.922 10.519-3.026 16.562-3.026z" fill="#3b3b44"/><path d="m319.52 122.883c7.326 0 14.088 1.621 19.54 4.358 4.635 2.326 10.16-.818 10.571-5.987.115-1.451.129-2.932.03-4.435-1.011-15.448-13.873-27.783-29.348-28.179-17.046-.437-31.001 13.251-31.001 30.198 0 .86.036 1.711.107 2.553.43 5.11 5.974 8.153 10.555 5.852 5.453-2.738 12.217-4.36 19.546-4.36z" fill="#fff"/><path d="m319.52 122.883c6.044 0 11.702 1.104 16.56 3.026.929-2.171 1.443-4.559 1.443-7.071 0-9.943-8.06-18.004-18.004-18.004-9.943 0-18.004 8.06-18.004 18.004 0 2.512.514 4.899 1.443 7.071 4.859-1.922 10.518-3.026 16.562-3.026z" fill="#3b3b44"/></g><path d="m314.61 468c0 9.85-7.99 17.85-17.85 17.85h-175.74c-20.38-9.97-34.74-22.2-40.66-35.7h216.41c4.93 0 9.39 2 12.61 5.23 3.23 3.23 5.23 7.69 5.23 12.62z" fill="#0099cf"/><g fill="#8196ab"><path d="m425.777 105.7c-6.478 0-11.729-5.252-11.729-11.729v-9.029c0-6.478 5.252-11.729 11.729-11.729 6.478 0 11.729 5.252 11.729 11.729v9.029c0 6.478-5.251 11.729-11.729 11.729z"/><path d="m425.777 198.974c-6.478 0-11.729-5.252-11.729-11.729v-49.097c0-6.478 5.252-11.729 11.729-11.729 6.478 0 11.729 5.252 11.729 11.729v49.097c0 6.478-5.251 11.729-11.729 11.729z"/></g><path d="m190.882 294.834-29.461-80.944-14.223 39.077c-3.213 8.828-11.685 14.761-21.08 14.761h-73.484v-23.458h72.766l16.386-45.021c6.662-18.303 32.595-18.341 39.27 0l29.461 80.944 22.028-60.522c6.662-18.303 32.595-18.341 39.27 0l8.954 24.599h178.598v23.458h-179.316c-9.396 0-17.867-5.932-21.08-14.761l-6.791-18.655-22.028 60.522c-6.662 18.304-32.594 18.343-39.27 0z" fill="#12c7aa"/></g></svg>