<svg id="Capa_1" enable-background="new 0 0 502 502" height="512" viewBox="0 0 502 502" width="512" xmlns="http://www.w3.org/2000/svg" xmlns:xlink="http://www.w3.org/1999/xlink"><linearGradient id="lg1"><stop offset="0" stop-color="#d4dbdb"/><stop offset="1" stop-color="#f3f3f3"/></linearGradient><linearGradient id="SVGID_1_" gradientUnits="userSpaceOnUse" x1="282.032" x2="282.032" xlink:href="#lg1" y1="243.391" y2="126.945"/><linearGradient id="lg2"><stop offset="0" stop-color="#4e5660"/><stop offset="1" stop-color="#64768d"/></linearGradient><linearGradient id="SVGID_2_" gradientUnits="userSpaceOnUse" x1="197.1" x2="197.1" xlink:href="#lg2" y1="67.856" y2="2.437"/><linearGradient id="SVGID_3_" gradientUnits="userSpaceOnUse" x1="94.926" x2="363.412" y1="278.032" y2="278.032"><stop offset="0" stop-color="#5bd9bb"/><stop offset=".2532" stop-color="#60dabd"/><stop offset=".5725" stop-color="#70dec4"/><stop offset=".9261" stop-color="#8ae4cf"/><stop offset="1" stop-color="#90e6d2"/></linearGradient><linearGradient id="SVGID_4_" gradientUnits="userSpaceOnUse" x1="197.1" x2="197.1" y1="314.931" y2="229.97"><stop offset="0" stop-color="#f9edaf"/><stop offset="1" stop-color="#fffcdd"/></linearGradient><linearGradient id="SVGID_5_" gradientUnits="userSpaceOnUse" x1="197.1" x2="197.1" y1="414.295" y2="514.164"><stop offset="0" stop-color="#41c4a6"/><stop offset=".216" stop-color="#46c6a9"/><stop offset=".4884" stop-color="#56cdb2"/><stop offset=".7898" stop-color="#70d7c0"/><stop offset="1" stop-color="#86e0cd"/></linearGradient><linearGradient id="lg3"><stop offset="0" stop-color="#53aae6"/><stop offset="1" stop-color="#a4d2f0"/></linearGradient><linearGradient id="SVGID_6_" gradientUnits="userSpaceOnUse" x1="336.698" x2="336.698" xlink:href="#lg3" y1="414.224" y2="186.558"/><linearGradient id="SVGID_7_" gradientUnits="userSpaceOnUse" x1="336.698" x2="336.698" y1="395.475" y2="248.164"><stop offset="0" stop-color="#9fd8e6"/><stop offset="1" stop-color="#c4e8f0"/></linearGradient><linearGradient id="SVGID_8_" gradientUnits="userSpaceOnUse" x1="336.698" x2="336.698" xlink:href="#lg1" y1="462.117" y2="356.76"/><linearGradient id="SVGID_9_" gradientUnits="userSpaceOnUse" x1="336.698" x2="336.698" xlink:href="#lg3" y1="364.937" y2="277.446"/><linearGradient id="SVGID_10_" gradientUnits="userSpaceOnUse" x1="197.1" x2="197.1" y1="197.432" y2="75.177"><stop offset="0" stop-color="#c5cccc"/><stop offset="1" stop-color="#e6e6e6"/></linearGradient><linearGradient id="SVGID_11_" gradientUnits="userSpaceOnUse" x1="197.1" x2="197.1" xlink:href="#lg2" y1="147.774" y2="98.621"/><g><path d="m363.805 292.329h-163.546v-195.072h60.081c57.142 0 103.465 46.323 103.465 103.465z" fill="url(#SVGID_1_)"/><path d="m267.148 0h-140.097c-16.948 0-30.687 13.739-30.687 30.687v10.528c0 16.948 13.739 30.687 30.687 30.687h140.098c16.948 0 30.687-13.739 30.687-30.687v-10.528c0-16.948-13.739-30.687-30.688-30.687z" fill="url(#SVGID_2_)"/><path d="m322.431 403.172-125.331 25.325-125.332-25.325v-177.04c0-54.436 44.129-98.565 98.564-98.565h53.535c54.436 0 98.565 44.129 98.565 98.565v177.04z" fill="url(#SVGID_3_)"/><path d="m214.668 361.445c3.839 22.003 14.926 41.794 32.166 57.002l42.285-8.544c-25.513-10.879-40.864-30.732-44.889-53.648-1.257-7.157-7.497-12.36-14.763-12.36-9.304 0-16.398 8.385-14.799 17.55z" fill="#12c7aa"/><path d="m248.096 230.646h-101.993c-10.392 0-18.817 8.425-18.817 18.817v33.377c0 10.392 8.425 18.817 18.817 18.817h101.993c10.393 0 18.817-8.425 18.817-18.817v-33.377c0-10.392-8.425-18.817-18.817-18.817z" fill="url(#SVGID_4_)"/><path d="m71.768 403.172v50.411c0 26.74 21.677 48.417 48.417 48.417h153.83c26.74 0 48.417-21.677 48.417-48.417v-50.411z" fill="url(#SVGID_5_)"/><path d="m279.59 438.423v2.477c0 20.389 12.129 37.987 29.544 45.992 8.235-8.68 13.297-20.4 13.297-33.309v-50.411h-89.702c11.544 15.349 27.646 27.491 46.861 35.251z" fill="#00b094"/><path d="m336.698 418.767c-60.503 0-93.535-34.55-93.535-74.872 0-40.765 35.851-122.998 93.535-122.998 57.301 0 93.534 81.726 93.534 122.998 0 40.251-32.996 74.872-93.534 74.872z" fill="url(#SVGID_6_)"/><path d="m399.396 343.894c0 29.089-28.071 44.037-62.699 44.037s-62.699-14.947-62.699-44.037c0-29.089 28.071-92.162 62.699-92.162s62.699 63.073 62.699 92.162z" fill="url(#SVGID_7_)"/><path d="m363.805 348.896h-54.215v92.004c0 11.376 9.223 20.599 20.599 20.599h13.017c11.376 0 20.599-9.223 20.599-20.599z" fill="url(#SVGID_8_)"/><path d="m341.148 298.435h-8.9c-16.328 0-29.564 13.236-29.564 29.564v28.9c0 5.282 4.282 9.564 9.565 9.564h48.9c5.282 0 9.564-4.282 9.564-9.564v-28.9c-.001-16.328-13.237-29.564-29.565-29.564z" fill="url(#SVGID_9_)"/><circle cx="197.1" cy="121.217" fill="url(#SVGID_10_)" r="74.089"/><circle cx="197.1" cy="121.217" fill="url(#SVGID_11_)" r="27.162"/><g fill="#fff"><path d="m147.027 145.539c-5.131 0-9.807-3.459-11.134-8.659-1.092-4.278-1.735-8.697-1.91-13.133-.251-6.346 4.691-11.694 11.037-11.945 6.324-.243 11.695 4.69 11.945 11.037.111 2.827.52 5.637 1.213 8.354 1.571 6.154-2.145 12.416-8.299 13.986-.953.243-1.91.36-2.852.36z"/><path d="m162.117 94.698c-3.103 0-6.196-1.248-8.463-3.711-4.302-4.672-4.002-11.948.671-16.25 11.688-10.76 26.878-16.686 42.774-16.686 2.606 0 5.229.161 7.797.478 6.304.778 10.783 6.519 10.005 12.822-.777 6.304-6.523 10.783-12.822 10.005-1.638-.202-3.313-.305-4.981-.305-10.108 0-19.767 3.767-27.196 10.607-2.208 2.034-5.001 3.04-7.785 3.04z"/></g></g></svg>