<svg id="Capa_1" enable-background="new 0 0 502 502" height="512" viewBox="0 0 502 502" width="512" xmlns="http://www.w3.org/2000/svg" xmlns:xlink="http://www.w3.org/1999/xlink"><linearGradient id="lg1"><stop offset="0" stop-color="#c5cccc"/><stop offset="1" stop-color="#e6e6e6"/></linearGradient><linearGradient id="SVGID_1_" gradientUnits="userSpaceOnUse" x1="193.426" x2="193.426" xlink:href="#lg1" y1="112.025" y2="5.454"/><linearGradient id="SVGID_2_" gradientUnits="userSpaceOnUse" x1="0" x2="386.852" y1="251.499" y2="251.499"><stop offset="0" stop-color="#d4dbdb"/><stop offset="1" stop-color="#f3f3f3"/></linearGradient><linearGradient id="lg2"><stop offset="0" stop-color="#4e5660"/><stop offset="1" stop-color="#64768d"/></linearGradient><linearGradient id="SVGID_3_" gradientUnits="userSpaceOnUse" x1="193.426" x2="193.426" xlink:href="#lg2" y1="345.563" y2="144.14"/><linearGradient id="SVGID_4_" gradientTransform="matrix(-1 0 0 1 617.38 0)" gradientUnits="userSpaceOnUse" x1="176.386" x2="176.386" xlink:href="#lg2" y1="426.378" y2="214.388"/><linearGradient id="SVGID_5_" gradientUnits="userSpaceOnUse" x1="372.178" x2="372.178" xlink:href="#lg1" y1="418.304" y2="177.446"/><linearGradient id="SVGID_6_" gradientUnits="userSpaceOnUse" x1="244.146" x2="244.146" y1="316.776" y2="189.621"><stop offset="0" stop-color="#f4d952"/><stop offset="1" stop-color="#f9edaf"/></linearGradient><g><path d="m426.853 496.208h-255.61c-22.723 0-41.209-18.486-41.209-41.208v-60.381c0-6.351 5.149-11.5 11.5-11.5s11.5 5.149 11.5 11.5v60.381c0 10.04 8.168 18.208 18.209 18.208h255.61c10.04 0 18.209-8.168 18.209-18.208v-46.792c0-6.351 5.148-11.5 11.5-11.5s11.5 5.149 11.5 11.5v46.792c.001 22.722-18.486 41.208-41.209 41.208z" fill="#c2c8cf"/><path d="m121.269 136.326-57.023-15.757 17.405-62.985c8.427-30.494 36.409-51.792 68.046-51.792h87.459c31.637 0 59.618 21.298 68.046 51.792l17.404 62.985-57.023 15.757-17.405-62.985c-1.365-4.939-5.898-8.389-11.022-8.389h-87.459c-5.125 0-9.658 3.45-11.023 8.39z" fill="url(#SVGID_1_)"/><path d="m0 333.513v-164.028c0-33.747 27.358-61.105 61.105-61.105h264.642c33.747 0 61.105 27.358 61.105 61.105v164.028c0 33.748-27.358 61.105-61.105 61.105h-264.642c-33.747.001-61.105-27.357-61.105-61.105z" fill="url(#SVGID_2_)"/><path d="m295.814 326.699v67.919h29.933c33.748 0 61.105-27.358 61.105-61.105v-6.814z" fill="#c2c8cf"/><path d="m328.286 149.792h-269.72c-9.474 0-17.154 7.68-17.154 17.154v115.722l8.192 11.5-8.192 11.5v30.384c0 9.474 7.68 17.154 17.154 17.154h269.719c9.474 0 17.154-7.68 17.154-17.154v-169.106c.001-9.474-7.68-17.154-17.153-17.154z" fill="url(#SVGID_3_)"/><path d="m295.814 252.564v100.642h32.472c.861 0 1.701-.084 2.528-.207v-100.435c0-9.665-7.835-17.5-17.5-17.5-9.666 0-17.5 7.835-17.5 17.5z" fill="#424e5e"/><path d="m154.33 328.761c-.001 0-.001 0 0 0-8.336 0-15.564-5.062-18.415-12.895l-17.153-47.128-8.802 24.184c-2.775 7.624-10.09 12.747-18.204 12.747h-50.343v-23h47.803l11.131-30.584c2.851-7.833 10.08-12.894 18.414-12.894 8.336 0 15.564 5.061 18.415 12.894l17.153 47.129 1.382-3.798c2.775-7.624 10.091-12.746 18.204-12.746h171.525v23h-168.984l-3.712 10.199c-2.851 7.831-10.079 12.892-18.414 12.892z" fill="#12c7aa"/><path d="m385.894 426.378h58.816c31.59 0 57.29-25.7 57.29-57.29v-76.138c0-29.536-19.976-55.313-48.579-62.683l-61.622-15.88-11.811 45.831 61.623 15.88c7.69 1.982 13.06 8.911 13.06 16.852v76.137c0 5.493-4.468 9.962-9.961 9.962h-58.816z" fill="url(#SVGID_4_)"/><path d="m358.328 207.55h27.701c15.196 0 27.514 12.319 27.514 27.514v169.889c0 15.196-12.319 27.514-27.514 27.514h-27.701c-15.196 0-27.514-12.319-27.514-27.514v-169.889c0-15.195 12.318-27.514 27.514-27.514z" fill="url(#SVGID_5_)"/><path d="m271.555 244.838h-13.383c-1.36 0-2.463-1.103-2.463-2.463v-42.307c0-6.757-8.946-9.154-12.324-3.302l-33.878 58.678c-3.213 5.565.803 12.521 7.229 12.521h13.383c1.36 0 2.463 1.103 2.463 2.463v42.307c0 6.757 8.945 9.154 12.324 3.302l33.878-58.678c3.213-5.565-.803-12.521-7.229-12.521z" fill="url(#SVGID_6_)"/><g fill="#8196ab"><path d="m70.368 260.75c-6.351 0-11.5-5.149-11.5-11.5v-3.937c0-6.351 5.149-11.5 11.5-11.5s11.5 5.149 11.5 11.5v3.937c0 6.351-5.149 11.5-11.5 11.5z"/><path d="m70.368 212.669c-6.351 0-11.5-5.149-11.5-11.5v-28.552c0-6.351 5.149-11.5 11.5-11.5s11.5 5.149 11.5 11.5v28.552c0 6.351-5.149 11.5-11.5 11.5z"/></g></g></svg>