<svg id="Capa_1" enable-background="new 0 0 502 502" height="512" viewBox="0 0 502 502" width="512" xmlns="http://www.w3.org/2000/svg" xmlns:xlink="http://www.w3.org/1999/xlink"><linearGradient id="lg1"><stop offset="0" stop-color="#d4dbdb"/><stop offset="1" stop-color="#f3f3f3"/></linearGradient><linearGradient id="SVGID_1_" gradientUnits="userSpaceOnUse" x1="135.741" x2="135.741" xlink:href="#lg1" y1="126.893" y2="7.855"/><linearGradient id="SVGID_2_" gradientUnits="userSpaceOnUse" x1="135.741" x2="135.741" y1="203.703" y2="122.641"><stop offset="0" stop-color="#4e5660"/><stop offset="1" stop-color="#64768d"/></linearGradient><linearGradient id="SVGID_3_" gradientTransform="matrix(1 0 0 2.084 0 -19.287)" gradientUnits="userSpaceOnUse" x1="135.741" x2="135.741" y1="239.25" y2="106.863"><stop offset="0" stop-color="#5bd9bb"/><stop offset=".2532" stop-color="#60dabd"/><stop offset=".5725" stop-color="#70dec4"/><stop offset=".9261" stop-color="#8ae4cf"/><stop offset="1" stop-color="#90e6d2"/></linearGradient><linearGradient id="SVGID_4_" gradientUnits="userSpaceOnUse" x1="195.018" x2="353.191" y1="68.454" y2="68.454"><stop offset="0" stop-color="#c5cccc"/><stop offset="1" stop-color="#e6e6e6"/></linearGradient><linearGradient id="SVGID_5_" gradientUnits="userSpaceOnUse" x1="344.624" x2="440.033" xlink:href="#lg1" y1="68.454" y2="68.454"/><linearGradient id="SVGID_6_" gradientUnits="userSpaceOnUse" x1="135.742" x2="135.742" y1="448.647" y2="357.526"><stop offset="0" stop-color="#f9edaf"/><stop offset="1" stop-color="#fffcdd"/></linearGradient><g><path d="m210.708 136.908h-149.933v-108.686c0-15.587 12.635-28.222 28.221-28.222h93.491c15.586 0 28.222 12.635 28.222 28.222v108.686z" fill="url(#SVGID_1_)"/><path d="m212.77 136.908h-154.057c-10.757 0-19.477 8.72-19.477 19.477v60.172h193.011v-60.172c0-10.756-8.72-19.477-19.477-19.477z" fill="url(#SVGID_2_)"/><path d="m225.163 502h-178.844c-22.652 0-41.015-18.363-41.015-41.015v-193.011c0-42.23 34.235-76.465 76.465-76.465h107.944c42.23 0 76.465 34.234 76.465 76.465v193.011c0 22.652-18.363 41.015-41.015 41.015z" fill="url(#SVGID_3_)"/><path d="m210.708 45.383h138.003v46.141h-138.003z" fill="url(#SVGID_4_)"/><path d="m348.711 45.383 25.807-10.589c3.562-1.461 7.375-2.213 11.225-2.213h22.013c6.874 0 12.447 5.572 12.447 12.447v46.852c0 6.874-5.573 12.447-12.447 12.447h-22.013c-3.85 0-7.663-.752-11.225-2.213l-25.807-10.589z" fill="url(#SVGID_5_)"/><g fill="#c9f5ee"><path d="m457.789 30.492c-3.905-3.905-3.905-10.237 0-14.143l12.134-12.134c3.906-3.905 10.236-3.905 14.143 0 3.905 3.905 3.905 10.237 0 14.143l-12.134 12.134c-3.906 3.905-10.237 3.905-14.143 0z"/><path d="m469.923 132.692-12.134-12.134c-3.905-3.905-3.905-10.237 0-14.142 3.907-3.904 10.237-3.905 14.143 0l12.134 12.134c3.905 3.905 3.905 10.237 0 14.142-3.907 3.905-10.237 3.907-14.143 0z"/><path d="m486.695 78.454h-15.768c-5.522 0-10-4.477-10-10s4.478-10 10-10h15.768c5.522 0 10 4.477 10 10s-4.477 10-10 10z"/></g><g><ellipse cx="47.856" cy="300.339" fill="#efc5db" rx="14.936" ry="12.003"/><ellipse cx="223.627" cy="300.339" fill="#efc5db" rx="14.936" ry="12.003"/><circle cx="73.463" cy="270.721" fill="#fff" r="29.618"/><ellipse cx="85.428" cy="270.721" fill="#3b3b44" rx="17.652" ry="17.652" transform="matrix(.23 -.973 .973 .23 -197.678 291.665)"/><circle cx="198.02" cy="270.721" fill="#fff" r="29.618"/><g fill="#3b3b44"><ellipse cx="209.923" cy="270.721" rx="17.652" ry="17.652" transform="matrix(.707 -.707 .707 .707 -129.943 227.731)"/><ellipse cx="135.741" cy="293.173" rx="13.252" ry="17.352"/></g></g><path d="m190.13 346.755h-108.777c-10.932 0-19.793 8.862-19.793 19.793v57.64c0 10.931 8.862 19.793 19.793 19.793h108.777c10.932 0 19.793-8.862 19.793-19.793v-57.64c0-10.932-8.861-19.793-19.793-19.793z" fill="url(#SVGID_6_)"/><path d="m95.774 101.908v-47.775c0-9.665-7.835-17.5-17.5-17.5-9.665 0-17.5 7.835-17.5 17.5v82.775h149.934v-35z" fill="#c4cad1"/><g fill="#c9f5ee"><path d="m234.178 416.139c-5.522 0-10-4.477-10-10v-33.109c0-5.523 4.478-10 10-10s10 4.477 10 10v33.109c0 5.523-4.478 10-10 10z"/><path d="m234.178 462.338c-5.522 0-10-4.477-10-10v-5.634c0-5.523 4.478-10 10-10s10 4.477 10 10v5.634c0 5.523-4.478 10-10 10z"/></g><path d="m156.463 406.868h-41.443c-6.352 0-11.5-5.149-11.5-11.5s5.148-11.5 11.5-11.5h41.443c6.352 0 11.5 5.149 11.5 11.5s-5.149 11.5-11.5 11.5z" fill="#f5c98d"/></g></svg>