<svg id="Capa_1" enable-background="new 0 0 502 502" height="512" viewBox="0 0 502 502" width="512" xmlns="http://www.w3.org/2000/svg" xmlns:xlink="http://www.w3.org/1999/xlink"><linearGradient id="SVGID_1_" gradientUnits="userSpaceOnUse" x1="151.15" x2="27.123" y1="294.221" y2="294.221"><stop offset="0" stop-color="#dd5c6e"/><stop offset="1" stop-color="#ec8290"/></linearGradient><linearGradient id="lg1"><stop offset="0" stop-color="#d4dbdb"/><stop offset="1" stop-color="#f3f3f3"/></linearGradient><linearGradient id="SVGID_2_" gradientUnits="userSpaceOnUse" x1="304.002" x2="304.002" xlink:href="#lg1" y1="465.095" y2="36.564"/><linearGradient id="SVGID_3_" gradientUnits="userSpaceOnUse" x1="268.075" x2="268.075" y1="266.068" y2="37.785"><stop offset="0" stop-color="#ec6f80"/><stop offset="1" stop-color="#eca0aa"/></linearGradient><linearGradient id="SVGID_4_" gradientUnits="userSpaceOnUse" x1="380.601" x2="380.601" xlink:href="#lg1" y1="472.766" y2="316.254"/><g><path d="m170.829 285.57c-37.854 19.751-73.606 38.407-101.279 66.08-12.869 12.867-33.731 12.871-46.604-.001-12.868-12.869-12.868-33.733 0-46.603 34.823-34.822 76.8-56.725 117.394-77.907z" fill="url(#SVGID_1_)"/><path d="m69.115 332.605c5.307 5.751 14.121 6.441 20.296 1.635 24.025-18.701 52.084-33.363 81.419-48.67l-30.49-58.43c-14.778 7.711-29.738 15.521-44.471 24.012 3.715 11.311 8.94 22.227 15.569 32.454-14.194 8.26-27.813 17.05-40.611 27.037-6.892 5.379-7.641 15.538-1.712 21.962z" fill="#d45566"/><path d="m141.533 154.829c-33.424 33.424-28.616 92.423 10.739 131.778 55.681 55.681 96.27 37.543 224.654 165.927 47.47 47.47 80.482 61.014 101.905 39.592 21.422-21.423 7.879-54.434-39.592-101.905-128.384-128.383-110.246-168.972-165.927-224.653-39.355-39.355-98.354-44.163-131.779-10.739zm110.326 110.325c-18.324 18.324-50.669 15.688-72.245-5.888s-24.211-53.921-5.887-72.245 50.669-15.688 72.244 5.888 24.211 53.921 5.888 72.245z" fill="url(#SVGID_2_)"/><path d="m347.264.49c-17.94-3.109-34.989 8.913-38.095 26.845-19.345 111.674-77.64 151.303-147.585 188.635-.537 14.846 5.592 30.859 18.03 43.296 5.299 5.299 11.251 9.449 17.482 12.434 75.344-40.7 152.989-94.428 177.013-233.116 3.106-17.933-8.914-34.988-26.845-38.094z" fill="url(#SVGID_3_)"/><path d="m348.932 425.524c8.849 8.213 18.162 17.178 27.994 27.01 12.82 12.82 24.576 23.143 35.344 30.993v-121.255c-29.284-31.548-48.901-57.136-63.338-78.864z" fill="url(#SVGID_4_)"/><g fill="#fff"><path d="m462.798 473.628c-4.339 0-8.335-2.846-9.602-7.223-1.199-4.146-5.227-13.523-18.722-29.747-3.531-4.246-2.952-10.551 1.294-14.083 4.245-3.533 10.55-2.953 14.083 1.293 12.065 14.506 19.655 26.947 22.558 36.978 1.534 5.305-1.522 10.85-6.827 12.385-.928.27-1.864.397-2.784.397z"/><path d="m414.21 410.482c-2.589 0-5.175-.999-7.133-2.99-1.782-1.814-3.535-3.61-5.261-5.389-3.845-3.965-3.748-10.295.217-14.141 3.964-3.844 10.296-3.748 14.141.217 1.694 1.747 3.416 3.512 5.167 5.293 3.871 3.939 3.816 10.27-.122 14.142-1.948 1.914-4.48 2.868-7.009 2.868z"/></g></g></svg>