<svg id="Capa_1" enable-background="new 0 0 502 502" height="512" viewBox="0 0 502 502" width="512" xmlns="http://www.w3.org/2000/svg" xmlns:xlink="http://www.w3.org/1999/xlink"><linearGradient id="lg1"><stop offset="0" stop-color="#4e5660"/><stop offset="1" stop-color="#64768d"/></linearGradient><linearGradient id="SVGID_1_" gradientUnits="userSpaceOnUse" x1="105.169" x2="105.169" xlink:href="#lg1" y1="449.993" y2="503.667"/><linearGradient id="SVGID_2_" gradientUnits="userSpaceOnUse" x1="263.798" x2="263.798" xlink:href="#lg1" y1="449.993" y2="503.667"/><linearGradient id="SVGID_3_" gradientUnits="userSpaceOnUse" x1="94.18" x2="350.726" xlink:href="#lg1" y1="203.504" y2="203.504"/><linearGradient id="SVGID_4_" gradientUnits="userSpaceOnUse" x1="320.633" x2="320.633" y1="335.891" y2="37.379"><stop offset="0" stop-color="#d4dbdb"/><stop offset="1" stop-color="#f3f3f3"/></linearGradient><linearGradient id="SVGID_5_" gradientUnits="userSpaceOnUse" x1="320.633" x2="320.633" y1="274.228" y2="131.739"><stop offset="0" stop-color="#53aae6"/><stop offset="1" stop-color="#a4d2f0"/></linearGradient><linearGradient id="SVGID_6_" gradientTransform="matrix(0 1 -1 0 667.235 -92.531)" gradientUnits="userSpaceOnUse" x1="508.665" x2="508.665" y1="601.833" y2="343.98"><stop offset="0" stop-color="#5bd9bb"/><stop offset=".2532" stop-color="#60dabd"/><stop offset=".5725" stop-color="#70dec4"/><stop offset=".9261" stop-color="#8ae4cf"/><stop offset="1" stop-color="#90e6d2"/></linearGradient><g><circle cx="105.169" cy="467.412" fill="url(#SVGID_1_)" r="34.588"/><circle cx="263.798" cy="467.412" fill="url(#SVGID_2_)" r="34.588"/><path d="m344.482 45.743h-125.153v-24.087c0-11.96-9.696-21.656-21.657-21.656h-26.365c-11.96 0-21.656 9.696-21.656 21.656v385.352h69.678v-292.251h125.153z" fill="url(#SVGID_3_)"/><path d="m179.651 357.21v-46.766c0-8.284-6.716-15-15-15-8.284 0-15 6.716-15 15v96.565h69.678v-49.799z" fill="#3d4857"/><path d="m385.608 76.755h-25.04c-2.714 0-4.557-2.731-3.564-5.257 1.914-4.867 2.881-10.209 2.665-15.805-.766-19.783-16.582-36.103-36.335-37.431-22.797-1.533-41.766 16.506-41.766 38.974 0 5.039.959 9.852 2.699 14.273.992 2.521-.858 5.246-3.568 5.246h-25.04c-29.479 0-53.377 23.897-53.377 53.377v129.949c0 25.265 17.557 46.419 41.134 51.953 2.806.659 4.793 3.153 4.793 6.035v10.206c0 7.921 6.421 14.342 14.342 14.342h21.773c7.921 0 14.342-6.421 14.342-14.342v-8.611c0-3.428 2.779-6.206 6.206-6.206h31.522c3.428 0 6.206 2.779 6.206 6.206v8.611c0 7.921 6.421 14.342 14.342 14.342h21.773c7.921 0 14.342-6.421 14.342-14.342v-10.206c0-2.882 1.987-5.377 4.793-6.035 23.577-5.534 41.134-26.688 41.134-51.953v-129.949c.001-29.48-23.897-53.377-53.376-53.377z" fill="url(#SVGID_4_)"/><path d="m240.192 156.582v103.499c0 8.542 6.924 15.466 15.466 15.466h129.95c8.542 0 15.466-6.924 15.466-15.466v-97.635c0-5.361-5.025-9.215-10.242-7.978-39.541 9.374-84.032-22.805-140.705-10.193-5.786 1.287-9.935 6.379-9.935 12.307z" fill="url(#SVGID_5_)"/><path d="m305.167 420.487-1.768-6.04c-4.727-16.144-19.533-27.238-36.355-27.238h-165.12c-16.822 0-31.629 11.093-36.355 27.238l-1.768 6.04c-3.595 12.281 5.613 24.573 18.41 24.573h204.547c12.796 0 22.005-12.292 18.409-24.573z" fill="url(#SVGID_6_)"/><g><ellipse cx="232.748" cy="235.506" fill="#eaadcd" rx="14.936" ry="12.003"/><ellipse cx="408.519" cy="235.506" fill="#eaadcd" rx="14.936" ry="12.003"/><ellipse cx="258.355" cy="205.888" fill="#fff" rx="29.618" ry="29.618" transform="matrix(.383 -.924 .924 .383 -30.729 365.787)"/><ellipse cx="382.912" cy="205.888" fill="#fff" rx="29.618" ry="29.618" transform="matrix(.509 -.861 .861 .509 10.799 430.707)"/><g fill="#3b3b44"><g><ellipse cx="258.355" cy="205.888" rx="17.652" ry="17.652" transform="matrix(.189 -.982 .982 .189 7.324 420.646)"/><ellipse cx="382.912" cy="205.888" rx="17.652" ry="17.652" transform="matrix(.29 -.957 .957 .29 74.896 512.707)"/></g><path d="m320.633 236.448c-5.248 0-10.495-1.984-14.776-5.954-2.025-1.877-2.145-5.041-.267-7.065 1.878-2.025 5.042-2.145 7.066-.267 4.697 4.354 11.257 4.354 15.954 0 2.024-1.877 5.188-1.759 7.066.267 1.877 2.024 1.758 5.189-.267 7.065-4.281 3.97-9.528 5.954-14.776 5.954z"/></g></g><circle cx="320.633" cy="57.237" fill="#c2c8cf" r="14.425"/><g fill="#fff"><path d="m413.774 138.283c-5.749 0-10.716-4.304-11.407-10.153-.226-1.911-.775-3.754-1.633-5.478-2.831-5.687-.516-12.59 5.17-15.42 5.685-2.83 12.59-.516 15.419 5.17 2.041 4.101 3.348 8.485 3.885 13.032.744 6.308-3.766 12.024-10.073 12.768-.457.055-.911.081-1.361.081z"/><path d="m370.702 113.255h-39.947c-6.351 0-11.5-5.148-11.5-11.5s5.149-11.5 11.5-11.5h39.947c6.351 0 11.5 5.148 11.5 11.5 0 6.351-5.149 11.5-11.5 11.5z"/></g></g></svg>