<svg id="Capa_1" enable-background="new 0 0 502 502" height="512" viewBox="0 0 502 502" width="512" xmlns="http://www.w3.org/2000/svg" xmlns:xlink="http://www.w3.org/1999/xlink"><linearGradient id="lg1"><stop offset="0" stop-color="#dd5c6e"/><stop offset="1" stop-color="#ec8290"/></linearGradient><linearGradient id="SVGID_1_" gradientUnits="userSpaceOnUse" x1="86.533" x2="86.533" xlink:href="#lg1" y1="183.122" y2="74.733"/><linearGradient id="SVGID_2_" gradientUnits="userSpaceOnUse" x1="251" x2="251" xlink:href="#lg1" y1="498.771" y2="390.382"/><linearGradient id="SVGID_3_" gradientTransform="matrix(-1 0 0 1 702 0)" gradientUnits="userSpaceOnUse" x1="286.533" x2="286.533" xlink:href="#lg1" y1="183.122" y2="74.733"/><linearGradient id="SVGID_4_" gradientUnits="userSpaceOnUse" x1="251" x2="251" y1="483.254" y2="64.951"><stop offset="0" stop-color="#f4d952"/><stop offset="1" stop-color="#f9edaf"/></linearGradient><linearGradient id="lg2"><stop offset="0" stop-color="#ec6f80"/><stop offset="1" stop-color="#eca0aa"/></linearGradient><linearGradient id="SVGID_5_" gradientUnits="userSpaceOnUse" x1="251" x2="251" xlink:href="#lg2" y1="114.358" y2="-.333"/><linearGradient id="SVGID_6_" gradientUnits="userSpaceOnUse" x1="102.764" x2="102.764" xlink:href="#lg2" y1="405.209" y2="284.737"/><linearGradient id="SVGID_7_" gradientUnits="userSpaceOnUse" x1="399.237" x2="399.237" xlink:href="#lg2" y1="405.209" y2="284.737"/><g><path d="m131.051 114.781c-3.802-2.047-6.27-5.83-6.563-10.138-1.337-19.64-17.731-35.383-37.954-35.383-20.235 0-36.616 15.752-37.954 35.383-.294 4.308-2.761 8.092-6.564 10.138-12.855 6.919-21.274 21.015-19.892 36.925 1.583 18.227 16.345 32.954 34.575 34.503 8.705.74 16.86-1.458 23.591-5.708 3.798-2.398 8.689-2.398 12.488 0 6.731 4.25 14.885 6.448 23.59 5.708 18.23-1.549 32.992-16.276 34.575-34.503 1.382-15.91-7.037-30.006-19.892-36.925z" fill="url(#SVGID_1_)"/><path d="m295.517 430.431c-3.802-2.047-6.27-5.83-6.564-10.138-1.337-19.64-17.731-35.383-37.954-35.383-20.235 0-36.616 15.752-37.954 35.383-.294 4.308-2.761 8.092-6.564 10.138-12.855 6.919-21.274 21.015-19.892 36.925 1.583 18.227 16.345 32.953 34.575 34.503 8.705.74 16.859-1.458 23.591-5.708 3.798-2.398 8.689-2.398 12.488 0 6.731 4.25 14.885 6.448 23.59 5.708 18.23-1.549 32.992-16.276 34.575-34.503 1.384-15.911-7.036-30.006-19.891-36.925z" fill="url(#SVGID_2_)"/><path d="m370.949 114.781c3.802-2.047 6.27-5.83 6.564-10.138 1.337-19.64 17.731-35.383 37.954-35.383 20.235 0 36.616 15.752 37.954 35.383.294 4.308 2.761 8.092 6.564 10.138 12.855 6.919 21.274 21.015 19.892 36.925-1.583 18.227-16.345 32.954-34.575 34.503-8.705.74-16.86-1.458-23.591-5.708-3.798-2.398-8.689-2.398-12.488 0-6.731 4.25-14.885 6.448-23.59 5.708-18.23-1.549-32.992-16.276-34.575-34.503-1.383-15.91 7.037-30.006 19.891-36.925z" fill="url(#SVGID_3_)"/><path d="m458.901 231.981c9.724-18.225 4.576-40.826-12.081-53.042l-.04-.03c-11.138-8.168-17.486-21.339-16.938-35.14l.004-.1c.82-20.617-13.621-38.71-33.906-42.482l-.06-.011c-13.604-2.53-25.055-11.668-30.538-24.372l-.002-.006c-8.187-18.967-29.07-29.033-49.007-23.623l-.037.01c-13.332 3.618-27.59.369-38.04-8.666l-.09-.078c-15.598-13.487-38.73-13.487-54.328 0l-.09.078c-10.45 9.035-24.708 12.283-38.039 8.666l-.039-.011c-19.937-5.409-40.82 4.657-49.007 23.623l-.003.007c-5.484 12.704-16.934 21.843-30.538 24.372l-.06.011c-20.286 3.772-34.726 21.865-33.906 42.482l.004.099c.549 13.802-5.8 26.973-16.938 35.141l-.039.029c-16.657 12.216-21.805 34.817-12.081 53.042 6.519 12.219 6.519 26.883 0 39.101-9.724 18.225-4.576 40.826 12.081 53.042l.04.03c11.138 8.168 17.486 21.339 16.938 35.141l-.004.1c-.82 20.617 13.621 38.71 33.906 42.482l.06.011c13.604 2.53 25.054 11.668 30.538 24.372l.003.006c8.187 18.967 29.07 29.033 49.007 23.623l.037-.01c13.332-3.617 27.59-.369 38.04 8.666l.09.078c15.598 13.487 38.73 13.487 54.328 0l.09-.078c10.45-9.035 24.707-12.283 38.039-8.666l.039.011c19.937 5.41 40.82-4.657 49.007-23.623l.003-.007c5.484-12.704 16.934-21.843 30.538-24.372l.06-.011c20.286-3.772 34.726-21.865 33.906-42.482l-.004-.099c-.549-13.801 5.8-26.973 16.938-35.141l.039-.028c16.657-12.216 21.805-34.817 12.081-53.042-6.521-12.22-6.521-26.885-.001-39.103z" fill="url(#SVGID_4_)"/><path d="m295.517 45.521c-3.802-2.047-6.27-5.83-6.564-10.138-1.336-19.64-17.73-35.383-37.953-35.383-20.235 0-36.616 15.752-37.954 35.383-.294 4.308-2.761 8.092-6.564 10.138-12.855 6.919-21.274 21.015-19.892 36.925 1.583 18.227 16.345 32.954 34.575 34.503 8.705.74 16.859-1.458 23.591-5.708 3.798-2.398 8.689-2.398 12.488 0 6.731 4.25 14.885 6.448 23.59 5.708 18.23-1.549 32.992-16.276 34.575-34.503 1.383-15.91-7.037-30.006-19.892-36.925z" fill="url(#SVGID_5_)"/><path d="m330.838 316.196c1.798-8.124 5.015-15.707 9.367-22.488 5.34-8.321 16.956-9.715 24.224-3.012 5.631 5.194 6.879 13.712 2.746 20.162-3.338 5.208-5.436 11.272-5.889 17.765-.301 4.312-2.736 8.141-6.544 10.187-12.492 6.712-20.802 20.2-20.012 35.547.951 18.476 15.334 33.786 33.724 35.802 3.219.353 6.365.293 9.399-.116-5.38 4.217-9.722 9.752-12.513 16.218l-.002.006c-2.348 5.439-5.744 10.142-9.858 13.962-12.08-3.08-23.247-9.378-32.211-18.323-11.688-11.662-18.905-27.071-20.322-43.388-2.126-24.478 8.625-47.949 27.891-62.322z" fill="#efc534"/><path d="m147.281 338.822c-3.802-2.047-6.27-5.83-6.563-10.138-1.337-19.64-17.731-35.383-37.954-35.383-20.235 0-36.616 15.752-37.954 35.383-.294 4.308-2.761 8.092-6.564 10.138-12.855 6.919-21.274 21.015-19.892 36.925 1.583 18.227 16.345 32.954 34.575 34.503 8.705.74 16.86-1.458 23.591-5.708 3.798-2.398 8.689-2.398 12.488 0 6.731 4.25 14.885 6.448 23.59 5.708 18.23-1.549 32.992-16.276 34.575-34.503 1.382-15.91-7.037-30.006-19.892-36.925z" fill="url(#SVGID_6_)"/><path d="m354.719 338.822c3.802-2.047 6.27-5.83 6.563-10.138 1.337-19.64 17.731-35.383 37.954-35.383 20.235 0 36.616 15.752 37.954 35.383.293 4.308 2.761 8.092 6.564 10.138 12.855 6.919 21.274 21.015 19.892 36.925-1.583 18.227-16.345 32.954-34.575 34.503-8.705.74-16.86-1.458-23.591-5.708-3.798-2.398-8.689-2.398-12.488 0-6.731 4.25-14.885 6.448-23.59 5.708-18.23-1.549-32.992-16.276-34.575-34.503-1.382-15.91 7.037-30.006 19.892-36.925z" fill="url(#SVGID_7_)"/><g><ellipse cx="163.184" cy="247.063" fill="#eaadcd" rx="14.925" ry="11.994"/><ellipse cx="338.816" cy="247.063" fill="#eaadcd" rx="14.924" ry="11.994"/><ellipse cx="313.229" cy="217.506" fill="#fff" rx="29.557" ry="29.557" transform="matrix(.175 -.985 .985 .175 44.237 487.81)"/><path d="m295.658 218.953c.755 9.046 8.331 16.153 17.572 16.153s16.817-7.108 17.571-16.153z" fill="#3b3b44"/><path d="m313.229 187.949c-16.324 0-29.557 13.233-29.557 29.557 0 .486.014.968.037 1.447h59.04c.023-.48.037-.962.037-1.447 0-16.324-13.233-29.557-29.557-29.557z" fill="#0099cf"/><ellipse cx="188.771" cy="217.506" fill="#fff" rx="29.557" ry="29.557" transform="matrix(.162 -.987 .987 .162 -56.392 368.629)"/><path d="m171.199 218.953c.755 9.046 8.331 16.153 17.572 16.153s16.817-7.108 17.572-16.153z" fill="#3b3b44"/><path d="m188.771 187.949c-16.324 0-29.557 13.233-29.557 29.557 0 .486.014.968.037 1.447h59.04c.023-.48.037-.962.037-1.447 0-16.324-13.233-29.557-29.557-29.557z" fill="#0099cf"/><path d="m262.365 250.511c-1.825 0-3.653-.661-5.097-2-3.749-3.477-8.787-3.477-12.536 0-3.04 2.816-7.783 2.637-10.599-.401-2.816-3.037-2.637-7.782.401-10.599 9.541-8.846 23.392-8.846 32.933 0 3.038 2.816 3.217 7.562.401 10.599-1.478 1.594-3.488 2.401-5.503 2.401z" fill="#3b3b44"/></g><g fill="#efc534"><path d="m232.584 368.373c-6.351 0-11.5-5.148-11.5-11.5 0-9.38-7.632-17.012-17.012-17.012-6.351 0-11.5-5.148-11.5-11.5s5.149-11.5 11.5-11.5c22.063 0 40.012 17.949 40.012 40.012 0 6.352-5.149 11.5-11.5 11.5z"/><path d="m126.883 175.439c-6.351 0-11.5-5.149-11.5-11.5 0-6.352 5.149-11.5 11.5-11.5 9.38 0 17.012-7.632 17.012-17.012 0-6.352 5.149-11.5 11.5-11.5s11.5 5.148 11.5 11.5c.001 22.062-17.949 40.012-40.012 40.012z"/><path d="m413.493 217.389c-22.063 0-40.012-17.949-40.012-40.013 0-6.352 5.149-11.5 11.5-11.5s11.5 5.148 11.5 11.5c0 9.381 7.632 17.013 17.012 17.013 6.351 0 11.5 5.148 11.5 11.5 0 6.351-5.149 11.5-11.5 11.5z"/></g></g></svg>