<svg id="Capa_1" enable-background="new 0 0 502 502" height="512" viewBox="0 0 502 502" width="512" xmlns="http://www.w3.org/2000/svg" xmlns:xlink="http://www.w3.org/1999/xlink"><linearGradient id="SVGID_1_" gradientUnits="userSpaceOnUse" x1="396.743" x2="396.743" y1="376.99" y2="492.208"><stop offset="0" stop-color="#dd5c6e"/><stop offset="1" stop-color="#ec8290"/></linearGradient><linearGradient id="SVGID_2_" gradientUnits="userSpaceOnUse" x1="337.695" x2="337.695" y1="273.328" y2="416.421"><stop offset="0" stop-color="#ec6f80"/><stop offset="1" stop-color="#eca0aa"/></linearGradient><linearGradient id="SVGID_3_" gradientUnits="userSpaceOnUse" x1="251" x2="251" y1="350.254" y2="4.073"><stop offset="0" stop-color="#eca0aa"/><stop offset="1" stop-color="#f8dde3"/></linearGradient><g><path d="m392.456 476.591c-40.766-48.15-59.013-111.68-59.013-153.282 0-21.169 17.161-38.33 38.33-38.33s38.33 17.161 38.33 38.33c0 26.898 14.32 72.401 40.861 103.747 13.678 16.157 11.67 40.343-4.487 54.022-16.156 13.676-40.34 11.672-54.021-4.487z" fill="url(#SVGID_1_)"/><path d="m402.406 440.075c-4.642-6.857-8.85-13.941-12.63-21.128 16.318-3.686 31.237-9.052 44.496-15.991-15.643-27.405-24.008-58.494-24.165-79.06-.16-20.934-16.615-38.491-37.546-38.91-21.529-.431-39.117 16.892-39.117 38.322 0 36.116 13.765 88.752 44.067 133.509 4.744 7.007 14.299 8.779 21.186 3.862 6.621-4.725 8.269-13.868 3.709-20.604z" fill="#d45566"/><path d="m472.353 288.503c1.853 60.231-43.245 100.24-120.921 105.763-79.683 5.666-138.267-36.467-147.985-102.184-7.764-52.501 83.6-96.095 147.985-96.095s119.029 31.04 120.921 92.516z" fill="url(#SVGID_2_)"/><path d="m351.432 195.987c-64.385 0-155.749 43.594-147.985 96.095 3.631 24.551 14.084 45.809 29.907 62.514 5.774-2.642 11.394-5.657 16.81-9.064.478-.301 1.185-.306 1.671 0 59.36 37.336 140.418 27.673 188.446-29.878 11.254-2.571 21.827-6.737 31.522-12.2.516-4.832.707-9.816.549-14.952-1.891-61.475-56.535-92.515-120.92-92.515z" fill="#e06c7b"/><path d="m441.473 116.757c-5.364-1.769-9.613-5.901-11.463-11.237-13.812-39.821-54.462-64.652-96.589-58.147-6.21.959-12.418-1.295-16.598-5.987-16.144-18.12-39.644-29.541-65.823-29.541s-49.679 11.421-65.823 29.542c-4.18 4.692-10.388 6.945-16.599 5.987-42.081-6.493-82.766 18.285-96.589 58.148-1.85 5.336-6.1 9.467-11.463 11.236-35.151 11.594-60.526 44.689-60.526 83.725 0 43.065 30.881 78.904 71.704 86.614 4.247.802 8.082 3.09 10.748 6.492 21.057 26.869 53.803 44.139 90.587 44.139 22.473 0 43.438-6.447 61.152-17.589 10.243-6.443 23.375-6.443 33.618 0 17.714 11.142 38.679 17.589 61.152 17.589 34.601 0 65.625-15.283 86.713-39.46-1.199-13.971 6.824-21.377 19.598-12.28 38.327-9.578 66.728-44.211 66.728-85.505 0-39.036-25.375-72.131-60.527-83.726z" fill="url(#SVGID_3_)"/><g fill="#e88792"><path d="m118.974 261.381c5.44-3.278 7.192-10.346 3.914-15.785s-10.345-7.19-15.785-3.914c-21.005 12.658-33.158 29.805-40.375 44.305 1.643.411 3.298.792 4.976 1.109 4.247.802 8.082 3.09 10.748 6.492 1.25 1.595 2.544 3.153 3.874 4.679 5.676-12.104 15.351-26.462 32.648-36.886z"/><path d="m105.449 144.436c4.654-4.322 4.922-11.599.6-16.252-9.06-9.754-21.469-18.419-33.323-24.64-.246.659-.505 1.311-.736 1.979-1.85 5.336-6.1 9.467-11.463 11.236-2.574.849-5.089 1.827-7.553 2.901 11.226 4.587 26.417 13.621 36.222 24.178 4.323 4.651 11.599 4.921 16.253.598z"/><path d="m435.272 285.987c-7.217-14.5-19.37-31.647-40.376-44.305-5.44-3.276-12.506-1.526-15.785 3.914-3.278 5.439-1.526 12.507 3.914 15.785 17.298 10.424 26.973 24.782 32.649 36.886 1.33-1.525 2.624-3.084 3.874-4.678 2.666-3.402 6.501-5.69 10.748-6.492 1.678-.318 3.333-.699 4.976-1.11z"/><path d="m441.473 116.757c-5.364-1.769-9.613-5.901-11.463-11.237-.231-.667-.49-1.319-.736-1.978-11.853 6.222-24.263 14.886-33.322 24.64-4.322 4.653-4.054 11.93.6 16.252 4.654 4.323 11.932 4.054 16.252-.6 9.806-10.556 24.997-19.591 36.222-24.178-2.464-1.072-4.979-2.049-7.553-2.899z"/></g><g><ellipse cx="163.114" cy="189.702" fill="#ff8392" rx="14.936" ry="12.003"/><ellipse cx="338.886" cy="189.702" fill="#ff8392" rx="14.936" ry="12.003"/><circle cx="188.721" cy="160.084" fill="#fff" r="29.618"/><circle cx="313.279" cy="160.084" fill="#fff" r="29.618"/><g fill="#3b3b44"><g><circle cx="188.721" cy="160.084" r="17.652"/><circle cx="313.279" cy="160.084" r="17.652"/></g><path d="m251 190.644c-5.248 0-10.495-1.984-14.776-5.954-2.025-1.877-2.145-5.041-.267-7.066s5.041-2.143 7.066-.267c4.697 4.353 11.256 4.353 15.954 0 2.023-1.877 5.188-1.759 7.065.267 1.878 2.024 1.759 5.189-.267 7.066-4.28 3.969-9.528 5.954-14.775 5.954z"/></g></g><g fill="#fff5f6"><path d="m307.15 81.524c-1.64 0-3.302-.404-4.837-1.254-5.794-3.21-10.961-7.34-15.358-12.275-4.14-4.647-9.017-8.388-14.494-11.117-4.943-2.463-6.953-8.467-4.49-13.41 2.462-4.944 8.466-6.954 13.41-4.49 7.767 3.87 14.667 9.156 20.508 15.714 2.895 3.249 6.298 5.969 10.116 8.083 4.831 2.677 6.578 8.763 3.902 13.594-1.826 3.295-5.238 5.155-8.757 5.155z"/><path d="m357.694 87.363c-.62 0-1.25-.059-1.883-.179-3.06-.583-6.208-.869-9.302-.843-.026 0-.053 0-.079 0-5.487 0-9.955-4.427-9.998-9.923-.042-5.523 4.4-10.034 9.923-10.077 4.428-.021 8.857.369 13.2 1.196 5.425 1.034 8.985 6.271 7.951 11.695-.912 4.794-5.106 8.131-9.812 8.131z"/></g></g></svg>