<svg id="Capa_1" enable-background="new 0 0 502 502" height="512" viewBox="0 0 502 502" width="512" xmlns="http://www.w3.org/2000/svg" xmlns:xlink="http://www.w3.org/1999/xlink"><linearGradient id="SVGID_1_" gradientUnits="userSpaceOnUse" x1="112.634" x2="112.634" y1="77.464" y2="3.852"><stop offset="0" stop-color="#f4c22c"/><stop offset="1" stop-color="#f9e198"/></linearGradient><linearGradient id="lg1"><stop offset="0" stop-color="#4e5660"/><stop offset="1" stop-color="#64768d"/></linearGradient><linearGradient id="SVGID_2_" gradientUnits="userSpaceOnUse" x1="112.634" x2="112.634" xlink:href="#lg1" y1="135.793" y2="48.175"/><linearGradient id="SVGID_3_" gradientUnits="userSpaceOnUse" x1="1.734" x2="225.646" y1="330.286" y2="330.286"><stop offset="0" stop-color="#9fd8e6"/><stop offset="1" stop-color="#c4e8f0"/></linearGradient><linearGradient id="SVGID_4_" gradientUnits="userSpaceOnUse" x1="-.289" x2="198.889" y1="172.531" y2="172.531"><stop offset="0" stop-color="#6dc8dd"/><stop offset="1" stop-color="#9fd8e6"/></linearGradient><linearGradient id="SVGID_5_" gradientUnits="userSpaceOnUse" x1="235.587" x2="235.587" y1="458.15" y2="287.284"><stop offset="0" stop-color="#53aae6"/><stop offset="1" stop-color="#a4d2f0"/></linearGradient><linearGradient id="SVGID_6_" gradientUnits="userSpaceOnUse" x1="264.316" x2="264.316" xlink:href="#lg1" y1="423.758" y2="324.756"/><linearGradient id="SVGID_7_" gradientUnits="userSpaceOnUse" x1="391.244" x2="391.244" y1="478.326" y2="276.997"><stop offset="0" stop-color="#d4dbdb"/><stop offset="1" stop-color="#f3f3f3"/></linearGradient><g><path d="m204.625 62.005-91.992 17.665-91.991-17.665v-17.071c0-23.565 19.103-42.668 42.668-42.668h98.647c23.565 0 42.669 19.103 42.669 42.668v17.071z" fill="url(#SVGID_1_)"/><path d="m20.642 62.005h183.984v110.721h-183.984z" fill="url(#SVGID_2_)"/><path d="m225.267 220.038-113.662-17.181-111.605 17.181v193.56c0 24.366 19.752 44.118 44.118 44.118h137.032c24.365 0 44.118-19.752 44.118-44.118v-193.56z" fill="url(#SVGID_3_)"/><path d="m177.564 125.024h-129.862c-26.345 0-47.702 21.357-47.702 47.702v47.311h225.267v-47.311c0-26.345-21.357-47.702-47.703-47.702z" fill="url(#SVGID_4_)"/><path d="m315.451 311.706c-49.979 0-109.64 0-159.729 0-24.366 0-44.118 19.752-44.118 44.118v57.775c0 24.366 19.752 44.118 44.118 44.118h159.729c24.366 0 44.118-19.752 44.118-44.118v-57.775c0-24.366-19.752-44.118-44.118-44.118z" fill="url(#SVGID_5_)"/><path d="m250.488 384.71c0 20.388 11.327 38.687 29.561 47.755 14.743 7.332 29.853 15.69 44.155 24.379 20.172-4.061 35.365-21.878 35.365-43.246v-28.888z" fill="#0099cf"/><path d="m222.149 426.514c-11.403 0-20.648-9.244-20.648-20.648v-42.312c0-11.403 9.244-20.648 20.648-20.648h84.334c11.403 0 20.648 9.244 20.648 20.648v42.313c0 11.403-9.244 20.646-20.646 20.646h-84.336z" fill="url(#SVGID_6_)"/><path d="m271.97 366.796c-9.228-4.217-19.995 1.736-21.138 11.818-.227 2.005-.344 4.04-.344 6.096 0 16.608 7.518 31.829 20.162 41.804h35.834c5.764 0 10.971-2.367 14.716-6.176-9.447-5.311-18.807-10.266-27.793-14.735-9.476-4.713-13.734-14.291-12.78-23.382.681-6.489-2.723-12.713-8.657-15.425z" fill="#3d4857"/><path d="m502 384.711c0-16.236-6.735-30.892-17.557-41.348-2.366-2.286-3.548-5.543-3.121-8.806 4.465-34.142-22.181-64.87-57.038-64.87-28.025 0-51.356 20.05-56.46 46.585-.528 2.742-2.037 5.203-4.35 6.769-22.712 15.382-47.558 29.582-70.066 40.776-17.226 8.567-17.226 33.218 0 41.785 22.508 11.194 47.354 25.395 70.066 40.776 2.312 1.566 3.822 4.027 4.349 6.769 5.104 26.536 28.435 46.586 56.46 46.586 34.858 0 61.503-30.73 57.038-64.87-.427-3.263.754-6.52 3.121-8.806 10.823-10.454 17.558-25.11 17.558-41.346z" fill="url(#SVGID_7_)"/><g><ellipse cx="24.748" cy="293.467" fill="#eaadcd" rx="14.936" ry="12.003"/><ellipse cx="200.519" cy="293.467" fill="#eaadcd" rx="14.936" ry="12.003"/><circle cx="50.355" cy="263.85" fill="#fff" r="29.618"/><circle cx="174.912" cy="263.85" fill="#fff" r="29.618"/><g fill="#3b3b44"><g><circle cx="50.355" cy="263.85" r="17.652"/><circle cx="174.912" cy="263.85" r="17.652"/></g><path d="m112.634 294.409c-5.248 0-10.495-1.984-14.776-5.953-2.025-1.878-2.145-5.041-.268-7.066 1.878-2.024 5.043-2.143 7.067-.267 4.697 4.355 11.257 4.354 15.954.001 2.024-1.877 5.188-1.758 7.065.267 1.878 2.025 1.759 5.189-.267 7.066-4.28 3.968-9.528 5.952-14.775 5.952z"/></g></g><g fill="#d2f3f7"><path d="m25 201.662c-5.522 0-10-4.477-10-10v-18.936c0-6.186 1.743-12.215 5.042-17.436 2.95-4.668 9.127-6.063 13.796-3.112 4.669 2.95 6.063 9.127 3.112 13.796-1.276 2.019-1.95 4.354-1.95 6.752v18.936c0 5.523-4.478 10-10 10z"/><path d="m72.933 160.023h-7.075c-5.522 0-10-4.478-10-10s4.478-10 10-10h7.075c5.522 0 10 4.478 10 10 0 5.523-4.478 10-10 10z"/></g></g></svg>