<svg id="Capa_1" enable-background="new 0 0 502 502" height="512" viewBox="0 0 502 502" width="512" xmlns="http://www.w3.org/2000/svg" xmlns:xlink="http://www.w3.org/1999/xlink"><linearGradient id="lg1"><stop offset="0" stop-color="#4e5660"/><stop offset="1" stop-color="#64768d"/></linearGradient><linearGradient id="SVGID_1_" gradientUnits="userSpaceOnUse" x1="373.088" x2="373.088" xlink:href="#lg1" y1="261.061" y2="59.381"/><linearGradient id="SVGID_2_" gradientUnits="userSpaceOnUse" x1="174.04" x2="174.04" y1="349.465" y2="-55.295"><stop offset="0" stop-color="#d4dbdb"/><stop offset="1" stop-color="#f3f3f3"/></linearGradient><linearGradient id="SVGID_3_" gradientUnits="userSpaceOnUse" x1="174.04" x2="174.04" y1="247.667" y2="104.006"><stop offset="0" stop-color="#c5cccc"/><stop offset="1" stop-color="#e6e6e6"/></linearGradient><linearGradient id="SVGID_4_" gradientUnits="userSpaceOnUse" x1="174.04" x2="174.04" y1="308.84" y2="106.857"><stop offset="0" stop-color="#5bd9bb"/><stop offset=".2532" stop-color="#60dabd"/><stop offset=".5725" stop-color="#70dec4"/><stop offset=".9261" stop-color="#8ae4cf"/><stop offset="1" stop-color="#90e6d2"/></linearGradient><linearGradient id="SVGID_5_" gradientUnits="userSpaceOnUse" x1="311.751" x2="519.534" xlink:href="#lg1" y1="369.09" y2="369.09"/><linearGradient id="SVGID_6_" gradientTransform="matrix(0 -1 1 0 -69.513 466.014)" gradientUnits="userSpaceOnUse" x1="-78.76" x2="224.972" xlink:href="#lg1" y1="394.992" y2="394.992"/><linearGradient id="SVGID_7_" gradientUnits="userSpaceOnUse" x1="174.04" x2="174.04" y1="181.342" y2="91.835"><stop offset="0" stop-color="#41c4a6"/><stop offset=".216" stop-color="#46c6a9"/><stop offset=".4884" stop-color="#56cdb2"/><stop offset=".7898" stop-color="#70d7c0"/><stop offset="1" stop-color="#86e0cd"/></linearGradient><linearGradient id="SVGID_8_" gradientUnits="userSpaceOnUse" x1="174.04" x2="174.04" y1="287.513" y2="365.231"><stop offset="0" stop-color="#dd5c6e"/><stop offset="1" stop-color="#ec8290"/></linearGradient><g><path d="m450.195 331.116c-13.043 0-23.616-10.573-23.616-23.616v-164.823c0-14.197-11.55-25.747-25.747-25.747h-104.851c-13.043 0-23.616-10.573-23.616-23.616s10.573-23.616 23.616-23.616h104.851c40.241 0 72.979 32.738 72.979 72.979v164.823c0 13.043-10.573 23.616-23.616 23.616z" fill="url(#SVGID_1_)"/><path d="m0 299.825v-217.061c0-43.575 35.325-78.9 78.899-78.9h190.282c43.575 0 78.9 35.325 78.9 78.899v217.061c0 43.575-35.324 78.9-78.9 78.9h-190.282c-43.574.001-78.899-35.324-78.899-78.899z" fill="url(#SVGID_2_)"/><path d="m0 167.386h348.081v102.301h-348.081z" fill="url(#SVGID_3_)"/><path d="m263.219 313.625h-178.357c-10.915 0-19.763-8.848-19.763-19.763v-205.135c0-10.915 8.848-19.763 19.763-19.763h178.357c10.915 0 19.763 8.848 19.763 19.763v205.136c0 10.914-8.849 19.762-19.763 19.762z" fill="url(#SVGID_4_)"/><path d="m502 459.689c0 13.944-39.856 26.414-113.341 26.414s-113.341-12.47-113.341-26.414v-181.199c0-13.944 39.856-26.414 113.341-26.414s113.341 12.47 113.341 26.414z" fill="url(#SVGID_5_)"/><path d="m388.659 464.599c0 19.399-16.4 34.693-35.76 33.468-40.575-2.567-90.601-11.087-90.601-38.378v-181.199c0-27.289 50.02-35.81 90.6-38.378 19.36-1.225 35.761 14.069 35.761 33.468z" fill="url(#SVGID_6_)"/><path d="m126.25 139.474c1.239-14.012 13.018-24.395 27.082-24.18 6.977.106 13.303 2.884 18.01 7.353 1.506 1.43 3.891 1.43 5.397 0 4.706-4.468 11.032-7.246 18.008-7.353 14.065-.215 25.844 10.167 27.084 24.179 1.882 21.279-19.945 43.596-38.531 54.293-5.729 3.297-12.791 3.297-18.52 0-18.585-10.696-40.411-33.013-38.53-54.292z" fill="url(#SVGID_7_)"/><g fill="#00ba9c"><path d="m136.45 256.676h-17.15c-6.352 0-11.5-5.149-11.5-11.5 0-6.352 5.148-11.5 11.5-11.5h17.15c6.352 0 11.5 5.148 11.5 11.5 0 6.351-5.148 11.5-11.5 11.5z"/><path d="m228.78 256.676h-17.149c-6.352 0-11.5-5.149-11.5-11.5 0-6.352 5.148-11.5 11.5-11.5h17.149c6.352 0 11.5 5.148 11.5 11.5 0 6.351-5.148 11.5-11.5 11.5z"/></g><path d="m406.159 323.994c-9.665 0-17.5 7.835-17.5 17.5v123.105c0 8.2-2.938 15.66-7.784 21.455 2.553.032 5.144.049 7.783.049 11.427 0 22.039-.302 31.815-.863 2.065-6.517 3.185-13.45 3.185-20.641v-123.105c.001-9.665-7.834-17.5-17.499-17.5z" fill="#3d4857"/><path d="m343.431 403.73c-5.522 0-10-4.478-10-10v-49.28c0-5.522 4.478-10 10-10s10 4.478 10 10v49.279c0 5.523-4.478 10.001-10 10.001z" fill="#fffeed"/><g fill="#fff"><path d="m30.099 123.291c-5.522 0-10-4.478-10-10v-24.564c0-10.601 2.631-21.127 7.608-30.44 2.603-4.871 8.663-6.707 13.533-4.105 4.871 2.604 6.709 8.662 4.105 13.533-3.433 6.422-5.247 13.688-5.247 21.012v24.564c.001 5.523-4.477 10-9.999 10z"/><path d="m67.604 46.752c-4.189 0-8.092-2.652-9.487-6.845-1.744-5.24 1.09-10.902 6.33-12.646 5.513-1.835 11.263-2.916 17.09-3.213 5.497-.291 10.215 3.962 10.496 9.479.281 5.516-3.963 10.215-9.479 10.496-4.024.205-7.991.95-11.791 2.215-1.047.348-2.113.514-3.159.514z"/></g><circle cx="174.04" cy="318.152" fill="url(#SVGID_8_)" r="36.109"/></g></svg>