<svg id="Capa_1" enable-background="new 0 0 502 502" height="512" viewBox="0 0 502 502" width="512" xmlns="http://www.w3.org/2000/svg" xmlns:xlink="http://www.w3.org/1999/xlink"><linearGradient id="SVGID_1_" gradientUnits="userSpaceOnUse" x1="251" x2="251" y1="445.956" y2="86.144"><stop offset="0" stop-color="#d4dbdb"/><stop offset="1" stop-color="#f3f3f3"/></linearGradient><linearGradient id="SVGID_2_" gradientUnits="userSpaceOnUse" x1="251" x2="251" y1="317.175" y2="428.303"><stop offset="0" stop-color="#c5cccc"/><stop offset="1" stop-color="#e6e6e6"/></linearGradient><linearGradient id="lg1"><stop offset="0" stop-color="#53aae6"/><stop offset="1" stop-color="#a4d2f0"/></linearGradient><linearGradient id="SVGID_3_" gradientUnits="userSpaceOnUse" x1="336.384" x2="484.743" xlink:href="#lg1" y1="184.978" y2="184.978"/><linearGradient id="lg2"><stop offset="0" stop-color="#4e5660"/><stop offset="1" stop-color="#64768d"/></linearGradient><linearGradient id="SVGID_4_" gradientUnits="userSpaceOnUse" x1="122.17" x2="122.17" xlink:href="#lg2" y1="456.187" y2="318.12"/><linearGradient id="SVGID_5_" gradientUnits="userSpaceOnUse" x1="122.17" x2="122.17" xlink:href="#lg1" y1="414.807" y2="357.162"/><linearGradient id="SVGID_6_" gradientUnits="userSpaceOnUse" x1="376.043" x2="376.043" xlink:href="#lg2" y1="456.187" y2="318.12"/><linearGradient id="SVGID_7_" gradientUnits="userSpaceOnUse" x1="376.043" x2="376.043" xlink:href="#lg1" y1="414.807" y2="357.162"/><linearGradient id="lg3"><stop offset="0" stop-color="#ec6f80"/><stop offset="1" stop-color="#eca0aa"/></linearGradient><linearGradient id="SVGID_8_" gradientUnits="userSpaceOnUse" x1="472.949" x2="472.949" xlink:href="#lg3" y1="386.174" y2="317.464"/><linearGradient id="SVGID_9_" gradientUnits="userSpaceOnUse" x1="27.158" x2="27.158" xlink:href="#lg3" y1="386.174" y2="317.464"/><linearGradient id="SVGID_10_" gradientUnits="userSpaceOnUse" x1="311.725" x2="311.725" xlink:href="#lg3" y1="103.238" y2="48.356"/><linearGradient id="SVGID_11_" gradientUnits="userSpaceOnUse" x1="156.799" x2="156.799" xlink:href="#lg3" y1="282.674" y2="136.647"/><linearGradient id="SVGID_12_" gradientUnits="userSpaceOnUse" x1="156.799" x2="156.799" y1="170.28" y2="251.653"><stop offset="0" stop-color="#f9edaf"/><stop offset="1" stop-color="#fffcdd"/></linearGradient><linearGradient id="SVGID_13_" gradientUnits="userSpaceOnUse" x1="333.934" x2="444.133" xlink:href="#lg1" y1="195.913" y2="195.913"/><g><path d="m484.743 234.77-65.087-43.552-11.592-56.033-5.854-7.603c-11.82-15.351-30.096-24.345-49.47-24.345h-302.741c-27.614.001-49.999 22.386-49.999 50v169.793l54.315 62.76h389.582l58.103-62.761v-37.561c0-18.341-6.068-36.166-17.257-50.698z" fill="url(#SVGID_1_)"/><path d="m502 323.029h-502l54.315 62.76h389.582z" fill="url(#SVGID_2_)"/><path d="m366.119 234.77h118.624l-76.679-99.585h-41.945c-16.423 0-29.736 13.313-29.736 29.736v40.113c.001 16.423 13.314 29.736 29.736 29.736z" fill="url(#SVGID_3_)"/><path d="m119.775 302.011c-1.151-9.415-10.186-15.738-19.441-13.666-34.382 7.699-62.113 33.185-73.015 66.25l26.996 31.194c0-32.417 22.734-59.518 53.128-66.242 8.011-1.773 13.328-9.392 12.332-17.536z" fill="#c2c8cf"/><circle cx="122.17" cy="385.789" fill="url(#SVGID_4_)" r="67.855"/><circle cx="122.17" cy="385.789" fill="url(#SVGID_5_)" r="27.347"/><circle cx="376.043" cy="385.789" fill="url(#SVGID_6_)" r="67.855"/><circle cx="376.043" cy="385.789" fill="url(#SVGID_7_)" r="27.347"/><path d="m502 349.517v-26.488h-31.508c-14.688 0-26.595 11.907-26.595 26.595v36.165h21.83c20.033 0 36.273-16.24 36.273-36.272z" fill="url(#SVGID_8_)"/><path d="m27.721 323.029h-27.721v26.488c0 20.033 16.24 36.273 36.273 36.273h18.042v-36.165c0-14.689-11.907-26.596-26.594-26.596z" fill="url(#SVGID_9_)"/><path d="m41.57 326.917c-11.589 15.823-18.641 35.166-19.214 56.101 4.286 1.783 8.986 2.771 13.917 2.771h18.042v-36.166c0-9.613-5.102-18.034-12.745-22.706z" fill="#e06c7b"/><path d="m296.892 48.356h29.666c7.586 0 14.017 5.58 15.087 13.09l5.951 41.792h-71.741l5.951-41.792c1.069-7.51 7.5-13.09 15.086-13.09z" fill="url(#SVGID_10_)"/><circle cx="156.799" cy="210.214" fill="url(#SVGID_11_)" r="75.029"/><path d="m171.386 192.658v-21.187c0-2.772-2.248-5.02-5.02-5.02h-19.135c-2.773 0-5.02 2.248-5.02 5.02v21.187c0 1.639-1.329 2.968-2.968 2.968h-21.187c-2.772 0-5.02 2.248-5.02 5.02v19.134c0 2.773 2.248 5.02 5.02 5.02h21.187c1.639 0 2.968 1.329 2.968 2.968v21.187c0 2.772 2.248 5.02 5.02 5.02h19.135c2.772 0 5.02-2.248 5.02-5.02v-21.187c0-1.639 1.329-2.968 2.968-2.968h21.187c2.773 0 5.02-2.248 5.02-5.02v-19.134c0-2.773-2.248-5.02-5.02-5.02h-21.187c-1.639 0-2.968-1.328-2.968-2.968z" fill="url(#SVGID_12_)"/><path d="m350.546 289.147h-30.432c-6.351 0-11.5-5.148-11.5-11.5s5.149-11.5 11.5-11.5h30.432c6.351 0 11.5 5.148 11.5 11.5s-5.149 11.5-11.5 11.5z" fill="#c2c8cf"/><path d="m366.119 234.77h48.098l39.845-39.845-29.159-37.869-73.699 73.699c4.386 2.548 9.478 4.015 14.915 4.015z" fill="url(#SVGID_13_)"/><g><path d="m470.812 269.389c-3.666 0-7.195-2.022-8.948-5.522-1-1.997-2.147-3.936-3.407-5.762-3.137-4.546-1.995-10.773 2.551-13.91 4.545-3.137 10.773-1.995 13.91 2.551 1.787 2.59 3.412 5.336 4.827 8.162 2.474 4.938.477 10.946-4.461 13.42-1.438.72-2.967 1.061-4.472 1.061z" fill="#fff"/><path d="m440.935 228.846c-2.997 0-5.961-1.342-7.931-3.9l-25.032-32.509c-3.37-4.376-2.554-10.654 1.822-14.023 4.378-3.371 10.656-2.554 14.024 1.822l25.032 32.509c3.37 4.376 2.554 10.654-1.822 14.023-1.817 1.4-3.963 2.078-6.093 2.078z" fill="#b1e7ff"/></g></g></svg>