<svg id="Capa_1" enable-background="new 0 0 502 502" height="512" viewBox="0 0 502 502" width="512" xmlns="http://www.w3.org/2000/svg" xmlns:xlink="http://www.w3.org/1999/xlink"><linearGradient id="lg1"><stop offset="0" stop-color="#f5e5a2"/><stop offset="1" stop-color="#fcf7cf"/></linearGradient><linearGradient id="SVGID_1_" gradientUnits="userSpaceOnUse" x1="389.151" x2="389.151" xlink:href="#lg1" y1="380.138" y2="120.654"/><linearGradient id="SVGID_2_" gradientUnits="userSpaceOnUse" x1="112.813" x2="112.813" xlink:href="#lg1" y1="381.292" y2="117.559"/><linearGradient id="SVGID_3_" gradientUnits="userSpaceOnUse" x1="251" x2="251" y1="267.099" y2="25.567"><stop offset="0" stop-color="#ec6f80"/><stop offset="1" stop-color="#eca0aa"/></linearGradient><linearGradient id="SVGID_4_" gradientUnits="userSpaceOnUse" x1="251" x2="251" y1="81.196" y2="215.789"><stop offset="0" stop-color="#f9edaf"/><stop offset="1" stop-color="#fffcdd"/></linearGradient><g><path d="m426.017 188.213c-19.473-15.555-50.302-15.08-69.335 1.01-21.559 18.225-25.273 48.673-11.156 71.117 2.887 4.59 2.295 10.546-1.539 14.38l-66.744 66.744c-1.855 1.855-.813 5.031 1.78 5.426l27.76 4.235c4.993.762 8.294 5.598 7.184 10.525l-4.963 22.022c-1.202 5.335 2.752 10.446 8.219 10.621l22.761.728c2.459.079 4.841-.864 6.581-2.604l57.56-57.56c3.834-3.834 9.79-4.426 14.38-1.539 22.445 14.118 52.893 10.402 71.119-11.158 16.091-19.034 16.564-49.864 1.007-69.337-9.43-11.804-22.413-18.563-35.921-20.302-4.354-.561-7.826-4.032-8.387-8.387-1.74-13.506-8.501-26.49-20.306-35.921z" fill="url(#SVGID_1_)"/><path d="m188.468 374.663 22.022 4.963c4.928 1.111 9.764-2.19 10.525-7.184l4.509-29.559c.427-2.8-.503-5.637-2.506-7.639l-65.005-65.005c-3.834-3.834-4.426-9.791-1.539-14.38 14.117-22.444 10.402-52.892-11.156-71.118-19.033-16.09-49.862-16.566-69.335-1.01-11.805 9.43-18.566 22.414-20.305 35.923-.561 4.354-4.033 7.826-8.387 8.387-13.508 1.739-26.491 8.499-35.921 20.302-15.557 19.473-15.083 50.303 1.007 69.337 18.225 21.56 48.674 25.275 71.119 11.158 4.59-2.887 10.546-2.295 14.38 1.539l73.895 73.895c1.981 1.981 5.372.64 5.461-2.16l.615-19.229c.176-5.467 5.286-9.422 10.621-8.22z" fill="url(#SVGID_2_)"/><path d="m164.09 235.821c-9.271-9.098-17.114-19.642-23.173-31.265-3.369-6.462-11.145-9.236-17.85-6.382-7.487 3.187-10.709 12.086-6.94 19.298 9.637 18.441 22.941 34.675 38.948 47.718-.846-3.078-.4-6.47 1.4-9.331 3.906-6.209 6.44-13.032 7.615-20.038z" fill="#f5c98d"/><g><circle cx="251" cy="147.248" fill="url(#SVGID_3_)" r="124.099"/><path d="m275.128 118.211v-35.044c0-4.586-3.718-8.303-8.303-8.303h-31.649c-4.586 0-8.303 3.718-8.303 8.303v35.043c0 2.711-2.198 4.909-4.909 4.909h-35.044c-4.586 0-8.303 3.718-8.303 8.303v31.649c0 4.586 3.718 8.303 8.303 8.303h35.043c2.711 0 4.909 2.198 4.909 4.909v35.043c0 4.586 3.718 8.303 8.303 8.303h31.649c4.586 0 8.303-3.718 8.303-8.303v-35.043c0-2.711 2.198-4.909 4.909-4.909h35.043c4.586 0 8.303-3.718 8.303-8.303v-31.649c0-4.586-3.718-8.303-8.303-8.303h-35.043c-2.71.001-4.908-2.197-4.908-4.908z" fill="url(#SVGID_4_)"/></g><g fill="#f5c98d"><path d="m183.302 468.737c-2.943 0-5.886-1.123-8.132-3.368-4.491-4.491-4.491-11.772 0-16.264l15.522-15.522c4.491-4.491 11.772-4.489 16.263 0 4.491 4.491 4.491 11.772 0 16.264l-15.522 15.521c-2.245 2.246-5.188 3.369-8.131 3.369z"/><path d="m318.698 468.737c-2.943 0-5.886-1.123-8.132-3.368l-15.522-15.521c-4.491-4.491-4.491-11.772 0-16.264 4.491-4.49 11.773-4.49 16.263 0l15.522 15.522c4.491 4.491 4.491 11.772 0 16.264-2.245 2.244-5.188 3.367-8.131 3.367z"/><path d="m251 478.852c-6.351 0-11.5-5.148-11.5-11.5v-30.306c0-6.352 5.149-11.5 11.5-11.5s11.5 5.148 11.5 11.5v30.306c0 6.351-5.149 11.5-11.5 11.5z"/></g><g fill="#ffccd3"><path d="m340.79 110.487c-3.607 0-7.089-1.957-8.874-5.375-1.293-2.477-2.718-4.925-4.236-7.275-2.996-4.64-1.665-10.83 2.975-13.826 4.639-2.996 10.829-1.664 13.826 2.975 1.852 2.867 3.59 5.853 5.166 8.873 2.555 4.896.658 10.938-4.239 13.492-1.478.771-3.06 1.136-4.618 1.136z"/><path d="m307.747 73.439c-1.933 0-3.885-.559-5.605-1.726-11.514-7.813-24.872-12.94-38.628-14.825-5.472-.75-9.299-5.794-8.549-11.266s5.799-9.304 11.265-8.549c16.791 2.302 33.093 8.557 47.142 18.089 4.57 3.101 5.761 9.32 2.66 13.89-1.934 2.851-5.082 4.387-8.285 4.387z"/></g></g></svg>