<svg id="Capa_1" enable-background="new 0 0 502 502" height="512" viewBox="0 0 502 502" width="512" xmlns="http://www.w3.org/2000/svg" xmlns:xlink="http://www.w3.org/1999/xlink"><linearGradient id="lg1"><stop offset="0" stop-color="#5bd9bb"/><stop offset=".2532" stop-color="#60dabd"/><stop offset=".5725" stop-color="#70dec4"/><stop offset=".9261" stop-color="#8ae4cf"/><stop offset="1" stop-color="#90e6d2"/></linearGradient><linearGradient id="SVGID_1_" gradientUnits="userSpaceOnUse" x1="317.566" x2="317.566" xlink:href="#lg1" y1="300.567" y2="99.718"/><linearGradient id="SVGID_2_" gradientUnits="userSpaceOnUse" x1="168.45" x2="168.45" xlink:href="#lg1" y1="348.938" y2="498.395"/><linearGradient id="lg2"><stop offset="0" stop-color="#dd5c6e"/><stop offset="1" stop-color="#ec8290"/></linearGradient><linearGradient id="SVGID_3_" gradientUnits="userSpaceOnUse" x1="248.685" x2="248.685" xlink:href="#lg2" y1="323.968" y2="215.175"/><linearGradient id="lg3"><stop offset="0" stop-color="#f4c22c"/><stop offset="1" stop-color="#f9e198"/></linearGradient><linearGradient id="SVGID_4_" gradientUnits="userSpaceOnUse" x1="333.55" x2="333.55" xlink:href="#lg3" y1="166.735" y2="19.665"/><linearGradient id="SVGID_5_" gradientUnits="userSpaceOnUse" x1="184.434" x2="184.434" xlink:href="#lg3" y1="188.767" y2="392.472"/><linearGradient id="SVGID_6_" gradientUnits="userSpaceOnUse" x1="392.875" x2="392.875" xlink:href="#lg2" y1="161.29" y2="63.774"/><linearGradient id="SVGID_7_" gradientUnits="userSpaceOnUse" x1="104.834" x2="104.834" xlink:href="#lg2" y1="352.187" y2="458.445"/><g><path d="m137.104 297.867c18.706 3.265 37.26 7.976 55.097 11.933-4.297-19.362-7.698-37.881-7.364-54.839.418-21.199 6.598-36.646 20.038-50.087s28.888-19.62 50.087-20.038c44.783-.882 100.514 24.288 153.856 23.238 34.628-.682 62.633-12.185 85.614-35.165 10.091-10.091 10.092-26.453 0-36.545-10.091-10.091-26.453-10.091-36.544 0-13.441 13.441-28.888 19.621-50.087 20.039-44.784.88-100.514-24.287-153.856-23.238-34.628.682-62.633 12.185-85.614 35.166s-34.484 50.986-35.166 85.614c-.287 14.558 1.384 29.288 3.939 43.922z" fill="url(#SVGID_1_)"/><path d="m204.135 364.895c-18.706-3.266-37.26-7.976-55.097-11.934 4.297 19.362 7.698 37.882 7.365 54.839-.418 21.199-6.598 36.646-20.039 50.087-10.091 10.091-10.091 26.453 0 36.544 10.092 10.092 26.453 10.091 36.545 0 22.981-22.981 34.484-50.986 35.165-85.614.286-14.558-1.385-29.288-3.939-43.922z" fill="url(#SVGID_2_)"/><path d="m204.135 364.894c-18.706-3.266-37.26-7.976-55.097-11.934 2.28 10.273 4.301 20.306 5.652 29.998 1.161.268 2.324.537 3.492.807 16.172 3.742 32.666 7.549 49.528 10.09-.609-9.644-1.893-19.322-3.575-28.961z" fill="#12c7aa"/><path d="m276.687 316.399-92.548-92.548c-10.091-10.091-10.092-26.453 0-36.544 10.092-10.092 26.453-10.092 36.545 0l92.548 92.548c10.091 10.091 10.092 26.453 0 36.544-10.093 10.092-26.454 10.091-36.545 0z" fill="url(#SVGID_3_)"/><path d="m297.865 137.106c18.706 3.265 37.259 7.976 55.097 11.933-4.297-19.362-7.698-37.881-7.364-54.838.418-21.199 6.598-36.646 20.038-50.087 10.091-10.091 10.091-26.453 0-36.544s-26.453-10.091-36.544 0c-22.981 22.981-34.484 50.986-35.166 85.614-.286 14.557 1.385 29.287 3.939 43.922z" fill="url(#SVGID_4_)"/><path d="m364.897 204.133c-18.706-3.265-37.26-7.976-55.097-11.933 4.297 19.362 7.698 37.881 7.365 54.839-.418 21.199-6.598 36.646-20.039 50.087s-28.888 19.621-50.087 20.039c-44.784.88-100.514-24.288-153.856-23.238-34.628.682-62.633 12.185-85.614 35.165-10.091 10.091-10.091 26.453 0 36.545 10.092 10.091 26.453 10.091 36.545 0 13.441-13.441 28.888-19.621 50.087-20.038 44.783-.882 100.514 24.288 153.856 23.238 34.628-.682 62.633-12.185 85.614-35.165 22.981-22.981 34.484-50.986 35.165-85.614.286-14.561-1.385-29.291-3.939-43.925z" fill="url(#SVGID_5_)"/><path d="m344.132 200.002c-11.634-2.535-23.125-5.316-34.333-7.803 2.28 10.275 4.302 20.31 5.653 30.004 7.372 1.706 14.952 3.473 22.687 5.155 7.803 1.696 15.452-3.426 16.811-11.295 1.275-7.387-3.494-14.465-10.818-16.061z" fill="#edaa00"/><path d="m332.448 78.465 77.844 77.844c19.919-.845 34.69-7.04 47.595-19.946.943-.943 1.941-1.798 2.984-2.565l-91.878-91.878c-10.092-10.092-26.453-10.092-36.545 0-10.092 10.093-10.091 26.454 0 36.545z" fill="url(#SVGID_6_)"/><path d="m164.922 425.24-79.129-79.129c-16.986 1.75-30.084 7.93-41.679 19.525-2.081 2.081-4.431 3.726-6.936 4.948l91.2 91.2c10.091 10.091 26.453 10.092 36.545 0 10.091-10.091 10.09-26.453-.001-36.544z" fill="url(#SVGID_7_)"/></g></svg>