<svg id="Capa_1" enable-background="new 0 0 502 502" height="512" viewBox="0 0 502 502" width="512" xmlns="http://www.w3.org/2000/svg" xmlns:xlink="http://www.w3.org/1999/xlink"><linearGradient id="SVGID_1_" gradientUnits="userSpaceOnUse" x1="251" x2="251" y1="418.951" y2="-38.508"><stop offset="0" stop-color="#41c4a6"/><stop offset=".216" stop-color="#46c6a9"/><stop offset=".4884" stop-color="#56cdb2"/><stop offset=".7898" stop-color="#70d7c0"/><stop offset="1" stop-color="#86e0cd"/></linearGradient><linearGradient id="lg1"><stop offset="0" stop-color="#5bd9bb"/><stop offset=".2532" stop-color="#60dabd"/><stop offset=".5725" stop-color="#70dec4"/><stop offset=".9261" stop-color="#8ae4cf"/><stop offset="1" stop-color="#90e6d2"/></linearGradient><linearGradient id="SVGID_2_" gradientUnits="userSpaceOnUse" x1="251" x2="251" xlink:href="#lg1" y1="551.665" y2="13.793"/><linearGradient id="SVGID_3_" gradientUnits="userSpaceOnUse" x1="339.749" x2="339.749" xlink:href="#lg1" y1="215.405" y2="152.199"/><linearGradient id="SVGID_4_" gradientUnits="userSpaceOnUse" x1="148.26" x2="148.26" xlink:href="#lg1" y1="310.257" y2="251.02"/><linearGradient id="SVGID_5_" gradientUnits="userSpaceOnUse" x1="295.658" x2="295.658" xlink:href="#lg1" y1="359.626" y2="302.539"/><linearGradient id="SVGID_6_" gradientUnits="userSpaceOnUse" x1="222.44" x2="222.44" xlink:href="#lg1" y1="189.581" y2="127.867"/><g><path d="m445.621 226.479 18.011-24.963c18.242-25.283 3.475-60.923-27.303-65.895l-30.357-4.904c-17.83-2.88-31.809-16.859-34.689-34.689l-4.904-30.356c-4.972-30.778-40.612-45.545-65.895-27.303l-24.962 18.011c-14.641 10.564-34.402 10.564-49.043 0l-24.963-18.011c-25.283-18.242-60.923-3.475-65.895 27.303l-4.904 30.357c-2.88 17.83-16.859 31.809-34.689 34.689l-30.356 4.904c-30.778 4.972-45.545 40.612-27.303 65.895l18.011 24.962c10.564 14.641 10.564 34.402 0 49.043l-18.011 24.963c-18.242 25.283-3.475 60.923 27.303 65.895l30.357 4.904c17.83 2.88 31.809 16.859 34.689 34.689l4.904 30.356c4.972 30.778 40.612 45.545 65.895 27.303l24.962-18.011c14.641-10.564 34.402-10.564 49.043 0l24.963 18.011c25.283 18.242 60.923 3.475 65.895-27.303l4.904-30.357c2.88-17.83 16.859-31.809 34.689-34.689l30.356-4.904c30.778-4.972 45.545-40.612 27.303-65.895l-18.011-24.962c-10.564-14.641-10.564-34.402 0-49.043z" fill="url(#SVGID_1_)"/><path d="m282.715 488.262-24.963-18.013c-4.038-2.912-9.465-2.913-13.502.001l-24.964 18.01c-43.651 31.494-105.078 5.935-113.644-47.087l-4.905-30.358c-.794-4.918-4.633-8.757-9.551-9.552l-30.357-4.903c-53.138-8.584-78.514-70.089-47.089-113.646l18.013-24.963c2.913-4.038 2.913-9.465-.001-13.502l-18.01-24.964c-31.494-43.649-5.936-105.078 47.087-113.644l30.358-4.905c4.918-.794 8.757-4.633 9.552-9.551l4.903-30.357c8.577-53.095 70.05-78.539 113.646-47.089l24.963 18.013c4.038 2.912 9.465 2.913 13.502-.001l24.965-18.01c43.648-31.496 105.078-5.935 113.644 47.087l4.905 30.358c.794 4.918 4.633 8.757 9.551 9.552l30.357 4.903c53.138 8.584 78.514 70.089 47.089 113.646l-18.013 24.963c-2.913 4.038-2.913 9.465.001 13.502l18.01 24.965c31.494 43.649 5.936 105.078-47.087 113.644l-30.358 4.905c-4.918.794-8.757 4.633-9.552 9.551l-4.903 30.357c-8.576 53.08-70.064 78.532-113.647 47.088zm-31.715-80.958c14.824 0 29.643 4.562 42.291 13.689l24.963 18.012c6.987 5.04 16.77.983 18.143-7.519l4.904-30.357c4.978-30.807 29.021-54.849 59.827-59.826l30.357-4.905c8.504-1.373 12.557-11.159 7.518-18.143l-18.012-24.964c-18.25-25.294-18.25-59.286 0-84.581h.001l18.012-24.963c5.039-6.986.985-16.77-7.519-18.143l-30.357-4.904c-30.807-4.978-54.849-29.021-59.826-59.827l-4.905-30.357c-1.373-8.504-11.158-12.557-18.143-7.518l-24.964 18.011c-25.297 18.25-59.287 18.249-84.581 0l-24.963-18.013c-6.984-5.039-16.77-.986-18.143 7.519l-4.904 30.357c-4.978 30.806-29.021 54.849-59.827 59.826l-30.357 4.905c-8.504 1.373-12.557 11.159-7.518 18.143l18.011 24.964c18.251 25.296 18.251 59.287-.001 84.581l-18.012 24.963c-5.039 6.986-.985 16.77 7.519 18.143l30.357 4.904c30.806 4.978 54.849 29.021 59.826 59.827l4.905 30.357c1.373 8.504 11.159 12.558 18.143 7.518l24.964-18.012c12.647-9.123 27.472-13.687 42.291-13.687z" fill="url(#SVGID_2_)"/><path d="m370.114 192.205c0 16.77-8.308 31.905-30.365 30.365-16.73-1.168-30.365-13.595-30.365-30.365s8.634-28.735 30.365-30.365 30.365 13.595 30.365 30.365z" fill="url(#SVGID_3_)"/><path d="m177.664 288.012c-1.561 16.973-11.649 30.376-31.958 28.958-15.404-1.075-26.958-13.518-26.958-28.958 0-15.441 7.949-26.458 27.958-27.958 20.008-1.501 32.371 12.582 30.958 27.958z" fill="url(#SVGID_4_)"/><path d="m323.526 339.138c-2.027 15.307-7.511 27.155-30.157 27.057-15.441-.067-25.76-11.616-25.76-27.057s7.912-28.84 27.958-27.958c19.947.877 29.605 15.53 27.959 27.958z" fill="url(#SVGID_5_)"/><path d="m245.627 149.43c-1.687 12.736-6.25 22.594-25.091 22.512-12.847-.056-21.433-9.665-21.433-22.512s6.583-23.996 23.262-23.262c16.596.73 24.632 12.922 23.262 23.262z" fill="url(#SVGID_6_)"/><g><ellipse cx="163.184" cy="259.944" fill="#efc5db" rx="14.925" ry="11.994"/><ellipse cx="338.816" cy="259.944" fill="#efc5db" rx="14.925" ry="11.994"/><ellipse cx="313.229" cy="230.387" fill="#fff" rx="29.557" ry="29.557" transform="matrix(.16 -.987 .987 .16 35.643 502.668)"/><path d="m295.658 231.835c.755 9.046 8.331 16.153 17.572 16.153s16.817-7.108 17.572-16.153z" fill="#3b3b44"/><path d="m313.229 200.83c-16.324 0-29.557 13.233-29.557 29.557 0 .486.013.968.037 1.447h59.04c.023-.48.037-.962.037-1.447 0-16.324-13.233-29.557-29.557-29.557z" fill="#f5c98d"/><ellipse cx="188.771" cy="230.387" fill="#fff" rx="29.557" ry="29.557" transform="matrix(.16 -.987 .987 .16 -68.879 379.817)"/><path d="m171.199 231.835c.755 9.046 8.331 16.153 17.571 16.153 9.241 0 16.817-7.108 17.572-16.153z" fill="#3b3b44"/><path d="m188.771 200.83c-16.324 0-29.557 13.233-29.557 29.557 0 .486.014.968.037 1.447h59.04c.023-.48.037-.962.037-1.447 0-16.324-13.233-29.557-29.557-29.557z" fill="#f5c98d"/><path d="m262.365 263.393c-1.824 0-3.654-.662-5.098-2-3.748-3.477-8.787-3.477-12.535 0-3.037 2.815-7.782 2.637-10.6-.4-2.816-3.037-2.637-7.783.4-10.6 9.541-8.846 23.393-8.846 32.934 0 3.037 2.816 3.217 7.562.4 10.6-1.477 1.593-3.486 2.4-5.501 2.4z" fill="#3b3b44"/></g><g fill="#d3f5f0"><path d="m409.102 141.223c-.529 0-1.064-.043-1.604-.13l-3.118-.503c-1.839-.298-3.671-.695-5.449-1.182-5.327-1.459-8.463-6.959-7.005-12.286 1.459-5.326 6.959-8.461 12.286-7.005 1.096.301 2.226.546 3.359.729l3.112.502c5.452.879 9.159 6.012 8.279 11.465-.792 4.913-5.039 8.41-9.86 8.41z"/><path d="m372.626 111.773c-4.267 0-8.219-2.752-9.549-7.041-.719-2.321-1.28-4.714-1.667-7.113l-4.903-30.353c-.27-1.665-.662-3.307-1.167-4.876-1.692-5.257 1.197-10.891 6.454-12.583 5.261-1.694 10.891 1.196 12.583 6.454.813 2.526 1.444 5.156 1.874 7.815l4.904 30.357c.238 1.479.583 2.949 1.025 4.375 1.636 5.275-1.315 10.878-6.59 12.514-.985.306-1.984.451-2.964.451z"/></g><path d="m159.859 483.833c2.966-6.851.368-14.722-5.921-18.746-9.218-5.899-16.554-15.529-18.681-28.698l-4.905-30.355c-2.858-17.705-16.674-31.524-34.384-34.387l-5.589-.903c-8.125-1.312-15.79 4.168-17.177 12.281-1.405 8.219 4.162 16.006 12.394 17.336l5.589.903c4.918.795 8.757 4.634 9.551 9.552l4.905 30.358c3.511 21.732 15.903 38.849 32.311 49.316 7.812 4.983 18.224 1.853 21.905-6.651z" fill="#10bfa4"/></g></svg>