<svg id="Capa_1" enable-background="new 0 0 502 502" height="512" viewBox="0 0 502 502" width="512" xmlns="http://www.w3.org/2000/svg" xmlns:xlink="http://www.w3.org/1999/xlink"><linearGradient id="lg1"><stop offset="0" stop-color="#4e5660"/><stop offset="1" stop-color="#64768d"/></linearGradient><linearGradient id="SVGID_1_" gradientUnits="userSpaceOnUse" x1="120.317" x2="120.317" xlink:href="#lg1" y1="119.115" y2="11.592"/><linearGradient id="SVGID_2_" gradientUnits="userSpaceOnUse" x1="234.52" x2="234.52" y1="430.331" y2="38.486"><stop offset="0" stop-color="#d4dbdb"/><stop offset="1" stop-color="#f3f3f3"/></linearGradient><linearGradient id="SVGID_3_" gradientUnits="userSpaceOnUse" x1="313.87" x2="313.87" xlink:href="#lg1" y1="212.374" y2="282.826"/><linearGradient id="lg2"><stop offset="0" stop-color="#41c4a6"/><stop offset=".216" stop-color="#46c6a9"/><stop offset=".4884" stop-color="#56cdb2"/><stop offset=".7898" stop-color="#70d7c0"/><stop offset="1" stop-color="#86e0cd"/></linearGradient><linearGradient id="SVGID_4_" gradientUnits="userSpaceOnUse" x1="220.698" x2="398.222" xlink:href="#lg2" y1="168.165" y2="168.165"/><linearGradient id="SVGID_5_" gradientUnits="userSpaceOnUse" x1="189.762" x2="411.892" xlink:href="#lg2" y1="335.86" y2="335.86"/><linearGradient id="SVGID_6_" gradientUnits="userSpaceOnUse" x1="256.775" x2="256.775" xlink:href="#lg1" y1="505.926" y2="416.246"/><linearGradient id="SVGID_7_" gradientUnits="userSpaceOnUse" x1="129.161" x2="129.161" xlink:href="#lg1" y1="290.542" y2="192.875"/><g><path d="m83.956 8.594-18.748 18.747c-11.458 11.458-11.458 30.036 0 41.494l58.57 58.57 60.241-60.242-58.57-58.57c-11.458-11.458-30.035-11.458-41.493.001z" fill="url(#SVGID_1_)"/><path d="m315.361 49.893h-104.897c-57.413 0-103.956 46.543-103.956 103.956v273.082h121.18v-283.555h134.844v-46.312c0-26.052-21.119-47.171-47.171-47.171z" fill="url(#SVGID_2_)"/><path d="m141.507 391.932v-56.072c0-9.665-7.835-17.5-17.5-17.5-9.665 0-17.5 7.835-17.5 17.5v91.072h121.18v-35z" fill="#c2c8cf"/><path d="m357.915 190.837h-88.089v64.938c0 12.786 10.365 23.152 23.151 23.152h41.786c12.786 0 23.151-10.365 23.151-23.152v-64.938z" fill="url(#SVGID_3_)"/><path d="m370.652 221.959h-113.564c-20.098 0-36.391-16.293-36.391-36.39v-34.807c0-20.098 16.293-36.391 36.391-36.391h113.564c20.098 0 36.39 16.293 36.39 36.391v34.807c.001 20.098-16.292 36.39-36.39 36.39z" fill="url(#SVGID_4_)"/><path d="m199.814 365.142h185.585c11.954 0 21.644-9.691 21.644-21.644v-15.275c0-11.954-9.69-21.644-21.644-21.644h-185.585c-11.954 0-21.644 9.69-21.644 21.644v15.275c0 11.954 9.69 21.644 21.644 21.644z" fill="url(#SVGID_5_)"/><path d="m412.564 502h-311.578c-18.127 0-32.822-14.695-32.822-32.822v-9.424c0-18.127 14.695-32.822 32.822-32.822h311.578c18.127 0 32.822 14.695 32.822 32.822v9.424c0 18.127-14.695 32.822-32.822 32.822z" fill="url(#SVGID_6_)"/><circle cx="129.161" cy="234.882" fill="url(#SVGID_7_)" r="49.008"/><g fill="#c9f5ee"><path d="m294.217 153.103h-4.207c-5.523 0-10-4.477-10-10 0-5.522 4.477-10 10-10h4.207c5.522 0 10 4.478 10 10 0 5.523-4.478 10-10 10z"/><path d="m374.923 153.103h-40.523c-5.522 0-10-4.477-10-10 0-5.522 4.478-10 10-10h40.523c5.522 0 10 4.478 10 10 0 5.523-4.478 10-10 10z"/></g></g></svg>