<svg id="Capa_1" enable-background="new 0 0 502 502" height="512" viewBox="0 0 502 502" width="512" xmlns="http://www.w3.org/2000/svg" xmlns:xlink="http://www.w3.org/1999/xlink"><linearGradient id="lg1"><stop offset="0" stop-color="#f4c22c"/><stop offset="1" stop-color="#f9e198"/></linearGradient><linearGradient id="SVGID_1_" gradientUnits="userSpaceOnUse" x1="113.584" x2="113.584" xlink:href="#lg1" y1="356.691" y2="502.798"/><linearGradient id="SVGID_2_" gradientUnits="userSpaceOnUse" x1="340.214" x2="204.916" y1="169.805" y2="169.805"><stop offset="0" stop-color="#9fd8e6"/><stop offset="1" stop-color="#c4e8f0"/></linearGradient><linearGradient id="SVGID_3_" gradientUnits="userSpaceOnUse" x1="356.994" x2="356.994" y1="173.762" y2="25.568"><stop offset="0" stop-color="#dd5c6e"/><stop offset="1" stop-color="#ec8290"/></linearGradient><linearGradient id="SVGID_4_" gradientUnits="userSpaceOnUse" x1="316.733" x2="316.733" y1="214.996" y2="20.458"><stop offset="0" stop-color="#ec6f80"/><stop offset="1" stop-color="#eca0aa"/></linearGradient><linearGradient id="SVGID_5_" gradientUnits="userSpaceOnUse" x1="343.508" x2="98.668" y1="275.299" y2="275.299"><stop offset="0" stop-color="#f4d952"/><stop offset="1" stop-color="#f9edaf"/></linearGradient><linearGradient id="SVGID_6_" gradientUnits="userSpaceOnUse" x1="278.048" x2="278.048" xlink:href="#lg1" y1="247.977" y2="212.532"/><g><path d="m127.452 344.686c-6.689-9.628-21.047-9.628-27.735 0-22.301 32.1-51.641 51.958-51.641 91.805 0 36.18 29.329 65.509 65.509 65.509s65.509-29.329 65.509-65.509c-.001-39.847-29.341-59.705-51.642-91.805z" fill="url(#SVGID_1_)"/><path d="m236.507 218.35c28.688 14.142 55.106 22.189 78.916 30.929l48.171-48.171-110.778-110.777-91.845 91.845c29.52-.126 60.383 15.339 75.536 36.174z" fill="url(#SVGID_2_)"/><path d="m380.943 193.861-120.879-120.879 47.947-47.947c33.38-33.38 87.499-33.38 120.879 0 33.38 33.38 33.38 87.499 0 120.879z" fill="url(#SVGID_3_)"/><path d="m354.837 99.087c-6.35-6.35-12.048-12.303-17.181-17.89-6.2-6.748-16.573-7.528-23.746-1.826-7.956 6.325-8.869 18.064-1.991 25.547 5.451 5.93 11.479 12.228 18.17 18.918 28.079 28.079 49.236 44.502 65.39 55.489l25.245-25.245c-15.336-9.968-36.328-25.434-65.887-54.993z" fill="#d45566"/><path d="m288.668 165.257c-39.02-39.02-58.321-66.733-70.777-86.518-8.618-13.689-4.507-31.772 9.182-40.39s31.771-4.507 40.39 9.181c10.825 17.195 27.726 41.407 62.625 76.306s59.111 51.8 76.306 62.625c13.68 8.621 17.799 26.702 9.181 40.39-8.618 13.689-26.701 17.799-40.39 9.182-19.784-12.455-47.497-31.757-86.517-70.776z" fill="url(#SVGID_4_)"/><path d="m236.507 218.35c-15.153-20.836-46.016-36.3-75.536-36.175l-31.911 31.911c-8.271 8.271-12.918 19.489-12.918 31.186l-.001 13.778c0 11.697-4.647 22.915-12.918 31.186l-5.197 5.197c-16.697 16.697-16.697 43.768 0 60.465 16.697 16.697 43.768 16.697 60.465 0l5.197-5.197c8.271-8.271 19.489-12.918 31.186-12.918l13.778-.001c11.697 0 22.915-4.647 31.186-12.918l75.585-75.585c-21.36 21.36-60.189-5.18-78.916-30.929z" fill="url(#SVGID_5_)"/><path d="m315.423 249.28c-21.36 21.36-60.189-5.18-78.916-30.929 34.221-16.239 100.276 9.569 78.916 30.929z" fill="url(#SVGID_6_)"/><g><ellipse cx="161.127" cy="321.596" fill="#eaadcd" rx="14.936" ry="12.003" transform="matrix(.707 -.707 .707 .707 -180.211 208.13)"/><path d="m295.978 186.746c4.688 4.688 3.759 13.216-2.074 19.049s-14.362 6.762-19.049 2.074c-4.688-4.688-3.759-13.216 2.074-19.049s14.361-6.762 19.049-2.074z" fill="#eaadcd"/><circle cx="158.291" cy="282.547" fill="#fff" r="29.618"/><circle cx="246.366" cy="194.471" fill="#fff" r="29.618"/><g fill="#3b3b44"><g><ellipse cx="158.291" cy="282.547" rx="17.652" ry="17.652" transform="matrix(.526 -.851 .851 .526 -165.276 268.654)"/><path d="m258.849 181.989c6.894 6.894 6.894 18.07 0 24.964s-18.07 6.894-24.964 0-6.894-18.07 0-24.964c6.893-6.893 18.07-6.893 24.964 0z"/></g><path d="m209.088 266.36c-2.674 0-4.891-2.116-4.993-4.811-.104-2.76 2.048-5.081 4.808-5.185 6.4-.242 11.039-4.882 11.281-11.281.104-2.76 2.42-4.934 5.186-4.808 2.759.104 4.912 2.426 4.808 5.185-.441 11.667-9.229 20.455-20.896 20.896-.066.003-.13.004-.194.004z"/></g></g><g fill="#fff6bd"><path d="m113.584 484c-12.972 0-25.094-5.146-34.135-14.49-3.84-3.969-3.735-10.3.233-14.14 3.968-3.842 10.299-3.738 14.141.233 5.239 5.414 12.257 8.396 19.761 8.396 2.9 0 5.753-.449 8.479-1.336 5.253-1.71 10.895 1.165 12.602 6.418 1.708 5.252-1.165 10.894-6.417 12.602-4.727 1.538-9.661 2.317-14.664 2.317z"/><path d="m77.873 433.57c-.935 0-1.886-.133-2.829-.41-5.298-1.56-8.329-7.119-6.769-12.417.585-1.989 1.305-3.996 2.138-5.968 2.15-5.086 8.018-7.466 13.104-5.317 5.087 2.15 7.468 8.017 5.318 13.104-.547 1.293-.996 2.546-1.374 3.829-1.282 4.356-5.268 7.179-9.588 7.179z"/></g></g></svg>