<svg id="Capa_1" enable-background="new 0 0 502 502" height="512" viewBox="0 0 502 502" width="512" xmlns="http://www.w3.org/2000/svg" xmlns:xlink="http://www.w3.org/1999/xlink"><linearGradient id="SVGID_1_" gradientUnits="userSpaceOnUse" x1="251" x2="251" y1="376.576" y2="10.073"><stop offset="0" stop-color="#f4d952"/><stop offset="1" stop-color="#f9edaf"/></linearGradient><linearGradient id="lg1"><stop offset="0" stop-color="#edbc26"/><stop offset="1" stop-color="#f2d98c"/></linearGradient><linearGradient id="SVGID_2_" gradientUnits="userSpaceOnUse" x1="251" x2="251" xlink:href="#lg1" y1="346.718" y2="511.575"/><linearGradient id="SVGID_3_" gradientUnits="userSpaceOnUse" x1="295.692" x2="295.692" xlink:href="#lg1" y1="317.423" y2="365.899"/><g><path d="m251 341.418c27.123 0 68.188.495 89.385-3.319v-22.246c0-15.452-5.047-30.481-14.373-42.801l-9.689-12.8c-6.012-7.941-6.112-18.869-.288-26.949 13.324-18.49 23.003-36.773 23.003-50.666 0-22.432-34.98-64.632-34.98-126.946-.002-30.757-23.756-55.691-53.058-55.691s-53.057 24.934-53.057 55.691c0 62.314-34.98 104.515-34.98 126.946 0 13.893 9.679 32.176 23.003 50.666 5.823 8.081 5.723 19.008-.288 26.949l-9.689 12.8c-9.326 12.32-14.373 27.349-14.373 42.801v22.526c30.677-19.234 75.849-5.51 89.384 3.039z" fill="url(#SVGID_1_)"/><path d="m217.409 502h67.182c30.814 0 55.794-24.98 55.794-55.794v-108.108c0 35.491-75.849 11.868-89.385 3.319-13.535-8.549-58.707-22.273-89.385-3.039v107.828c0 30.814 24.98 55.794 55.794 55.794z" fill="url(#SVGID_2_)"/><path d="m340.385 338.098c0 35.491-75.849 11.868-89.385 3.319 20.446-22.214 89.385-30.831 89.385-3.319z" fill="url(#SVGID_3_)"/><path d="m314.055 256.537c-3.082-6.295-3.08-13.694.036-20h-126.182c3.116 6.306 3.118 13.705.036 20z" fill="#edaa00"/><g><ellipse cx="274.616" cy="462.459" fill="#eaadcd" rx="12.003" ry="14.936"/><ellipse cx="274.616" cy="286.688" fill="#eaadcd" rx="12.003" ry="14.936"/><circle cx="244.998" cy="436.852" fill="#fff" r="29.618"/><circle cx="244.998" cy="312.294" fill="#fff" r="29.618"/><g fill="#3b3b44"><g><ellipse cx="244.998" cy="436.852" rx="17.652" ry="17.652" transform="matrix(1 -.016 .016 1 -7.116 4.067)"/><ellipse cx="244.998" cy="312.294" rx="17.652" ry="17.652" transform="matrix(.999 -.046 .046 .999 -13.944 11.461)"/></g><path d="m265.937 390.949c-1.217 0-2.436-.441-3.398-1.334-2.025-1.877-2.145-5.041-.267-7.065 4.354-4.696 4.354-11.257 0-15.954-1.878-2.025-1.758-5.189.267-7.066 2.025-1.876 5.189-1.758 7.066.268 7.938 8.563 7.938 20.991 0 29.552-.986 1.061-2.325 1.599-3.668 1.599z"/></g></g><path d="m237.998 474h-20.589c-15.35 0-27.794-12.444-27.794-27.794v-35.457c0-7.732-6.268-14-14-14-7.732 0-14 6.268-14 14v35.458c0 30.814 24.98 55.793 55.794 55.793h20.589c7.732 0 14-6.268 14-14 0-7.732-6.268-14-14-14z" fill="#edaa00"/><g fill="#fffde3"><path d="m280.474 89.254c-4.984 0-9.298-3.722-9.914-8.796-.997-8.21-1.503-16.543-1.503-24.768 0-5.98-2.298-11.691-6.304-15.668-3.92-3.891-3.944-10.223-.053-14.143s10.223-3.943 14.142-.053c7.763 7.705 12.215 18.59 12.215 29.863 0 7.422.457 14.943 1.357 22.357.665 5.482-3.239 10.467-8.722 11.132-.409.051-.816.076-1.218.076z"/><path d="m291.34 135.114c-4.145 0-8.018-2.597-9.45-6.733-.771-2.23-1.51-4.454-2.195-6.612-1.671-5.265 1.242-10.886 6.506-12.557 5.266-1.671 10.886 1.242 12.556 6.506.634 1.996 1.317 4.057 2.033 6.124 1.806 5.219-.961 10.914-6.181 12.72-1.081.374-2.184.552-3.269.552z"/></g></g></svg>