<svg id="Capa_1" enable-background="new 0 0 502 502" height="512" viewBox="0 0 502 502" width="512" xmlns="http://www.w3.org/2000/svg" xmlns:xlink="http://www.w3.org/1999/xlink"><linearGradient id="SVGID_1_" gradientUnits="userSpaceOnUse" x1="173.327" x2="173.327" y1="542.38" y2="91.687"><stop offset="0" stop-color="#d4dbdb"/><stop offset="1" stop-color="#f3f3f3"/></linearGradient><linearGradient id="SVGID_2_" gradientUnits="userSpaceOnUse" x1="117.775" x2="117.775" y1="381.498" y2="443.268"><stop offset="0" stop-color="#41c4a6"/><stop offset=".216" stop-color="#46c6a9"/><stop offset=".4884" stop-color="#56cdb2"/><stop offset=".7898" stop-color="#70d7c0"/><stop offset="1" stop-color="#86e0cd"/></linearGradient><linearGradient id="lg1"><stop offset="0" stop-color="#5bd9bb"/><stop offset=".2532" stop-color="#60dabd"/><stop offset=".5725" stop-color="#70dec4"/><stop offset=".9261" stop-color="#8ae4cf"/><stop offset="1" stop-color="#90e6d2"/></linearGradient><linearGradient id="SVGID_3_" gradientUnits="userSpaceOnUse" x1="173.327" x2="173.327" xlink:href="#lg1" y1="376.795" y2="257.104"/><linearGradient id="SVGID_4_" gradientUnits="userSpaceOnUse" x1="173.327" x2="173.327" xlink:href="#lg1" y1="124.983" y2="3.751"/><linearGradient id="SVGID_5_" gradientUnits="userSpaceOnUse" x1="357.403" x2="357.403" y1="419.518" y2="333.83"><stop offset="0" stop-color="#9fd8e6"/><stop offset="1" stop-color="#c4e8f0"/></linearGradient><linearGradient id="SVGID_6_" gradientUnits="userSpaceOnUse" x1="357.403" x2="357.403" y1="498.341" y2="385.678"><stop offset="0" stop-color="#f4d952"/><stop offset="1" stop-color="#f9edaf"/></linearGradient><linearGradient id="SVGID_7_" gradientUnits="userSpaceOnUse" x1="418.27" x2="418.27" y1="417.579" y2="386.987"><stop offset="0" stop-color="#f4c22c"/><stop offset="1" stop-color="#f9e198"/></linearGradient><g><path d="m236.969 502h-127.285c-41.046 0-74.321-33.275-74.321-74.321v-187.574c0-22.269 7.042-43.968 20.118-61.993l41.16-56.739h153.371l41.16 56.739c13.076 18.025 20.118 39.724 20.118 61.993v187.574c0 41.046-33.274 74.321-74.321 74.321z" fill="url(#SVGID_1_)"/><path d="m221.225 370.145c1.463 3.71 2.205 8.989 2.205 15.691v76.337c0 14.796 4.639 28.521 12.52 39.827h1.019c41.046 0 74.321-33.275 74.321-74.321v-57.534z" fill="#c2c8cf"/><path d="m136.469 434.271h-37.389c-9.715 0-17.591-7.876-17.591-17.591v-62.88h72.571v62.88c0 9.715-7.875 17.591-17.591 17.591z" fill="url(#SVGID_2_)"/><path d="m238.179 277.276h-129.705c-14.904 0-26.985 12.082-26.985 26.985v76.524h156.69c14.903 0 26.985-12.082 26.985-26.985v-49.539c0-14.903-12.082-26.985-26.985-26.985z" fill="url(#SVGID_3_)"/><path d="m222.5 0h-98.347c-27.407 0-49.624 22.218-49.624 49.624v52.535c0 10.611 8.602 19.214 19.214 19.214h159.167c10.611 0 19.214-8.602 19.214-19.214v-52.535c0-27.406-22.217-49.624-49.624-49.624z" fill="url(#SVGID_4_)"/><path d="m253.43 385.836v24.628c32.767 4.906 73.054 3.446 121.733-6.468 27.234-2.586 65.473-.24 86.213-.579v-17.581c0-9.939 1.227-18.912 4.297-26.699 3.508-8.896-2.992-18.529-12.555-18.529h-191.431c-9.562 0-16.062 9.634-12.555 18.529 3.071 7.787 4.298 16.761 4.298 26.699z" fill="url(#SVGID_5_)"/><path d="m375.163 403.996c-45.181-16.29-93.78-7.276-121.733 6.468v51.709c0 21.996 17.831 39.827 39.827 39.827h128.292c21.996 0 39.827-17.831 39.827-39.827v-58.755c0 30.075-58.655 10.514-86.213.578z" fill="url(#SVGID_6_)"/><path d="m461.376 403.418c0 30.075-58.655 10.515-86.213.579 10.51-8.894 86.213-30.655 86.213-.579z" fill="url(#SVGID_7_)"/><path d="m192.593 339.03h-38.533c-5.523 0-10-4.478-10-10s4.477-10 10-10h38.533c5.523 0 10 4.478 10 10 0 5.523-4.477 10-10 10z" fill="#d3f5f0"/><path d="m243.77 336.563c-8.346-7.66-21.789-3.473-24.432 7.543-1.983 8.264-1.573 17.267 1.887 26.039 1.073 2.72 1.754 6.292 2.043 10.641h14.911c5.473 0 10.561-1.634 14.814-4.433-.587-6.224-1.801-11.992-3.861-17.215-1.069-2.712-1.208-5.491-.613-8.046 1.236-5.303-.737-10.847-4.749-14.529z" fill="#12c7aa"/><g><ellipse cx="85.441" cy="241.525" fill="#eaadcd" rx="14.936" ry="12.003"/><ellipse cx="261.212" cy="241.525" fill="#eaadcd" rx="14.936" ry="12.003"/><path d="m111.048 215.873c7.183 0 13.812 1.589 19.159 4.273 4.544 2.281 9.962-.801 10.365-5.87.113-1.423.125-2.875.029-4.348-.991-15.146-13.602-27.24-28.775-27.629-16.713-.428-30.396 12.992-30.396 29.608 0 .843.035 1.678.105 2.503.422 5.01 5.857 7.995 10.349 5.738 5.347-2.684 11.979-4.275 19.164-4.275z" fill="#fff"/><path d="m173.327 251.712c-6.447 0-12.894-2.155-18.273-6.465-4.989-3.997-5.794-11.282-1.797-16.271 3.997-4.99 11.282-5.793 16.271-1.797 2.237 1.792 5.361 1.792 7.598 0 4.988-3.997 12.273-3.193 16.271 1.797 3.997 4.989 3.193 12.274-1.797 16.271-5.38 4.31-11.826 6.465-18.273 6.465z" fill="#3b3b44"/><path d="m111.048 215.873c5.926 0 11.473 1.082 16.237 2.967.911-2.129 1.415-4.47 1.415-6.933 0-9.749-7.903-17.652-17.652-17.652s-17.652 7.903-17.652 17.652c0 2.463.504 4.803 1.415 6.933 4.764-1.885 10.311-2.967 16.237-2.967z" fill="#3b3b44"/><path d="m235.605 215.873c7.183 0 13.813 1.589 19.159 4.273 4.544 2.281 9.962-.801 10.365-5.87.113-1.423.125-2.875.029-4.348-.991-15.146-13.602-27.24-28.775-27.629-16.713-.428-30.396 12.992-30.396 29.608 0 .843.035 1.678.105 2.503.422 5.01 5.857 7.995 10.349 5.738 5.348-2.684 11.979-4.275 19.164-4.275z" fill="#fff"/><path d="m235.605 215.873c5.926 0 11.473 1.082 16.237 2.967.911-2.129 1.415-4.47 1.415-6.933 0-9.749-7.903-17.652-17.652-17.652s-17.652 7.903-17.652 17.652c0 2.463.504 4.803 1.415 6.933 4.764-1.885 10.312-2.967 16.237-2.967z" fill="#3b3b44"/></g><g fill="#d3f5f0"><path d="m151.602 35h-4.881c-5.523 0-10-4.478-10-10s4.477-10 10-10h4.881c5.523 0 10 4.478 10 10s-4.477 10-10 10z"/><path d="m99.529 83.102c-5.523 0-10-4.478-10-10v-23.478c0-9.123 3.527-17.736 9.932-24.256 3.873-3.938 10.204-3.994 14.142-.124 3.939 3.87 3.996 10.202.125 14.142-2.708 2.755-4.199 6.392-4.199 10.238v23.478c0 5.522-4.477 10-10 10z"/></g><g fill="#10bfa4"><path d="m129.165 121.373v-33.848c0-6.352 5.149-11.5 11.5-11.5s11.5 5.148 11.5 11.5v33.848z"/><path d="m194.487 121.373v-33.848c0-6.352 5.149-11.5 11.5-11.5s11.5 5.148 11.5 11.5v33.848z"/></g></g></svg>