<svg id="Capa_1" enable-background="new 0 0 502 502" height="512" viewBox="0 0 502 502" width="512" xmlns="http://www.w3.org/2000/svg" xmlns:xlink="http://www.w3.org/1999/xlink"><linearGradient id="SVGID_1_" gradientUnits="userSpaceOnUse" x1="266.23" x2="266.23" y1="390.434" y2="59.681"><stop offset="0" stop-color="#5bd9bb"/><stop offset=".2532" stop-color="#60dabd"/><stop offset=".5725" stop-color="#70dec4"/><stop offset=".9261" stop-color="#8ae4cf"/><stop offset="1" stop-color="#90e6d2"/></linearGradient><linearGradient id="SVGID_2_" gradientUnits="userSpaceOnUse" x1="142.914" x2="142.914" y1="454.919" y2="333.463"><stop offset="0" stop-color="#c5cccc"/><stop offset="1" stop-color="#e6e6e6"/></linearGradient><linearGradient id="lg1"><stop offset="0" stop-color="#41c4a6"/><stop offset=".216" stop-color="#46c6a9"/><stop offset=".4884" stop-color="#56cdb2"/><stop offset=".7898" stop-color="#70d7c0"/><stop offset="1" stop-color="#86e0cd"/></linearGradient><linearGradient id="SVGID_3_" gradientUnits="userSpaceOnUse" x1="65.991" x2="65.991" xlink:href="#lg1" y1="492.653" y2="377.093"/><linearGradient id="SVGID_4_" gradientUnits="userSpaceOnUse" x1="418.063" x2="418.063" xlink:href="#lg1" y1="161.259" y2="7.499"/><linearGradient id="SVGID_5_" gradientUnits="userSpaceOnUse" x1="129.248" x2="129.248" y1="233.579" y2="55.117"><stop offset="0" stop-color="#ec6f80"/><stop offset="1" stop-color="#eca0aa"/></linearGradient><linearGradient id="SVGID_6_" gradientUnits="userSpaceOnUse" x1="129.248" x2="129.248" y1="96.22" y2="195.667"><stop offset="0" stop-color="#f9edaf"/><stop offset="1" stop-color="#fffcdd"/></linearGradient><g><path d="m118.502 434.771 74.86-17.029c18.606-4.232 35.638-13.637 49.131-27.13l222.737-222.737-47.105-84.001-84-47.105-222.737 222.738c-13.493 13.493-22.898 30.524-27.13 49.131l-17.029 74.861z" fill="url(#SVGID_1_)"/><path d="m263.823 344.534c-6.834-6.834-17.915-6.834-24.749 0l-21.33 21.33c-8.839 8.84-19.955 14.977-32.143 17.751l-96.341 21.914 29.243 29.243 74.861-17.029c18.606-4.232 35.638-13.637 49.13-27.13l21.329-21.329c6.834-6.836 6.834-17.916 0-24.75z" fill="#10bfa4"/><path d="m93.69 283.402c22.026 13.875 49.636 34.985 69.78 55.129s41.254 47.754 55.129 69.78c-7.918 4.23-16.396 7.421-25.236 9.432l-74.861 17.029-51.273-51.273 17.029-74.861c2.011-8.841 5.202-17.318 9.432-25.236z" fill="url(#SVGID_2_)"/><path d="m185.601 383.614-96.341 21.914 29.243 29.243 74.861-17.029c8.84-2.011 17.317-5.202 25.235-9.432-5.693-9.038-12.616-19.017-20.179-29.033-4.094 1.868-8.384 3.328-12.819 4.337z" fill="#c2c8cf"/><path d="m8.281 417.959 43.383-43.383c6.078-6.078 15.933-6.078 22.012 0l53.748 53.748c6.078 6.078 6.078 15.933 0 22.012l-43.383 43.383c-11.042 11.042-28.944 11.042-39.985 0l-35.775-35.775c-11.041-11.041-11.041-28.943 0-39.985z" fill="url(#SVGID_3_)"/><path d="m494.538 138.568-29.307 29.307-131.106-131.105 29.307-29.307c9.95-9.95 26.082-9.95 36.032 0l95.073 95.073c9.95 9.95 9.95 26.082.001 36.032z" fill="url(#SVGID_4_)"/><g fill="#00b094"><path d="m365.22 42.503h66.925v23h-66.925z" transform="matrix(.707 -.707 .707 .707 78.584 297.727)"/><path d="m414.534 91.818h66.925v23h-66.925z" transform="matrix(.707 -.707 .707 .707 58.159 347.044)"/></g><g><path d="m246.714 285.505c4.688 4.688 3.759 13.216-2.074 19.049s-14.362 6.762-19.049 2.074c-4.688-4.688-3.759-13.216 2.074-19.049s14.361-6.761 19.049-2.074z" fill="#efc5db"/><path d="m371.003 161.216c4.688 4.688 3.759 13.216-2.074 19.049s-14.362 6.762-19.049 2.074c-4.688-4.688-3.759-13.216 2.074-19.049s14.361-6.761 19.049-2.074z" fill="#efc5db"/><circle cx="233.316" cy="257.017" fill="#fff" r="29.618"/><ellipse cx="241.777" cy="248.556" fill="#3b3b44" rx="17.652" ry="17.652" transform="matrix(.615 -.788 .788 .615 -102.929 286.162)"/><circle cx="321.391" cy="168.942" fill="#fff" r="29.618"/><g fill="#3b3b44"><circle cx="329.808" cy="160.525" r="17.652"/><ellipse cx="293.23" cy="228.855" rx="13.252" ry="17.352" transform="matrix(.707 -.707 .707 .707 -75.94 274.376)"/></g></g><g fill="#d3f5f0"><path d="m265.969 151.446c-2.56 0-5.118-.977-7.071-2.929-3.905-3.905-3.905-10.237 0-14.143l30.537-30.538c3.906-3.904 10.236-3.904 14.142 0 3.905 3.905 3.905 10.237 0 14.143l-30.537 30.538c-1.953 1.953-4.512 2.929-7.071 2.929z"/><path d="m325.146 92.27c-2.559 0-5.118-.976-7.07-2.929-3.905-3.904-3.906-10.236-.001-14.142l4.963-4.964c3.903-3.906 10.236-3.907 14.142-.001 3.905 3.904 3.906 10.236.001 14.142l-4.963 4.964c-1.953 1.953-4.513 2.93-7.072 2.93z"/></g><circle cx="129.248" cy="145.024" fill="url(#SVGID_5_)" r="91.694"/><path d="m147.076 123.569v-25.893c0-3.388-2.747-6.135-6.135-6.135h-23.385c-3.388 0-6.135 2.747-6.135 6.135v25.893c0 2.003-1.624 3.627-3.627 3.627h-25.893c-3.389 0-6.135 2.747-6.135 6.135v23.385c0 3.388 2.747 6.135 6.135 6.135h25.893c2.003 0 3.627 1.624 3.627 3.627v25.893c0 3.388 2.747 6.135 6.135 6.135h23.385c3.388 0 6.135-2.747 6.135-6.135v-25.893c0-2.003 1.624-3.627 3.627-3.627h25.893c3.388 0 6.135-2.747 6.135-6.135v-23.385c0-3.388-2.747-6.135-6.135-6.135h-25.893c-2.003 0-3.627-1.624-3.627-3.627z" fill="url(#SVGID_6_)"/></g></svg>