<svg id="Capa_1" enable-background="new 0 0 502 502" height="512" viewBox="0 0 502 502" width="512" xmlns="http://www.w3.org/2000/svg" xmlns:xlink="http://www.w3.org/1999/xlink"><linearGradient id="SVGID_1_" gradientUnits="userSpaceOnUse" x1="225.268" x2="399.938" y1="267.271" y2="267.271"><stop offset="0" stop-color="#c5cccc"/><stop offset="1" stop-color="#e6e6e6"/></linearGradient><linearGradient id="lg1"><stop offset="0" stop-color="#4e5660"/><stop offset="1" stop-color="#64768d"/></linearGradient><linearGradient id="SVGID_2_" gradientUnits="userSpaceOnUse" x1="347.29" x2="347.29" xlink:href="#lg1" y1="86.513" y2="38.75"/><linearGradient id="SVGID_3_" gradientUnits="userSpaceOnUse" x1="114.299" x2="-7.805" xlink:href="#lg1" y1="333.11" y2="333.11"/><linearGradient id="lg2"><stop offset="0" stop-color="#d4dbdb"/><stop offset="1" stop-color="#f3f3f3"/></linearGradient><linearGradient id="SVGID_4_" gradientUnits="userSpaceOnUse" x1="252.76" x2="252.76" xlink:href="#lg2" y1="250.372" y2="13.212"/><linearGradient id="SVGID_5_" gradientUnits="userSpaceOnUse" x1="133.07" x2="133.07" xlink:href="#lg2" y1="382.152" y2="208.39"/><linearGradient id="SVGID_6_" gradientUnits="userSpaceOnUse" x1="415.042" x2="415.042" xlink:href="#lg2" y1="446.129" y2="316.504"/><g><path d="m184.167 228.941 67.259-67.259 143.918 143.918-13.947 50.774-53.312 16.485z" fill="url(#SVGID_1_)"/><path d="m251.426 161.682-67.259 67.259 87.754 87.754c6.834 6.834 17.915 6.834 24.749 0 6.834-6.834 6.834-17.915 0-24.749l-27.579-27.579 42.51-42.51z" fill="#b9bec4"/><path d="m379.767 85.76c14.475-14.475 14.475-37.944 0-52.419s-37.944-14.475-52.419 0l-23.391 23.391 52.419 52.419z" fill="url(#SVGID_2_)"/><path d="m116.815 393.066c-26.723 26.723-70.049 26.723-96.773 0-26.723-26.723-26.723-70.049 0-96.773l43.183-43.183 96.773 96.773z" fill="url(#SVGID_3_)"/><path d="m211.637 272.323 147.037-147.037c8.082-8.082 8.082-21.185 0-29.267l-41.584-41.584c-8.082-8.082-21.185-8.082-29.267 0l-147.038 147.037z" fill="url(#SVGID_4_)"/><path d="m230.233 302.511-74.69 74.69c-7.595 7.595-19.91 7.595-27.505 0l-92.13-92.13c-7.595-7.595-7.595-19.91 0-27.505l74.69-74.69c7.595-7.595 19.91-7.595 27.505 0l92.13 92.13c7.595 7.596 7.595 19.91 0 27.505z" fill="url(#SVGID_5_)"/><path d="m328.085 372.859 67.259-67.259 95.212 95.212c15.259 15.259 15.259 39.999 0 55.258l-12.001 12.001c-15.259 15.259-39.999 15.259-55.258 0z" fill="url(#SVGID_6_)"/><g fill="#fff"><path d="m248.884 139.177c-2.56 0-5.118-.977-7.071-2.929-3.905-3.905-3.905-10.237 0-14.143l22.145-22.144c3.907-3.904 10.237-3.902 14.143 0 3.905 3.905 3.905 10.237 0 14.143l-22.145 22.144c-1.954 1.952-4.514 2.929-7.072 2.929z"/><path d="m299.73 88.331c-2.56 0-5.119-.977-7.072-2.93-3.904-3.906-3.903-10.238.002-14.143l3.045-3.044c3.908-3.904 10.238-3.903 14.143.002 3.904 3.906 3.903 10.238-.002 14.143l-3.045 3.044c-1.954 1.953-4.513 2.928-7.071 2.928z"/></g></g></svg>