<svg id="Capa_1" enable-background="new 0 0 502 502" height="512" viewBox="0 0 502 502" width="512" xmlns="http://www.w3.org/2000/svg" xmlns:xlink="http://www.w3.org/1999/xlink"><linearGradient id="SVGID_1_" gradientUnits="userSpaceOnUse" x1="246.822" x2="246.822" y1="192.359" y2="-1.117"><stop offset="0" stop-color="#41c4a6"/><stop offset=".216" stop-color="#46c6a9"/><stop offset=".4884" stop-color="#56cdb2"/><stop offset=".7898" stop-color="#70d7c0"/><stop offset="1" stop-color="#86e0cd"/></linearGradient><linearGradient id="SVGID_2_" gradientUnits="userSpaceOnUse" x1="363.511" x2="363.511" y1="349.614" y2="130.695"><stop offset="0" stop-color="#5bd9bb"/><stop offset=".2532" stop-color="#60dabd"/><stop offset=".5725" stop-color="#70dec4"/><stop offset=".9261" stop-color="#8ae4cf"/><stop offset="1" stop-color="#90e6d2"/></linearGradient><linearGradient id="SVGID_3_" gradientUnits="userSpaceOnUse" x1="183.366" x2="183.366" y1="491.378" y2="73.611"><stop offset="0" stop-color="#f5e5a2"/><stop offset="1" stop-color="#fcf7cf"/></linearGradient><linearGradient id="SVGID_4_" gradientUnits="userSpaceOnUse" x1="138.188" x2="285.15" y1="317.151" y2="317.151"><stop offset="0" stop-color="#f4c22c"/><stop offset="1" stop-color="#f9e198"/></linearGradient><g><path d="m141.35 179.596c5.186 58.319 47.463 106.012 106.012 106.012s106.012-47.463 106.012-106.012c0-73.908-77.148-139.433-140.893-174.161-17.651-9.616-39.683-.959-45.988 18.127-19.315 58.464-29.746 104.271-25.143 156.034z" fill="url(#SVGID_1_)"/><path d="m263.024 238.896c-5.682 0-10.622-4.209-11.386-9.995-4.292-32.492-26.401-99.316-45.495-137.504-2.84-5.681-.538-12.588 5.143-15.429 5.68-2.841 12.588-.537 15.429 5.144 20.343 40.687 43.09 109.693 47.724 144.777.832 6.297-3.599 12.075-9.895 12.907-.51.067-1.018.1-1.52.1z" fill="#00b094"/><path d="m405.996 342.298c-44.904 37.571-108.523 41.4-149.924 0-41.4-41.4-41.4-108.523 0-149.924 52.261-52.261 153.146-44.042 222.777-23.524 19.28 5.681 28.738 27.382 19.701 45.336-27.684 54.999-52.698 94.765-92.554 128.112z" fill="url(#SVGID_2_)"/><path d="m359.025 286.605-65.262-65.262c-6.834-6.834-17.915-6.834-24.749 0-6.834 6.834-6.834 17.915 0 24.749l65.262 65.262c15.536 15.536 25.493 34.537 29.874 54.515 11.141-3.729 21.96-9.137 32.059-16.122-6.695-23.635-19.337-45.296-37.184-63.142z" fill="#10bfa4"/><path d="m277.474 307.559c-2.483 0-4.984-.801-7.089-2.452-4.998-3.92-5.871-11.148-1.952-16.146 32.543-41.492 82.094-69.017 135.949-75.517 6.302-.765 12.034 3.734 12.795 10.039.761 6.306-3.733 12.034-10.039 12.795-67.946 8.201-106.979 49.501-120.607 66.877-2.269 2.892-5.646 4.404-9.057 4.404z" fill="#10bfa4"/><path d="m334.276 468.062c43.274-43.274 43.274-113.435 0-156.709l-145.112-145.112c-43.274-43.274-113.435-43.274-156.708 0-43.274 43.274-43.274 113.435 0 156.709l145.112 145.112c43.274 43.274 113.434 43.274 156.708 0z" fill="url(#SVGID_3_)"/><path d="m279.92 256.996-36.399-36.398-156.709 156.708 36.399 36.399z" fill="url(#SVGID_4_)"/><g><path d="m122.331 275.021c-4.688 4.688-13.216 3.759-19.049-2.074s-6.761-14.362-2.074-19.049c4.688-4.688 13.216-3.759 19.049 2.074 5.833 5.832 6.762 14.361 2.074 19.049z" fill="#eaadcd"/><path d="m246.62 399.309c-4.688 4.688-13.216 3.759-19.049-2.074s-6.762-14.362-2.074-19.049c4.688-4.688 13.216-3.759 19.049 2.074s6.762 14.362 2.074 19.049z" fill="#eaadcd"/><circle cx="150.819" cy="261.623" fill="#fff" r="29.618"/><circle cx="142.358" cy="253.162" fill="#3b3b44" r="17.652"/><circle cx="238.894" cy="349.698" fill="#fff" r="29.618"/><g fill="#3b3b44"><ellipse cx="230.434" cy="341.237" rx="17.652" ry="17.652" transform="matrix(.851 -.526 .526 .851 -144.984 172.109)"/><path d="m195.137 316.115-10.734-10.734c-2.126-2.126-5.398-2.603-8.038-1.163-8.317 4.538-23.681 15.561-9.653 29.589s25.051-1.336 29.589-9.653c1.439-2.641.963-5.913-1.164-8.039z"/></g></g></g></svg>