<svg id="Capa_1" enable-background="new 0 0 502 502" height="512" viewBox="0 0 502 502" width="512" xmlns="http://www.w3.org/2000/svg" xmlns:xlink="http://www.w3.org/1999/xlink"><linearGradient id="lg1"><stop offset="0" stop-color="#d4dbdb"/><stop offset="1" stop-color="#f3f3f3"/></linearGradient><linearGradient id="SVGID_1_" gradientUnits="userSpaceOnUse" x1="139.983" x2="384.103" xlink:href="#lg1" y1="385.587" y2="385.587"/><linearGradient id="SVGID_2_" gradientUnits="userSpaceOnUse" x1="188.529" x2="333.043" xlink:href="#lg1" y1="110.106" y2="110.106"/><linearGradient id="lg2"><stop offset="0" stop-color="#53aae6"/><stop offset="1" stop-color="#a4d2f0"/></linearGradient><linearGradient id="SVGID_3_" gradientUnits="userSpaceOnUse" x1="251" x2="251" xlink:href="#lg2" y1="180.438" y2="112.378"/><linearGradient id="SVGID_4_" gradientUnits="userSpaceOnUse" x1="251" x2="251" xlink:href="#lg2" y1="300.979" y2="201.965"/><linearGradient id="SVGID_5_" gradientUnits="userSpaceOnUse" x1="251" x2="251" xlink:href="#lg2" y1="461.361" y2="362.623"/><g><path d="m337.961 269.174h-173.922l-9.637 16.09c-12.967 21.648-19.815 46.409-19.815 71.644v100.18c0 24.805 20.108 44.913 44.913 44.913h143c24.805 0 44.913-20.108 44.913-44.913v-100.18c0-25.234-6.848-49.996-19.815-71.644z" fill="url(#SVGID_1_)"/><path d="m172.591 220.212c0-76.906 40.106-143.499 52.041-205.072 1.707-8.806 9.453-15.14 18.423-15.14h15.891c8.97 0 16.715 6.334 18.422 15.14 11.935 61.573 52.041 128.166 52.041 205.072z" fill="url(#SVGID_2_)"/><path d="m251 173.311c-34.721 0-71.638-4.322-86.751-7.045-11.34-2.044-18.877-12.893-16.833-24.234 2.045-11.339 12.893-18.878 24.234-16.832 14.284 2.574 49.381 6.384 79.35 6.384s65.066-3.81 79.35-6.384c11.342-2.037 22.19 5.492 24.234 16.832 2.044 11.341-5.492 22.19-16.833 24.234-15.113 2.723-52.03 7.045-86.751 7.045z" fill="url(#SVGID_3_)"/><path d="m329.243 320.902c0-8.284-6.716-15-15-15h-161.829c-2.679 0-5.268-.383-7.723-1.083-3.745 9.301-6.483 18.977-8.153 28.861 5.05 1.437 10.371 2.223 15.875 2.223h161.829c8.285-.001 15.001-6.717 15.001-15.001z" fill="#c2c8cf"/><path d="m349.586 305.902h-197.172c-15.517 0-28.096-12.579-28.096-28.096v-22.816c0-19.856 16.096-35.952 35.952-35.952h181.459c19.856 0 35.952 16.096 35.952 35.952v22.816c0 15.517-12.578 28.096-28.095 28.096z" fill="url(#SVGID_4_)"/><path d="m297.182 377.221h-92.364c-11.908 0-21.561 9.653-21.561 21.561v43.584c0 11.908 9.653 21.561 21.561 21.561h92.364c11.908 0 21.561-9.653 21.561-21.561v-43.584c0-11.908-9.653-21.561-21.561-21.561z" fill="url(#SVGID_5_)"/><g><ellipse cx="163.114" cy="403.91" fill="#eaadcd" rx="14.936" ry="12.003"/><ellipse cx="338.886" cy="403.91" fill="#eaadcd" rx="14.936" ry="12.003"/><circle cx="188.721" cy="374.292" fill="#fff" r="29.618"/><circle cx="313.279" cy="374.292" fill="#fff" r="29.618"/><path d="m178.938 384.722c-1.222 0-2.46-.299-3.607-.929-3.63-1.996-4.954-6.556-2.959-10.186 3.279-5.964 9.543-9.669 16.349-9.669 6.806.001 13.07 3.705 16.348 9.669 1.996 3.63.67 8.191-2.959 10.186-3.628 1.996-8.19.67-10.185-2.959-.94-1.71-2.554-1.895-3.204-1.896-.65 0-2.264.185-3.205 1.896-1.364 2.483-3.931 3.888-6.578 3.888z" fill="#3b3b44"/><path d="m323.062 384.722c-2.647.001-5.213-1.404-6.579-3.888-.94-1.71-2.554-1.896-3.205-1.896-.65.001-2.264.185-3.204 1.896-1.995 3.628-6.556 4.954-10.185 2.959-3.63-1.995-4.955-6.556-2.959-10.186 3.278-5.964 9.542-9.668 16.348-9.669 6.806 0 13.07 3.705 16.349 9.669 1.996 3.63.671 8.19-2.959 10.186-1.146.63-2.385.929-3.606.929z" fill="#3b3b44"/><g><path d="m262.671 414.096h-23.342c-6.508 0-11.784-5.276-11.784-11.784 0-6.508 5.276-11.784 11.784-11.784h23.342c6.508 0 11.784 5.276 11.784 11.784 0 6.508-5.276 11.784-11.784 11.784z" fill="#3b3b44"/></g></g><g fill="#0099cf"><path d="m291.484 219.039h20v86.863h-20z"/><path d="m190.516 219.039h20v86.863h-20z"/></g><g fill="#fff"><path d="m256.927 35.004c-4.603 0-8.745-3.197-9.762-7.879-.232-1.067-.458-2.136-.677-3.205-1.109-5.411 2.377-10.696 7.788-11.805 5.41-1.122 10.695 2.378 11.805 7.787.204.993.413 1.985.628 2.977 1.173 5.396-2.252 10.723-7.649 11.895-.715.156-1.43.23-2.133.23z"/><path d="m280.058 108.993c-4.117 0-7.973-2.562-9.426-6.663l-1.63-4.594c-3.814-10.741-7.417-20.889-10.792-31.158-1.725-5.246 1.131-10.897 6.378-12.622 5.245-1.726 10.898 1.131 12.622 6.378 3.302 10.045 6.866 20.084 10.639 30.712l1.634 4.604c1.845 5.206-.88 10.921-6.086 12.766-1.103.392-2.23.577-3.339.577z"/></g></g></svg>