<svg id="Capa_1" enable-background="new 0 0 502 502" height="512" viewBox="0 0 502 502" width="512" xmlns="http://www.w3.org/2000/svg" xmlns:xlink="http://www.w3.org/1999/xlink"><linearGradient id="SVGID_1_" gradientUnits="userSpaceOnUse" x1="251" x2="251" y1="160.91" y2="-12.887"><stop offset="0" stop-color="#f4d952"/><stop offset="1" stop-color="#f9edaf"/></linearGradient><linearGradient id="SVGID_2_" gradientUnits="userSpaceOnUse" x1="298.81" x2="298.81" y1="123.331" y2="16.026"><stop offset="0" stop-color="#e896a1"/><stop offset="1" stop-color="#f2d3da"/></linearGradient><linearGradient id="SVGID_3_" gradientUnits="userSpaceOnUse" x1="203.19" x2="203.19" y1="141.942" y2="56.655"><stop offset="0" stop-color="#dd5c6e"/><stop offset="1" stop-color="#ec8290"/></linearGradient><linearGradient id="SVGID_4_" gradientUnits="userSpaceOnUse" x1="251" x2="251" y1="247.316" y2="519.806"><stop offset="0" stop-color="#d4dbdb"/><stop offset="1" stop-color="#f3f3f3"/></linearGradient><linearGradient id="lg1"><stop offset="0" stop-color="#5bd9bb"/><stop offset=".2532" stop-color="#60dabd"/><stop offset=".5725" stop-color="#70dec4"/><stop offset=".9261" stop-color="#8ae4cf"/><stop offset="1" stop-color="#90e6d2"/></linearGradient><linearGradient id="SVGID_5_" gradientUnits="userSpaceOnUse" x1="193.829" x2="193.829" xlink:href="#lg1" y1="316.807" y2="175.552"/><linearGradient id="lg2"><stop offset="0" stop-color="#41c4a6"/><stop offset=".216" stop-color="#46c6a9"/><stop offset=".4884" stop-color="#56cdb2"/><stop offset=".7898" stop-color="#70d7c0"/><stop offset="1" stop-color="#86e0cd"/></linearGradient><linearGradient id="SVGID_6_" gradientUnits="userSpaceOnUse" x1="88.055" x2="88.055" xlink:href="#lg2" y1="305.573" y2="165.38"/><linearGradient id="SVGID_7_" gradientUnits="userSpaceOnUse" x1="413.945" x2="413.945" xlink:href="#lg1" y1="316.807" y2="175.552"/><linearGradient id="SVGID_8_" gradientUnits="userSpaceOnUse" x1="308.171" x2="308.171" xlink:href="#lg2" y1="305.573" y2="165.38"/><linearGradient id="lg3"><stop offset="0" stop-color="#53aae6"/><stop offset="1" stop-color="#a4d2f0"/></linearGradient><linearGradient id="SVGID_9_" gradientUnits="userSpaceOnUse" x1="251" x2="251" xlink:href="#lg3" y1="497.681" y2="359.977"/><linearGradient id="SVGID_10_" gradientUnits="userSpaceOnUse" x1="82.437" x2="82.437" xlink:href="#lg3" y1="448.425" y2="377.186"/><linearGradient id="SVGID_11_" gradientUnits="userSpaceOnUse" x1="419.564" x2="419.564" xlink:href="#lg3" y1="448.425" y2="377.186"/><g><path d="m198.309 183.881c-50.696 0-91.94-41.244-91.94-91.94s41.244-91.94 91.94-91.94h105.382c50.695 0 91.939 41.244 91.939 91.94s-41.244 91.94-91.939 91.94z" fill="url(#SVGID_1_)"/><g><path d="m251 139.751v-95.621h47.81c26.405 0 47.81 21.405 47.81 47.81 0 26.405-21.405 47.81-47.81 47.81h-47.81z" fill="url(#SVGID_2_)"/><path d="m251 139.751v-95.621h-47.81c-26.405 0-47.81 21.405-47.81 47.81 0 26.405 21.405 47.81 47.81 47.81h47.81z" fill="url(#SVGID_3_)"/></g><path d="m432.614 405.269 10.882-31.401v-128.134h-384.992v128.133l9.122 31.401-9.122 31.401v18.488c0 25.87 20.972 46.842 46.842 46.842h59.279l86.375-17.778 86.375 17.779h59.279c25.87 0 46.841-20.972 46.841-46.842v-18.488z" fill="url(#SVGID_4_)"/><path d="m193.838 327.797c31.57 0 57.162-25.592 57.162-57.162v-86.755h-98.388l-14.865 75.746c-6.931 35.315 20.103 68.171 56.091 68.171z" fill="url(#SVGID_5_)"/><path d="m78.859 327.797c26.439 0 49.181-18.712 54.272-44.657l19.48-99.26h-66.097c-19.479 0-36.971 11.926-44.088 30.058l-15.05 38.343c-14.241 36.282 12.508 75.516 51.483 75.516z" fill="url(#SVGID_6_)"/><path d="m423.141 327.797c38.975 0 65.724-39.235 51.484-75.515l-15.05-38.343c-7.117-18.132-24.61-30.058-44.088-30.058h-66.098l19.48 99.26c5.091 25.944 27.833 44.656 54.272 44.656z" fill="url(#SVGID_7_)"/><path d="m308.162 327.797c35.988 0 63.022-32.856 56.092-68.17l-14.866-75.746h-98.388v86.755c0 31.569 25.592 57.161 57.162 57.161z" fill="url(#SVGID_8_)"/><path d="m297.425 373.867h-92.851c-22.064 0-39.95 17.886-39.95 39.95v88.183h172.751v-88.183c0-22.063-17.886-39.95-39.95-39.95z" fill="url(#SVGID_9_)"/><path d="m241 373.867h20v128.133h-20z" fill="#0099cf"/><path d="m87.361 436.67h-28.857v-62.803h28.857c10.497 0 19.007 8.51 19.007 19.007v24.788c.001 10.498-8.509 19.008-19.007 19.008z" fill="url(#SVGID_10_)"/><path d="m414.639 436.67h28.857v-62.803h-28.857c-10.497 0-19.007 8.51-19.007 19.007v24.788c-.001 10.498 8.509 19.008 19.007 19.008z" fill="url(#SVGID_11_)"/><g><ellipse cx="163.114" cy="255.204" fill="#efc5db" rx="14.936" ry="12.003"/><ellipse cx="338.886" cy="255.204" fill="#efc5db" rx="14.936" ry="12.003"/><circle cx="188.721" cy="225.586" fill="#fff" r="29.618"/><ellipse cx="200.687" cy="225.586" fill="#3b3b44" rx="17.652" ry="17.652" transform="matrix(.228 -.974 .974 .228 -64.719 369.546)"/><circle cx="313.279" cy="225.586" fill="#fff" r="29.618"/><g fill="#3b3b44"><path d="m342.834 225.586c0 9.749-7.903 17.652-17.652 17.652s-17.653-7.903-17.653-17.652 7.903-17.652 17.653-17.652c9.749 0 17.652 7.903 17.652 17.652z"/><ellipse cx="251" cy="248.038" rx="13.252" ry="17.352"/></g></g><path d="m419.958 341.265c.408-7.085-4.205-13.501-11.062-15.328-20.025-5.333-35.881-21.665-40.028-42.796l-4.614-23.51c6.928 35.313-20.106 68.167-56.092 68.167-31.57 0-57.162-25.592-57.162-57.162 0 31.569-25.592 57.162-57.162 57.162-35.988 0-63.022-32.856-56.092-68.169l-4.615 23.513c-5.092 25.944-27.833 44.656-54.272 44.656-7.273 0-14.12-1.367-20.355-3.826v31.363c6.587 1.617 13.413 2.463 20.355 2.463 21.692 0 41.831-8.241 57.089-21.986 15.837 14.102 36.311 21.986 57.89 21.986 21.851 0 41.848-8.081 57.162-21.413 15.314 13.332 35.31 21.413 57.162 21.413 21.579 0 42.053-7.884 57.89-21.986 9.905 8.923 21.867 15.525 34.975 19.06 9.209 2.481 18.384-4.086 18.931-13.607z" fill="#c2c8cf"/><g fill="#fffde6"><path d="m337.415 38.412c-1.587 0-3.197-.379-4.695-1.178-8.879-4.732-18.916-7.234-29.029-7.234h-21.258c-5.523 0-10-4.478-10-10s4.477-10 10-10h21.258c13.382 0 26.673 3.314 38.436 9.586 4.874 2.598 6.719 8.654 4.12 13.528-1.798 3.375-5.257 5.298-8.832 5.298z"/><path d="m368.738 71.21c-3.742 0-7.331-2.109-9.041-5.716-.644-1.355-1.347-2.706-2.089-4.016-2.726-4.803-1.041-10.906 3.763-13.632 4.801-2.728 10.907-1.041 13.632 3.763.983 1.73 1.912 3.518 2.763 5.313 2.368 4.989.242 10.953-4.748 13.321-1.384.656-2.843.967-4.28.967z"/></g></g></svg>