<svg id="Capa_1" enable-background="new 0 0 502 502" height="512" viewBox="0 0 502 502" width="512" xmlns="http://www.w3.org/2000/svg" xmlns:xlink="http://www.w3.org/1999/xlink"><linearGradient id="SVGID_1_" gradientUnits="userSpaceOnUse" x1="201.815" x2="201.815" y1="206.512" y2="12.489"><stop offset="0" stop-color="#dd5c6e"/><stop offset="1" stop-color="#ec8290"/></linearGradient><linearGradient id="lg1"><stop offset="0" stop-color="#eca0aa"/><stop offset="1" stop-color="#f8dde3"/></linearGradient><linearGradient id="SVGID_2_" gradientUnits="userSpaceOnUse" x1="201.815" x2="201.815" xlink:href="#lg1" y1="93.198" y2="-15.872"/><linearGradient id="SVGID_3_" gradientUnits="userSpaceOnUse" x1="201.815" x2="201.815" xlink:href="#lg1" y1="439.253" y2="64.928"/><linearGradient id="SVGID_4_" gradientUnits="userSpaceOnUse" x1="377.386" x2="377.386" y1="492.158" y2="262.63"><stop offset="0" stop-color="#f4d952"/><stop offset="1" stop-color="#f9edaf"/></linearGradient><g><path d="m231.091 1.788c-9.947 4.335-19.316 6.042-29.275 6.042-9.96 0-19.329-1.707-29.275-6.042-89.674 11.023-158.272 71.868-158.272 145.282 0 81.224 83.967 102.424 187.547 102.424s187.547-21.2 187.547-102.424c-.001-73.414-68.599-134.259-158.272-145.282z" fill="url(#SVGID_1_)"/><path d="m238.842 58.487c0-23.541-18.382-15.021-7.752-56.7-9.539-1.172-19.315-1.787-29.275-1.787s-19.736.615-29.276 1.787c10.63 41.678-7.751 33.158-7.751 56.7 0 19.424 16.578 35.17 37.027 35.17 20.45 0 37.027-15.746 37.027-35.17z" fill="url(#SVGID_2_)"/><path d="m339.502 215.673c0-71.845-77.571-90.377-117.486-63.656-2.749 1.841-5.679 3.246-8.701 4.264-7.242 6.638-15.29 6.765-23 0-3.022-1.017-5.952-2.423-8.701-4.263-39.915-26.721-117.486-8.189-117.486 63.656v109.934c0 76.043 61.644 137.687 137.687 137.687 76.042 0 137.687-61.645 137.687-137.687z" fill="url(#SVGID_3_)"/><path d="m213.315 321.442v-165.162c-7.472 2.516-15.528 2.516-23 0v165.162c0 6.352 5.148 11.5 11.5 11.5s11.5-5.148 11.5-11.5z" fill="#e88792"/><path d="m471.779 486.048c-21.269 21.269-55.753 21.269-77.022 0l-111.764-111.764c-21.269-21.269-21.269-55.753 0-77.022 21.269-21.269 55.753-21.269 77.022 0l111.764 111.764c21.269 21.269 21.269 55.753 0 77.022z" fill="url(#SVGID_4_)"/><path d="m254.708 349.039c-9.251 1.999-14.342 11.971-10.555 20.645 4.093 9.375 9.967 18.154 17.626 25.813l32.303 32.303c7.444-6.725 14.152-14.25 19.984-22.443l-31.073-31.073c-4.988-4.988-8.805-10.702-11.454-16.802-2.809-6.473-9.933-9.933-16.831-8.443z" fill="#e88792"/><g fill="#fff5f6"><path d="m92.616 217.724c-.412 0-.829-.025-1.249-.078-5.48-.683-9.37-5.679-8.687-11.159.376-3.02.954-5.966 1.718-8.754 1.457-5.328 6.958-8.468 12.285-7.004 5.327 1.458 8.463 6.959 7.004 12.285-.512 1.87-.902 3.87-1.161 5.945-.63 5.061-4.938 8.765-9.91 8.765z"/><path d="m161.21 182.598c-1.403.001-2.827-.296-4.185-.922-8.903-4.109-21.446-4.386-31.956-.703-5.212 1.828-10.918-.919-12.743-6.132-1.826-5.212.919-10.918 6.132-12.743 15.385-5.39 33.374-4.846 46.948 1.418 5.015 2.314 7.203 8.256 4.89 13.271-1.689 3.656-5.307 5.811-9.086 5.811z"/></g></g></svg>