<svg id="Capa_1" enable-background="new 0 0 502 502" height="512" viewBox="0 0 502 502" width="512" xmlns="http://www.w3.org/2000/svg" xmlns:xlink="http://www.w3.org/1999/xlink"><linearGradient id="SVGID_1_" gradientUnits="userSpaceOnUse" x1="251" x2="251" y1="462.017" y2="14.17"><stop offset="0" stop-color="#53aae6"/><stop offset="1" stop-color="#a4d2f0"/></linearGradient><linearGradient id="SVGID_2_" gradientUnits="userSpaceOnUse" x1="251" x2="251" y1="182.225" y2="72.486"><stop offset="0" stop-color="#f9edaf"/><stop offset="1" stop-color="#fffcdd"/></linearGradient><linearGradient id="lg1"><stop offset="0" stop-color="#4e5660"/><stop offset="1" stop-color="#64768d"/></linearGradient><linearGradient id="SVGID_3_" gradientUnits="userSpaceOnUse" x1="104.699" x2="104.699" xlink:href="#lg1" y1="574.578" y2="77.603"/><linearGradient id="SVGID_4_" gradientUnits="userSpaceOnUse" x1="397.3" x2="397.3" xlink:href="#lg1" y1="574.578" y2="77.603"/><linearGradient id="SVGID_5_" gradientUnits="userSpaceOnUse" x1="251" x2="251" xlink:href="#lg1" y1="203.022" y2="29.031"/><g><g><path d="m382.525 61.734.007-.005c-39.667-5.796-83.103-8.774-131.532-8.774s-91.865 2.978-131.532 8.774l.007.005c-87.106 70.14-9.53 321.16 60.769 412.558h141.512c70.298-91.398 147.875-342.418 60.769-412.558z" fill="url(#SVGID_1_)"/><ellipse cx="251" cy="117.648" fill="url(#SVGID_2_)" rx="78.868" ry="67.229"/><path d="m257.804 204.354c-4.697 0-9.107-2.899-10.808-7.569l-29.008-79.699c-2.172-5.969.905-12.567 6.873-14.74 5.974-2.173 12.567.905 14.74 6.873l29.008 79.699c2.172 5.969-.905 12.567-6.873 14.74-1.298.473-2.626.696-3.932.696z" fill="#e06c7b"/><g><path d="m105.489 117.648c0-19.745 4.831-38.721 13.986-55.914-24.559 3.588-47.682 8.25-69.635 13.966-33.644 8.76-54.881 41.938-48.805 76.169l44.742 252.074c7.224 40.697 42.601 70.349 83.935 70.349h50.532c16.102 0 29.155-13.053 29.155-29.155v-176.913c0-14.596-8.587-27.893-21.981-33.692-47.815-20.701-81.929-64.172-81.929-116.884z" fill="url(#SVGID_3_)"/><path d="m452.159 75.7c-21.953-5.716-45.076-10.378-69.635-13.966 9.154 17.194 13.986 36.169 13.986 55.914 0 52.653-34.085 96.17-81.934 116.888-13.392 5.798-21.975 19.096-21.975 33.689v176.912c0 16.102 13.053 29.155 29.155 29.155h50.532c41.333 0 76.711-29.652 83.935-70.349l44.742-252.074c6.075-34.231-15.162-67.409-48.806-76.169z" fill="url(#SVGID_4_)"/></g></g><path d="m251 27.708c-58.272 0-105.511 40.268-105.511 89.94s47.239 89.94 105.511 89.94 105.511-40.268 105.511-89.94c-.001-49.673-47.239-89.94-105.511-89.94zm0 146.449c-36.612 0-66.292-25.3-66.292-56.509s29.68-56.509 66.292-56.509 66.292 25.3 66.292 56.509-29.68 56.509-66.292 56.509z" fill="url(#SVGID_5_)"/><g><ellipse cx="163.114" cy="358.629" fill="#eaadcd" rx="14.936" ry="12.003"/><ellipse cx="338.885" cy="358.629" fill="#eaadcd" rx="14.936" ry="12.003"/><circle cx="188.721" cy="329.011" fill="#fff" r="29.618"/><ellipse cx="200.687" cy="329.012" fill="#3b3b44" rx="17.652" ry="17.652" transform="matrix(.23 -.973 .973 .23 -165.632 448.738)"/><circle cx="313.278" cy="329.011" fill="#fff" r="29.618"/><g fill="#3b3b44"><ellipse cx="325.182" cy="329.012" rx="17.652" ry="17.652" transform="matrix(.707 -.707 .707 .707 -137.403 326.304)"/><ellipse cx="251" cy="351.464" rx="13.252" ry="17.352"/></g></g><path d="m159.103 456.792c0-9.665-7.835-17.5-17.5-17.5h-11.892c-24.402 0-45.209-17.439-49.474-41.465l-6.647-37.451c-1.729-9.741-11.183-16.113-20.861-14.061-9.233 1.958-15.25 10.885-13.6 20.178l6.647 37.451c7.223 40.697 42.601 70.349 83.935 70.349h11.892c9.665-.001 17.5-7.836 17.5-17.501z" fill="#3d4857"/><g fill="#8196ab"><path d="m470.987 141.876c-4.525 0-8.627-3.093-9.72-7.689-.569-2.395-1.469-4.707-2.673-6.872-2.685-4.827-.947-10.916 3.879-13.6 4.826-2.686 10.916-.947 13.6 3.879 2.094 3.766 3.659 7.791 4.651 11.966 1.278 5.373-2.042 10.765-7.415 12.042-.777.186-1.555.274-2.322.274z"/><path d="m457.22 236.731c-.58 0-1.168-.051-1.76-.156-5.438-.965-9.063-6.155-8.098-11.594l9.73-54.818c.965-5.438 6.143-9.069 11.594-8.098 5.438.965 9.063 6.155 8.098 11.594l-9.73 54.818c-.86 4.847-5.077 8.254-9.834 8.254z"/></g></g></svg>