<svg id="Capa_1" enable-background="new 0 0 502 502" height="512" viewBox="0 0 502 502" width="512" xmlns="http://www.w3.org/2000/svg" xmlns:xlink="http://www.w3.org/1999/xlink"><linearGradient id="lg1"><stop offset="0" stop-color="#d4dbdb"/><stop offset="1" stop-color="#f3f3f3"/></linearGradient><linearGradient id="SVGID_1_" gradientUnits="userSpaceOnUse" x1="143.622" x2="54.641" xlink:href="#lg1" y1="421.47" y2="421.47"/><linearGradient id="SVGID_2_" gradientTransform="matrix(-1 0 0 1 3030 0)" gradientUnits="userSpaceOnUse" x1="2671.622" x2="2582.641" xlink:href="#lg1" y1="421.47" y2="421.47"/><linearGradient id="SVGID_3_" gradientUnits="userSpaceOnUse" x1="251" x2="251" xlink:href="#lg1" y1="293.087" y2="478.031"/><linearGradient id="lg2"><stop offset="0" stop-color="#f4d952"/><stop offset="1" stop-color="#f9edaf"/></linearGradient><linearGradient id="SVGID_4_" gradientUnits="userSpaceOnUse" x1="251" x2="251" xlink:href="#lg2" y1="361.753" y2="501.912"/><linearGradient id="lg3"><stop offset="0" stop-color="#5bd9bb"/><stop offset=".2532" stop-color="#60dabd"/><stop offset=".5725" stop-color="#70dec4"/><stop offset=".9261" stop-color="#8ae4cf"/><stop offset="1" stop-color="#90e6d2"/></linearGradient><linearGradient id="SVGID_5_" gradientUnits="userSpaceOnUse" x1="169.745" x2="169.745" xlink:href="#lg3" y1="340.718" y2="477.853"/><linearGradient id="SVGID_6_" gradientTransform="matrix(-1 0 0 1 3030 0)" gradientUnits="userSpaceOnUse" x1="2697.872" x2="2697.872" xlink:href="#lg3" y1="340.718" y2="477.853"/><linearGradient id="lg4"><stop offset="0" stop-color="#4e5660"/><stop offset="1" stop-color="#64768d"/></linearGradient><linearGradient id="SVGID_7_" gradientUnits="userSpaceOnUse" x1="99.194" x2="2.083" xlink:href="#lg4" y1="280.659" y2="280.659"/><linearGradient id="SVGID_8_" gradientUnits="userSpaceOnUse" x1="131.498" x2="35.754" xlink:href="#lg4" y1="351.038" y2="351.038"/><linearGradient id="SVGID_9_" gradientUnits="userSpaceOnUse" x1="120.302" x2="120.302" xlink:href="#lg4" y1="448.178" y2="366.017"/><linearGradient id="lg5"><stop offset="0" stop-color="#ad7d63"/><stop offset="1" stop-color="#cb9d82"/></linearGradient><linearGradient id="SVGID_10_" gradientUnits="userSpaceOnUse" x1="64.374" x2="8" xlink:href="#lg5" y1="210.545" y2="210.545"/><linearGradient id="SVGID_11_" gradientUnits="userSpaceOnUse" x1="71.534" x2="14.324" xlink:href="#lg2" y1="257.802" y2="257.802"/><linearGradient id="SVGID_12_" gradientTransform="matrix(-1 0 0 1 3030 0)" gradientUnits="userSpaceOnUse" x1="2592.374" x2="2536" xlink:href="#lg5" y1="210.545" y2="210.545"/><linearGradient id="SVGID_13_" gradientTransform="matrix(-1 0 0 1 902 0)" gradientUnits="userSpaceOnUse" x1="471.534" x2="414.324" xlink:href="#lg2" y1="257.802" y2="257.802"/><linearGradient id="SVGID_14_" gradientUnits="userSpaceOnUse" x1="251" x2="251" xlink:href="#lg5" y1="398.055" y2="156.14"/><linearGradient id="SVGID_15_" gradientUnits="userSpaceOnUse" x1="251.011" x2="251.011" xlink:href="#lg4" y1="153.85" y2="-11.133"/><g><path d="m156.437 340.94c-63.65 10.713-103.859 71.033-113.554 132.426-2.374 15.033 9.249 28.634 24.468 28.634h32.263l104.177-161.06z" fill="url(#SVGID_1_)"/><path d="m345.563 340.94c63.649 10.713 103.858 71.033 113.554 132.426 2.374 15.033-9.248 28.634-24.468 28.634h-32.263l-104.177-161.06z" fill="url(#SVGID_2_)"/><path d="m251 316.239c-83.608 0-151.386 83.168-151.386 185.761h97.511l53.875-13.832 53.874 13.832h97.511c.001-102.593-67.777-185.761-151.385-185.761z" fill="url(#SVGID_3_)"/><path d="m314.902 326.567v75.334l-36.6 100.099h-54.604l-36.6-100.099v-75.334z" fill="url(#SVGID_4_)"/><path d="m187.098 401.901 2.305 6.303c19.66 4.782 40.333 7.251 61.597 7.251s41.938-2.47 61.597-7.251l2.305-6.303v-75.334h-127.804z" fill="#efc534"/><path d="m159.175 348.586c-9.125 3.51-25.214 15.64-38.077 29.621-9.089 9.878-6.128 25.773 6.009 31.507 24.009 11.342 59.241 36.959 70.019 92.286h26.573c0-46.17-4.959-103.634-26.651-139.426z" fill="url(#SVGID_5_)"/><path d="m342.825 348.586c9.125 3.51 25.214 15.64 38.077 29.621 9.089 9.878 6.128 25.773-6.009 31.507-24.009 11.342-59.241 36.959-70.019 92.286h-26.573c0-46.17-3.796-100.401 17.896-136.193z" fill="url(#SVGID_6_)"/><path d="m320.802 368.665c-9.567 3.202-19.586 5.751-30.01 7.583-5.017 11.376-8.099 24.11-9.971 37.546 17.697-1.982 34.805-5.738 51.064-11.156 10.169-3.389 15.191-14.803 10.673-24.524-3.813-8.206-13.175-12.321-21.756-9.449z" fill="#12c7aa"/><path d="m121.098 378.207c-.277.301-.541.607-.796.919 27.963 17.738 60.445 29.321 95.337 33.988-4.073-18.872-10.022-36.4-18.592-50.54l-37.872-13.987c-9.125 3.509-25.214 15.639-38.077 29.62z" fill="#12c7aa"/><ellipse cx="83.849" cy="280.659" fill="url(#SVGID_7_)" rx="56.757" ry="52.027"/><ellipse cx="102.646" cy="351.038" fill="url(#SVGID_8_)" rx="49.4" ry="45.283"/><path d="m129.581 451.432c-5.205 4.878-13.352 4.878-18.557 0-15.835-14.842-33.972-22.946-33.972-48.638 0-21.896 19.364-39.646 43.251-39.646s43.251 17.75 43.251 39.646c-.001 25.692-18.139 33.796-33.973 48.638z" fill="url(#SVGID_9_)"/><ellipse cx="62.105" cy="210.545" fill="url(#SVGID_10_)" rx="50.458" ry="47.696"/><ellipse cx="51.096" cy="257.802" fill="url(#SVGID_11_)" rx="28.336" ry="25.956"/><ellipse cx="439.895" cy="210.545" fill="url(#SVGID_12_)" rx="50.458" ry="47.696"/><ellipse cx="450.904" cy="257.802" fill="url(#SVGID_13_)" rx="28.336" ry="25.956"/><ellipse cx="251" cy="210.545" fill="url(#SVGID_14_)" rx="188.895" ry="169.107"/><g><ellipse cx="163.114" cy="231.161" fill="#eaadcd" rx="14.936" ry="12.003"/><ellipse cx="338.885" cy="231.161" fill="#eaadcd" rx="14.936" ry="12.003"/><circle cx="188.721" cy="201.544" fill="#fff" r="29.618"/><circle cx="313.279" cy="201.544" fill="#fff" r="29.618"/><g fill="#3b3b44"><g><circle cx="188.721" cy="201.544" r="17.652"/><circle cx="313.279" cy="201.544" r="17.652"/></g><path d="m251 232.103c-5.248 0-10.495-1.984-14.776-5.954-2.025-1.877-2.145-5.041-.267-7.065 1.878-2.025 5.042-2.145 7.066-.267 4.697 4.354 11.257 4.354 15.954 0 2.023-1.879 5.188-1.759 7.066.267 1.877 2.024 1.758 5.188-.267 7.065-4.281 3.97-9.528 5.954-14.776 5.954z"/></g></g><path d="m251.011 6.967c142.005-33.173 230.212 57.063 210.534 165.762-2.447 13.515-18.987 18.882-28.946 9.423-19.245-18.279-47.37-46.7-71.142-76.043.91 5.357 1.671 10.787 2.222 16.172 1.01 9.884-6.73 18.481-16.666 18.481h-191.986c-9.935 0-17.674-8.596-16.664-18.48.551-5.395 1.314-10.836 2.226-16.202-23.778 29.353-51.914 57.787-71.166 76.072-9.959 9.459-26.499 4.092-28.946-9.423-19.678-108.699 68.528-198.935 210.534-165.762z" fill="url(#SVGID_15_)"/></g></svg>