<svg id="Capa_1" enable-background="new 0 0 502 502" height="512" viewBox="0 0 502 502" width="512" xmlns="http://www.w3.org/2000/svg" xmlns:xlink="http://www.w3.org/1999/xlink"><linearGradient id="lg1"><stop offset="0" stop-color="#ffbe9d"/><stop offset="1" stop-color="#ffd3bd"/></linearGradient><linearGradient id="SVGID_1_" gradientUnits="userSpaceOnUse" x1="98.729" x2="98.729" xlink:href="#lg1" y1="144.966" y2="35.068"/><linearGradient id="SVGID_2_" gradientUnits="userSpaceOnUse" x1="419.334" x2="419.334" xlink:href="#lg1" y1="324.664" y2="295.096"/><linearGradient id="SVGID_3_" gradientUnits="userSpaceOnUse" x1="264.982" x2="376.862" xlink:href="#lg1" y1="267.934" y2="267.934"/><linearGradient id="SVGID_4_" gradientUnits="userSpaceOnUse" x1="437.049" x2="437.049" xlink:href="#lg1" y1="370.601" y2="322.809"/><linearGradient id="SVGID_5_" gradientUnits="userSpaceOnUse" x1="427.157" x2="427.157" xlink:href="#lg1" y1="424.271" y2="367.826"/><linearGradient id="SVGID_6_" gradientUnits="userSpaceOnUse" x1="408.519" x2="408.519" xlink:href="#lg1" y1="474.302" y2="424.717"/><linearGradient id="lg2"><stop offset="0" stop-color="#d4dbdb"/><stop offset="1" stop-color="#f3f3f3"/></linearGradient><linearGradient id="SVGID_7_" gradientUnits="userSpaceOnUse" x1="-39.533" x2="383.655" xlink:href="#lg2" y1="337.219" y2="337.219"/><linearGradient id="lg3"><stop offset="0" stop-color="#c5cccc"/><stop offset="1" stop-color="#e6e6e6"/></linearGradient><linearGradient id="SVGID_8_" gradientUnits="userSpaceOnUse" x1="98.729" x2="98.729" xlink:href="#lg3" y1="227.502" y2="111.145"/><linearGradient id="SVGID_9_" gradientUnits="userSpaceOnUse" x1="139.167" x2="346.193" xlink:href="#lg3" y1="374.771" y2="374.771"/><linearGradient id="SVGID_10_" gradientUnits="userSpaceOnUse" x1="140.728" x2="140.728" xlink:href="#lg2" y1="513.639" y2="330.996"/><g><path d="m42.058 21.685h113.341c13.35 0 24.172 10.822 24.172 24.172v111.274h-161.685v-111.273c0-13.35 10.822-24.173 24.172-24.173z" fill="url(#SVGID_1_)"/><path d="m372.098 328.067v-46.704h71.12c12.897 0 23.352 10.455 23.352 23.352 0 12.897-10.455 23.352-23.352 23.352z" fill="url(#SVGID_2_)"/><path d="m307.493 323.874-42.511-42.511 60.564-60.564c11.739-11.739 30.772-11.739 42.511 0 11.739 11.739 11.739 30.772 0 42.511z" fill="url(#SVGID_3_)"/><path d="m372.098 374.771v-46.704h106.549c12.897 0 23.352 10.455 23.352 23.352 0 12.897-10.455 23.352-23.352 23.352z" fill="url(#SVGID_4_)"/><path d="m372.098 421.475v-46.704h86.765c12.897 0 23.352 10.455 23.352 23.352 0 12.897-10.455 23.352-23.352 23.352z" fill="url(#SVGID_5_)"/><path d="m372.098 468.18v-46.704h49.49c12.897 0 23.352 10.455 23.352 23.352 0 12.897-10.455 23.352-23.352 23.352z" fill="url(#SVGID_6_)"/><path d="m129.415 109.071c0-11.046-8.954-20-20-20h-81.354c-3.458 0-6.854.263-10.175.763v41.147c3.156-1.229 6.585-1.91 10.175-1.91h81.354c11.046 0 20-8.954 20-20z" fill="#f2af8d"/><path d="m368.127 269.228h-43.579c-.005.003-73.994 39.426-129.067 12.135-21.951-10.877 1.976-87.24 1.976-87.24l-197.457 14.073v122.779c0 18.096 3.22 35.439 9.116 51.49 27.214 15.127 53.958 40.106 69.774 80.213 20.987 11.25 44.971 17.637 70.45 17.637h69.152l53.848-14.326 52.208 14.326h43.58c17.908 0 32.425-14.517 32.425-32.425v-146.237c0-17.908-14.518-32.425-32.426-32.425z" fill="url(#SVGID_7_)"/><path d="m197.458 194.123v-36.991c0-15.498-12.563-28.061-28.061-28.061h-141.336c-15.498 0-28.061 12.563-28.061 28.061v51.064h193.558c2.133-8.429 3.9-14.073 3.9-14.073z" fill="url(#SVGID_8_)"/><path d="m324.548 269.228h-52.208l-53.849 18v193.087h106.057z" fill="url(#SVGID_9_)"/><path d="m216.652 269.228c-10.601 0-19.194-8.593-19.194-19.194v-55.911l-188.342 188.342c12.675 34.508 37.728 63.035 69.774 80.213l193.45-193.45z" fill="url(#SVGID_10_)"/><g><ellipse cx="118.484" cy="387.405" fill="#eaadcd" rx="14.936" ry="12.003"/><ellipse cx="294.255" cy="387.405" fill="#eaadcd" rx="14.936" ry="12.003"/><circle cx="144.09" cy="357.788" fill="#fff" r="29.618"/><circle cx="268.648" cy="357.788" fill="#fff" r="29.618"/><path d="m134.307 368.218c-1.222 0-2.46-.299-3.606-.929-3.63-1.996-4.955-6.556-2.959-10.186 3.279-5.964 9.543-9.669 16.349-9.669h.001c6.806.001 13.07 3.705 16.348 9.669 1.996 3.63.67 8.19-2.96 10.186-3.628 1.996-8.189.671-10.185-2.959-.94-1.71-2.554-1.895-3.204-1.896-.65 0-2.264.185-3.205 1.896-1.365 2.484-3.932 3.888-6.579 3.888z" fill="#3b3b44"/><path d="m278.431 368.218c-2.647.001-5.214-1.404-6.579-3.888-.94-1.71-2.554-1.896-3.204-1.896s-2.264.185-3.204 1.896c-1.995 3.629-6.556 4.954-10.185 2.959-3.63-1.995-4.955-6.556-2.96-10.186 3.278-5.964 9.543-9.669 16.349-9.669 6.805 0 13.07 3.705 16.348 9.669 1.996 3.63.67 8.19-2.96 10.186-1.145.63-2.384.929-3.605.929z" fill="#3b3b44"/><g><path d="m218.04 397.592h-23.342c-6.508 0-11.784-5.276-11.784-11.784 0-6.508 5.276-11.784 11.784-11.784h23.342c6.508 0 11.784 5.276 11.784 11.784 0 6.508-5.276 11.784-11.784 11.784z" fill="#3b3b44"/></g></g></g></svg>