<svg id="Capa_1" enable-background="new 0 0 502 502" height="512" viewBox="0 0 502 502" width="512" xmlns="http://www.w3.org/2000/svg" xmlns:xlink="http://www.w3.org/1999/xlink"><linearGradient id="lg1"><stop offset="0" stop-color="#4e5660"/><stop offset="1" stop-color="#64768d"/></linearGradient><linearGradient id="SVGID_1_" gradientUnits="userSpaceOnUse" x1="251" x2="251" xlink:href="#lg1" y1="197.048" y2="10.767"/><linearGradient id="lg2"><stop offset="0" stop-color="#5bd9bb"/><stop offset=".2532" stop-color="#60dabd"/><stop offset=".5725" stop-color="#70dec4"/><stop offset=".9261" stop-color="#8ae4cf"/><stop offset="1" stop-color="#90e6d2"/></linearGradient><linearGradient id="SVGID_2_" gradientUnits="userSpaceOnUse" x1="251" x2="251" xlink:href="#lg2" y1="228.506" y2="104.766"/><linearGradient id="SVGID_3_" gradientUnits="userSpaceOnUse" x1="251" x2="251" xlink:href="#lg2" y1="238.889" y2="464.192"/><linearGradient id="lg3"><stop offset="0" stop-color="#f9edaf"/><stop offset="1" stop-color="#fffcdd"/></linearGradient><linearGradient id="SVGID_4_" gradientUnits="userSpaceOnUse" x1="251" x2="251" xlink:href="#lg3" y1="166.559" y2="64.855"/><linearGradient id="SVGID_5_" gradientUnits="userSpaceOnUse" x1="251" x2="251" xlink:href="#lg1" y1="506.223" y2="371.952"/><linearGradient id="SVGID_6_" gradientUnits="userSpaceOnUse" x1="251" x2="251" xlink:href="#lg3" y1="457.317" y2="340.616"/><linearGradient id="SVGID_7_" gradientUnits="userSpaceOnUse" x1="251" x2="251" xlink:href="#lg2" y1="438.176" y2="365.05"/><linearGradient id="SVGID_8_" gradientUnits="userSpaceOnUse" x1="251" x2="251" y1="292.457" y2="199.015"><stop offset="0" stop-color="#f4d952"/><stop offset="1" stop-color="#f9edaf"/></linearGradient><g><path d="m373.959 175.483h-245.918c-19.893 0-36.02-16.126-36.02-36.02v-103.443c0-19.893 16.127-36.02 36.02-36.02h245.918c19.893 0 36.02 16.127 36.02 36.02v103.444c0 19.893-16.127 36.019-36.02 36.019z" fill="url(#SVGID_1_)"/><path d="m354.118 90.571h-206.236c-14.77 0-26.743 11.973-26.743 26.743v136.641h259.722v-136.641c0-14.77-11.973-26.743-26.743-26.743z" fill="url(#SVGID_2_)"/><path d="m380.861 253.954h-259.722v136.641c0 14.77 11.973 26.743 26.743 26.743h206.235c14.77 0 26.743-11.973 26.743-26.743v-136.641z" fill="url(#SVGID_3_)"/><path d="m162.36 118.212c0 6.556.873 21.626 2.828 33.318 1.656 9.898 8.903 17.995 18.597 20.589 19.717 5.276 50.92 6.896 67.215 6.896 16.294 0 47.497-1.621 67.215-6.896 9.694-2.594 16.942-10.691 18.597-20.589 1.956-11.692 2.828-26.763 2.828-33.318 0-6.556-.873-21.626-2.828-33.318-1.656-9.898-8.903-17.995-18.597-20.589-19.717-5.276-50.92-6.896-67.215-6.896s-47.497 1.621-67.215 6.896c-9.694 2.594-16.942 10.691-18.597 20.589-1.955 11.691-2.828 26.762-2.828 33.318z" fill="url(#SVGID_4_)"/><path d="m373.959 502h-245.918c-19.893 0-36.02-16.127-36.02-36.02v-54.448c0-19.893 16.127-36.02 36.02-36.02h245.918c19.893 0 36.02 16.127 36.02 36.02v54.448c0 19.893-16.127 36.02-36.02 36.02z" fill="url(#SVGID_5_)"/><g><circle cx="251" cy="399.409" fill="url(#SVGID_6_)" r="59.961"/><path d="m262.658 385.379v-16.932c0-2.216-1.796-4.012-4.012-4.012h-15.292c-2.216 0-4.012 1.796-4.012 4.012v16.932c0 1.31-1.062 2.372-2.372 2.372h-16.932c-2.216 0-4.012 1.796-4.012 4.012v15.292c0 2.216 1.796 4.012 4.012 4.012h16.932c1.31 0 2.372 1.062 2.372 2.372v16.932c0 2.216 1.796 4.012 4.012 4.012h15.292c2.216 0 4.012-1.796 4.012-4.012v-16.932c0-1.31 1.062-2.372 2.372-2.372h16.932c2.216 0 4.012-1.796 4.012-4.012v-15.292c0-2.216-1.796-4.012-4.012-4.012h-16.932c-1.31 0-2.372-1.062-2.372-2.372z" fill="url(#SVGID_7_)"/></g><path d="m314.952 299.17-193.813-20.88v35.203l190.064 20.475c9.543 1.028 18.133-5.822 19.254-15.355 1.138-9.665-5.829-18.401-15.505-19.443z" fill="#10bfa4"/><path d="m365.606 304.626-248.04-26.721c-12.739-1.372-22.396-12.125-22.396-24.938v-10.729c0-13.853 11.23-25.082 25.082-25.082h261.495c13.853 0 25.082 11.23 25.082 25.082v25.367c.001 22.143-19.207 39.393-41.223 37.021z" fill="url(#SVGID_8_)"/><g fill="#8196ab"><path d="m373.959 38h-40.683c-5.522 0-10-4.478-10-10s4.478-10 10-10h40.683c5.522 0 10 4.478 10 10s-4.478 10-10 10z"/><path d="m292.203 38h-5.503c-5.523 0-10-4.478-10-10s4.477-10 10-10h5.503c5.522 0 10 4.478 10 10s-4.477 10-10 10z"/></g></g></svg>