<svg id="Capa_1" enable-background="new 0 0 502 502" height="512" viewBox="0 0 502 502" width="512" xmlns="http://www.w3.org/2000/svg" xmlns:xlink="http://www.w3.org/1999/xlink"><linearGradient id="lg1"><stop offset="0" stop-color="#5bd9bb"/><stop offset=".2532" stop-color="#60dabd"/><stop offset=".5725" stop-color="#70dec4"/><stop offset=".9261" stop-color="#8ae4cf"/><stop offset="1" stop-color="#90e6d2"/></linearGradient><linearGradient id="SVGID_1_" gradientUnits="userSpaceOnUse" x1="98.335" x2="98.335" xlink:href="#lg1" y1="155.177" y2="40.25"/><linearGradient id="SVGID_2_" gradientUnits="userSpaceOnUse" x1="251" x2="251" xlink:href="#lg1" y1="155.177" y2="40.25"/><linearGradient id="SVGID_3_" gradientUnits="userSpaceOnUse" x1="403.665" x2="403.665" xlink:href="#lg1" y1="155.177" y2="40.25"/><linearGradient id="SVGID_4_" gradientUnits="userSpaceOnUse" x1="251" x2="251" y1="158.684" y2="364.164"><stop offset="0" stop-color="#d4dbdb"/><stop offset="1" stop-color="#f3f3f3"/></linearGradient><linearGradient id="SVGID_5_" gradientUnits="userSpaceOnUse" x1="251" x2="251" y1="471.504" y2="394.449"><stop offset="0" stop-color="#c5cccc"/><stop offset="1" stop-color="#e6e6e6"/></linearGradient><linearGradient id="lg2"><stop offset="0" stop-color="#4e5660"/><stop offset="1" stop-color="#64768d"/></linearGradient><linearGradient id="SVGID_6_" gradientUnits="userSpaceOnUse" x1="35.249" x2="505.739" xlink:href="#lg2" y1="192.545" y2="192.545"/><linearGradient id="SVGID_7_" gradientUnits="userSpaceOnUse" x1="251" x2="251" y1="271.34" y2="136.94"><stop offset="0" stop-color="#f4d952"/><stop offset="1" stop-color="#f9edaf"/></linearGradient><linearGradient id="SVGID_8_" gradientUnits="userSpaceOnUse" x1="289.523" x2="289.523" y1="217.838" y2="131.377"><stop offset="0" stop-color="#e896a1"/><stop offset="1" stop-color="#f2d3da"/></linearGradient><linearGradient id="SVGID_9_" gradientUnits="userSpaceOnUse" x1="212.476" x2="212.476" y1="232.834" y2="164.113"><stop offset="0" stop-color="#dd5c6e"/><stop offset="1" stop-color="#ec8290"/></linearGradient><linearGradient id="lg3"><stop offset="0" stop-color="#53aae6"/><stop offset="1" stop-color="#a4d2f0"/></linearGradient><linearGradient id="SVGID_10_" gradientUnits="userSpaceOnUse" x1="251" x2="251" xlink:href="#lg3" y1="364.311" y2="311.313"/><linearGradient id="SVGID_11_" gradientUnits="userSpaceOnUse" x1="374.038" x2="374.038" xlink:href="#lg3" y1="364.311" y2="311.313"/><linearGradient id="SVGID_12_" gradientUnits="userSpaceOnUse" x1="120.526" x2="120.526" xlink:href="#lg2" y1="460.018" y2="323.923"/><g><path d="m22.003 156.894 116.257-116.258c13.435-13.435 36.407-3.92 36.407 15.08v101.178z" fill="url(#SVGID_1_)"/><path d="m174.668 156.894 116.257-116.258c13.435-13.435 36.407-3.92 36.407 15.08v101.178z" fill="url(#SVGID_2_)"/><path d="m327.332 156.894 116.258-116.258c13.435-13.435 36.407-3.92 36.407 15.08v101.178z" fill="url(#SVGID_3_)"/><path d="m477.164 400.689-226.164 33.482-226.164-33.482v-194.126h452.328z" fill="url(#SVGID_4_)"/><path d="m416.913 238.656h-67.87c-13.795 17.766-35.337 29.231-59.52 29.231h-77.112c-24.155-.021-45.671-11.482-59.454-29.231h-120.819c-2.513 0-4.955-.298-7.301-.843v35.44c2.399.261 4.834.404 7.301.404h105.57c20.213 18.729 46.602 29.205 74.704 29.23h77.111c28.114 0 54.534-10.478 74.771-29.23h52.619c9.665 0 17.5-7.835 17.5-17.5 0-9.666-7.835-17.501-17.5-17.501z" fill="#c2c8cf"/><path d="m426.674 467.653h-351.348c-27.885 0-50.49-22.605-50.49-50.49v-16.475h452.327v16.475c.001 27.885-22.604 50.49-50.489 50.49z" fill="url(#SVGID_5_)"/><path d="m469.862 146.434h-437.724c-17.749 0-32.138 14.389-32.138 32.138v27.946c0 17.749 14.389 32.138 32.138 32.138h437.725c17.749 0 32.138-14.388 32.138-32.138v-27.946c-.001-17.749-14.389-32.138-32.139-32.138z" fill="url(#SVGID_6_)"/><path d="m212.412 267.887c-41.512-.037-75.277-33.82-75.277-75.341 0-41.544 33.798-75.342 75.341-75.342h77.047c41.544 0 75.341 33.798 75.341 75.341s-33.798 75.342-75.341 75.342z" fill="url(#SVGID_7_)"/><g><path d="m251 231.069v-77.047h38.523c21.276 0 38.523 17.247 38.523 38.523 0 21.276-17.248 38.523-38.523 38.523h-38.523z" fill="url(#SVGID_8_)"/><path d="m251 231.069v-77.047h-38.523c-21.276 0-38.523 17.248-38.523 38.523 0 21.276 17.248 38.523 38.523 38.523h38.523z" fill="url(#SVGID_9_)"/></g><path d="m275.698 367.285h-49.396c-8.102 0-14.67-6.568-14.67-14.67v-19.195c0-8.102 6.568-14.67 14.67-14.67h49.396c8.102 0 14.671 6.568 14.671 14.67v19.195c-.001 8.101-6.569 14.67-14.671 14.67z" fill="url(#SVGID_10_)"/><path d="m398.736 367.285h-49.396c-8.102 0-14.67-6.568-14.67-14.67v-19.195c0-8.102 6.568-14.67 14.67-14.67h49.396c8.102 0 14.671 6.568 14.671 14.67v19.195c-.001 8.101-6.569 14.67-14.671 14.67z" fill="url(#SVGID_11_)"/><path d="m101.555 343.016h37.941c14.486 0 26.229 11.743 26.229 26.229v98.407h-90.4v-98.407c.001-14.485 11.744-26.229 26.23-26.229z" fill="url(#SVGID_12_)"/></g></svg>