<svg id="Capa_1" enable-background="new 0 0 502 502" height="512" viewBox="0 0 502 502" width="512" xmlns="http://www.w3.org/2000/svg" xmlns:xlink="http://www.w3.org/1999/xlink"><linearGradient id="SVGID_1_" gradientUnits="userSpaceOnUse" x1="232.527" x2="232.527" y1="464.419" y2="-48.182"><stop offset="0" stop-color="#c5cccc"/><stop offset="1" stop-color="#e6e6e6"/></linearGradient><linearGradient id="SVGID_2_" gradientUnits="userSpaceOnUse" x1="211.186" x2="211.186" y1="445.209" y2="116.363"><stop offset="0" stop-color="#d4dbdb"/><stop offset="1" stop-color="#f3f3f3"/></linearGradient><linearGradient id="SVGID_3_" gradientUnits="userSpaceOnUse" x1="417.355" x2="417.355" y1="373.358" y2="33.163"><stop offset="0" stop-color="#f4d952"/><stop offset="1" stop-color="#f9edaf"/></linearGradient><g><path d="m177.98 32.888-10.812-8.031c-12.883-9.57-30.834-8.253-42.182 3.095l-115.507 115.507c-11.348 11.348-12.665 29.299-3.095 42.182l8.031 10.812c5.761 7.755 4.968 18.56-1.863 25.391-6.754 6.755-6.754 17.706 0 24.46l216.295 216.295c27.904 27.904 73.145 27.904 101.049 0l114.231-114.231c27.904-27.904 27.904-73.145 0-101.049l-216.296-216.294c-6.755-6.754-17.706-6.754-24.46 0-6.831 6.831-17.636 7.623-25.391 1.863z" fill="url(#SVGID_1_)"/><path d="m447.146 342.552h-59.582c-17.378 0-32.073-12.858-34.382-30.081-11.21-84.402-16.085-119.729-18.288-136.312-1.436-10.811-11.08-18.601-21.952-17.739-11.712.928-20.249 11.484-18.713 23.132 2.3 17.451 7.204 52.654 18.316 136.363 5.013 37.419 37.264 65.637 75.018 65.637h21.38l35.183-35.183c1.888-1.888 3.637-3.862 5.27-5.898-.745.048-1.494.081-2.25.081z" fill="#b9bec4"/><path d="m296.129 195.437-24.8-32.477c-30.621-40.1-79.385-62.075-129.71-58.451-29.765 2.143-53.44 25.818-55.583 55.583-3.624 50.325 18.351 99.088 58.451 129.71l123.756 94.502c14.851 11.341 35.802 9.943 49.015-3.27l18.299-18.299c9.238-68.259-39.428-167.298-39.428-167.298z" fill="url(#SVGID_2_)"/><path d="m296.129 195.437 16.417 122.478c2.365 17.656 10.799 33.259 23.01 44.82l27.005-27.005c13.213-13.213 14.611-34.163 3.27-49.015z" fill="#cad1d9"/><path d="m447.146 342.552h-59.582c-17.377 0-32.073-12.858-34.382-30.081l-19.237-143.523c-6.233-46.506 11.383-93.022 46.859-123.732 20.982-18.164 52.119-18.164 73.101 0 35.476 30.71 53.092 77.226 46.859 123.732l-19.237 143.523c-2.308 17.223-17.004 30.081-34.381 30.081z" fill="url(#SVGID_3_)"/><g fill="#fffde6"><path d="m449.82 88.031c-2.863 0-5.706-1.223-7.684-3.594-1.086-1.303-2.22-2.595-3.37-3.843-3.744-4.06-3.487-10.387.573-14.13 4.061-3.745 10.387-3.487 14.13.573 1.374 1.489 2.728 3.032 4.024 4.587 3.538 4.241 2.968 10.547-1.272 14.085-1.869 1.56-4.142 2.322-6.401 2.322z"/><path d="m475.942 156.596c-5.371 0-9.811-4.264-9.988-9.672-.339-10.286-2.207-20.425-5.554-30.134-1.8-5.221.974-10.913 6.195-12.713 5.221-1.802 10.913.973 12.713 6.195 3.998 11.599 6.23 23.71 6.634 35.995.182 5.52-4.146 10.142-9.666 10.322-.111.005-.222.007-.334.007z"/></g><g><path d="m150.364 193.611c-4.688 4.688-13.216 3.759-19.049-2.074s-6.762-14.362-2.074-19.049c4.688-4.688 13.216-3.759 19.049 2.074s6.762 14.362 2.074 19.049z" fill="#eaadcd"/><ellipse cx="264.091" cy="307.338" fill="#eaadcd" rx="12.003" ry="14.936" transform="matrix(.707 -.707 .707 .707 -139.97 276.755)"/><circle cx="178.852" cy="180.213" fill="#fff" r="29.618"/><circle cx="266.928" cy="268.289" fill="#fff" r="29.618"/><path d="m183.698 196.699c-.693 0-1.397-.097-2.097-.3-3.978-1.155-6.265-5.316-5.109-9.295.544-1.873-.467-3.146-.926-3.605-.461-.462-1.73-1.469-3.605-.926-3.971 1.159-8.139-1.13-9.295-5.109-1.156-3.977 1.132-8.139 5.109-9.295 6.533-1.902 13.584-.091 18.396 4.723 4.813 4.813 6.623 11.861 4.725 18.397-.952 3.279-3.947 5.41-7.198 5.41z" fill="#3b3b44"/><path d="m271.773 284.774c-.693 0-1.397-.097-2.097-.3-3.978-1.155-6.265-5.316-5.109-9.295.544-1.873-.466-3.145-.926-3.604-.459-.46-1.735-1.468-3.605-.926-3.978 1.153-8.14-1.131-9.295-5.109-1.155-3.979 1.132-8.14 5.109-9.295 6.537-1.897 13.585-.088 18.397 4.724 4.813 4.813 6.622 11.861 4.724 18.396-.952 3.279-3.947 5.409-7.198 5.409z" fill="#3b3b44"/><g><path d="m202.997 260.649-16.505-16.505c-4.602-4.602-4.602-12.063 0-16.665 4.602-4.602 12.063-4.602 16.666 0l16.505 16.505c4.602 4.602 4.602 12.064 0 16.665-4.603 4.602-12.064 4.602-16.666 0z" fill="#3b3b44"/></g></g></g></svg>